<svg xmlns="http://www.w3.org/2000/svg" viewBox="0 0 20.82 29.72"><defs><style>.cls-1{fill:#74121d;}</style></defs><g id="Livello_2" data-name="Livello 2"><g id="Livello_1-2" data-name="Livello 1"><path class="cls-1" d="M1.85,28.85a.91.91,0,0,1-.8-.4,1.08,1.08,0,0,1,.2-1.4l16.1-12.2L1.25,2.65a1.08,1.08,0,0,1-.2-1.4,1.08,1.08,0,0,1,1.4-.2l17.1,13a1.23,1.23,0,0,1,.4.8.91.91,0,0,1-.4.8l-17.1,13A1.42,1.42,0,0,1,1.85,28.85Z"/><path class="cls-1" d="M1.85,29a1,1,0,0,1-.9-.45,1.15,1.15,0,0,1-.19-.83A1.13,1.13,0,0,1,1.18,27l16-12.1-16-12.1A1.18,1.18,0,0,1,.76,2,1.16,1.16,0,0,1,1,1.17,1.2,1.2,0,0,1,2.52,1L19.63,14a1.39,1.39,0,0,1,.44.9,1,1,0,0,1-.45.9l-17.09,13A1.64,1.64,0,0,1,1.85,29Zm0-28H1.73a.85.85,0,0,0-.58.31A.93.93,0,0,0,1,2a.94.94,0,0,0,.31.58l16.24,12.3L1.33,27.15a.86.86,0,0,0-.32.58.9.9,0,0,0,.14.64.78.78,0,0,0,.7.35,1.38,1.38,0,0,0,.54-.18l17.08-13a.78.78,0,0,0,.35-.7,1.06,1.06,0,0,0-.36-.71L2.37,1.15A.79.79,0,0,0,1.88,1Z"/><path class="cls-1" d="M1.85,29.1a1.16,1.16,0,0,1-1-.51,1.28,1.28,0,0,1-.2-.92,1.25,1.25,0,0,1,.46-.82l15.84-12L1.1,2.85A1.28,1.28,0,0,1,.64,2,1.25,1.25,0,0,1,.85,1.1,1.21,1.21,0,0,1,1.68.64,1.25,1.25,0,0,1,2.6.85l17.1,13a1.49,1.49,0,0,1,.5,1,1.18,1.18,0,0,1-.51,1L2.6,28.85A1.67,1.67,0,0,1,1.85,29.1Zm0-28H1.75a.75.75,0,0,0-.5.27A.76.76,0,0,0,1.13,2a.75.75,0,0,0,.27.5l16.36,12.4L1.4,27.25a.75.75,0,0,0-.27.5.78.78,0,0,0,.12.55.68.68,0,0,0,.6.3,1.29,1.29,0,0,0,.49-.18l17.06-13a.66.66,0,0,0,.3-.6,1,1,0,0,0-.33-.63L2.3,1.25A.72.72,0,0,0,1.88,1.12Z"/><path class="cls-1" d="M1.85,29.22a1.27,1.27,0,0,1-1.11-.56,1.31,1.31,0,0,1-.22-1,1.38,1.38,0,0,1,.5-.91l15.71-11.9L1,3A1.4,1.4,0,0,1,.52,2,1.36,1.36,0,0,1,.75,1,1.39,1.39,0,0,1,1.66.51a1.37,1.37,0,0,1,1,.24l17.11,13a1.65,1.65,0,0,1,.54,1.1A1.27,1.27,0,0,1,19.76,16L2.68,29A1.89,1.89,0,0,1,1.85,29.22ZM1.88.75H1.69A1.16,1.16,0,0,0,1,1.17,1.16,1.16,0,0,0,.76,2a1.21,1.21,0,0,0,.41.75l16,12.1L1.18,27a1.13,1.13,0,0,0-.42.74,1.17,1.17,0,0,0,.18.82,1,1,0,0,0,.91.46,1.61,1.61,0,0,0,.69-.23l17.07-13a1,1,0,0,0,.46-.91,1.35,1.35,0,0,0-.46-.91L2.52,1A1.06,1.06,0,0,0,1.88.75Zm0,28a.78.78,0,0,1-.7-.35A.9.9,0,0,1,1,27.73a.88.88,0,0,1,.32-.58l16.23-12.3L1.32,2.55A.92.92,0,0,1,1,2a.93.93,0,0,1,.14-.65A.87.87,0,0,1,1.73,1a.89.89,0,0,1,.64.14l17.08,13a1.17,1.17,0,0,1,.37.73.78.78,0,0,1-.35.7l-17.06,13A1.31,1.31,0,0,1,1.85,28.72Zm0-27.47H1.76a.6.6,0,0,0-.41.21.62.62,0,0,0-.09.46.65.65,0,0,0,.21.42L18,14.85,1.48,27.35a.58.58,0,0,0-.22.41.62.62,0,0,0,.09.46.53.53,0,0,0,.5.25,1,1,0,0,0,.43-.16l17-13a.53.53,0,0,0,.25-.5.91.91,0,0,0-.29-.54L2.22,1.35A.53.53,0,0,0,1.88,1.25Z"/><path class="cls-1" d="M1.85,29.35a1.4,1.4,0,0,1-1.22-.63A1.56,1.56,0,0,1,1,26.65l15.57-11.8L1,3.05a1.5,1.5,0,0,1-.56-1A1.5,1.5,0,0,1,.65,1a1.57,1.57,0,0,1,2.1-.3l17.1,13a1.76,1.76,0,0,1,.6,1.2,1.4,1.4,0,0,1-.62,1.21L2.67,29.1A1.8,1.8,0,0,1,1.85,29.35Zm0-28a.56.56,0,0,0-.43.18.51.51,0,0,0-.07.36.53.53,0,0,0,.17.34l16.63,12.6L1.55,27.45a.52.52,0,0,0-.17.33.55.55,0,0,0,.07.37.42.42,0,0,0,.4.2,1.23,1.23,0,0,0,.37-.15l17-12.95a.43.43,0,0,0,.2-.4.82.82,0,0,0-.25-.45L2.15,1.45A.48.48,0,0,0,1.88,1.37Z"/><path class="cls-1" d="M1.85,29.47a1.52,1.52,0,0,1-1.32-.68,1.7,1.7,0,0,1,.34-2.24l15.44-11.7L.87,3.15a1.63,1.63,0,0,1-.6-1.08A1.64,1.64,0,0,1,.55.87,1.61,1.61,0,0,1,1.62.27a1.6,1.6,0,0,1,1.2.28l17.11,13a1.9,1.9,0,0,1,.64,1.3,1.54,1.54,0,0,1-.67,1.32L2.74,29.2A1.9,1.9,0,0,1,1.85,29.47Zm0-29-.22,0A1.34,1.34,0,0,0,.75,1,1.36,1.36,0,0,0,.52,2,1.38,1.38,0,0,0,1,3l15.71,11.9L1,26.75a1.37,1.37,0,0,0,.82,2.47A1.7,1.7,0,0,0,2.61,29L19.75,16a1.28,1.28,0,0,0,.57-1.11,1.7,1.7,0,0,0-.55-1.11L2.67.75A1.31,1.31,0,0,0,1.88.5Zm0,28a.54.54,0,0,1-.5-.25.62.62,0,0,1-.09-.46.61.61,0,0,1,.22-.41L18,14.85,1.47,2.35a.61.61,0,0,1-.21-.42.62.62,0,0,1,.09-.46.69.69,0,0,1,.53-.22.51.51,0,0,1,.34.1l17.05,13a.92.92,0,0,1,.3.55.54.54,0,0,1-.25.5l-17,13A1.28,1.28,0,0,1,1.85,28.47Zm0-27a.44.44,0,0,0-.33.12.38.38,0,0,0,0,.28.42.42,0,0,0,.11.25l16.76,12.7L1.63,27.55a.33.33,0,0,0-.12.25.35.35,0,0,0,0,.27.3.3,0,0,0,.3.15,1.29,1.29,0,0,0,.31-.13l17-12.94a.3.3,0,0,0,.15-.3.65.65,0,0,0-.21-.36L2.07,1.54A.34.34,0,0,0,1.88,1.5Z"/><path class="cls-1" d="M1.85,29.6a1.63,1.63,0,0,1-1.42-.74A1.8,1.8,0,0,1,.8,26.45l15.31-11.6L.8,3.25A1.77,1.77,0,0,1,.14,2.09,1.79,1.79,0,0,1,.45.8,1.7,1.7,0,0,1,1.6.15a1.76,1.76,0,0,1,1.3.3l17.1,13a2,2,0,0,1,.7,1.4A1.65,1.65,0,0,1,20,16.27L2.82,29.3A2.05,2.05,0,0,1,1.85,29.6Zm0-29h-.2a1.25,1.25,0,0,0-.83.46A1.25,1.25,0,0,0,.64,2a1.3,1.3,0,0,0,.46.83l15.84,12L1.1,26.85a1.25,1.25,0,0,0-.46.83,1.19,1.19,0,0,0,.19.89,1.17,1.17,0,0,0,1,.53,1.69,1.69,0,0,0,.7-.22l17.13-13a1.15,1.15,0,0,0,.52-1,1.56,1.56,0,0,0-.52-1L2.6.85A1.16,1.16,0,0,0,1.88.63Zm0,28a.68.68,0,0,1-.61-.31.78.78,0,0,1-.11-.54.75.75,0,0,1,.27-.5l16.36-12.4L1.4,2.45A.75.75,0,0,1,1.13,2a.76.76,0,0,1,.12-.55.79.79,0,0,1,.63-.28.66.66,0,0,1,.42.13l17.05,13a1.05,1.05,0,0,1,.35.65.68.68,0,0,1-.31.61L2.37,28.4A1.23,1.23,0,0,1,1.85,28.6Zm0-27a.34.34,0,0,0-.23.08.33.33,0,0,0,0,.18.3.3,0,0,0,.07.17l16.89,12.8L1.7,27.65a.24.24,0,0,0-.07.17.35.35,0,0,0,0,.18.19.19,0,0,0,.2.1L2.11,28l17-12.93a.2.2,0,0,0,.1-.2.59.59,0,0,0-.18-.27L2,1.64A.44.44,0,0,0,1.88,1.62Z"/><path class="cls-1" d="M1.85,29.72a1.77,1.77,0,0,1-1.53-.79A1.82,1.82,0,0,1,0,27.59a1.87,1.87,0,0,1,.7-1.24L15.9,14.85.72,3.34A1.85,1.85,0,0,1,0,2.11,1.9,1.9,0,0,1,.35.72,1.87,1.87,0,0,1,1.59,0,1.87,1.87,0,0,1,3,.35l17.11,13a2.13,2.13,0,0,1,.74,1.5A1.8,1.8,0,0,1,20,16.38L2.89,29.4A2.2,2.2,0,0,1,1.85,29.72ZM1.88.25l-.26,0A1.61,1.61,0,0,0,.55.87a1.64,1.64,0,0,0-.28,1.2,1.65,1.65,0,0,0,.6,1.08l15.44,11.7L.87,26.55a1.61,1.61,0,0,0-.6,1.07,1.63,1.63,0,0,0,.26,1.17,1.52,1.52,0,0,0,1.32.68,2,2,0,0,0,.91-.28l17.13-13a1.52,1.52,0,0,0,.68-1.32,1.9,1.9,0,0,0-.65-1.31L2.82.55A1.51,1.51,0,0,0,1.88.25Zm0,29a1.29,1.29,0,0,1-1.12-.58,1.28,1.28,0,0,1-.21-1A1.31,1.31,0,0,1,1,26.75l15.7-11.9L1,3A1.38,1.38,0,0,1,.52,2,1.36,1.36,0,0,1,.75,1a1.34,1.34,0,0,1,.91-.5,1.34,1.34,0,0,1,1,.23l17.08,13a1.66,1.66,0,0,1,.57,1.12A1.29,1.29,0,0,1,19.74,16L2.63,29A1.74,1.74,0,0,1,1.85,29.22ZM1.88.75H1.69A1.16,1.16,0,0,0,1,1.17,1.16,1.16,0,0,0,.76,2a1.21,1.21,0,0,0,.41.75l16,12.1L1.18,27A1.19,1.19,0,0,0,.93,28.5a1.06,1.06,0,0,0,.92.47,1.42,1.42,0,0,0,.65-.21l17.1-13a1.06,1.06,0,0,0,.47-.92,1.42,1.42,0,0,0-.48-.93L2.52,1A1,1,0,0,0,1.88.75Zm0,28a.78.78,0,0,1-.71-.36A.91.91,0,0,1,1,27.73a.88.88,0,0,1,.32-.58l16.23-12.3L1.32,2.55A.92.92,0,0,1,1,2a.92.92,0,0,1,.14-.65A.93.93,0,0,1,1.88,1a.76.76,0,0,1,.49.15l17.05,13a1.21,1.21,0,0,1,.4.75.81.81,0,0,1-.36.71L2.45,28.5A1.38,1.38,0,0,1,1.85,28.72Zm0-27.47a.69.69,0,0,0-.53.22.63.63,0,0,0-.09.46.65.65,0,0,0,.21.42L18,14.85,1.48,27.35a.61.61,0,0,0-.22.41.63.63,0,0,0,.08.45.54.54,0,0,0,.51.26,1.14,1.14,0,0,0,.46-.18l17-12.93a.55.55,0,0,0,.26-.51.94.94,0,0,0-.31-.56L2.22,1.34A.56.56,0,0,0,1.88,1.25Zm0,27a.3.3,0,0,1-.31-.15.35.35,0,0,1,0-.27.33.33,0,0,1,.12-.25l16.75-12.7L1.62,2.15a.42.42,0,0,1-.11-.25.38.38,0,0,1,0-.28.5.5,0,0,1,.52-.07l17,12.93a.72.72,0,0,1,.23.35.31.31,0,0,1-.15.32l-17,12.93a1.49,1.49,0,0,1-.31.14Zm-.08-.47a.24.24,0,0,0,0,.08.2.2,0,0,0,0,.11l0,0h.07s0,0,.2-.1L19,15c.05,0,.05,0,.05-.1h0a.91.91,0,0,0-.14-.18L1.93,1.75H1.88a.37.37,0,0,0-.14,0s0,0,0,.08a.18.18,0,0,0,0,.1l17,12.89-17,12.9Z"/></g></g></svg>