<svg width="26" height="26" viewBox="0 0 26 26" fill="none" xmlns="http://www.w3.org/2000/svg">
<path d="M13.0031 0C5.83284 0 0 5.8266 0 12.9969C0 16.4489 1.35179 19.5913 3.55472 21.9211C5.92722 24.4307 9.28486 26 13.0031 26C20.1734 26 26 20.1672 26 12.9969C26 5.8266 20.1734 0 13.0031 0ZM13.0031 1.625C19.2949 1.625 24.375 6.70514 24.375 12.9969C24.375 15.4862 23.5788 17.7856 22.228 19.6573C21.2509 16.9018 19.0388 14.7274 16.2449 13.7647C17.556 12.7765 18.4061 11.2073 18.4061 9.44632C18.4061 6.47062 15.9778 4.03598 13.003 4.03598C10.0273 4.03598 7.5979 6.47044 7.5979 9.44632C7.5979 11.2074 8.45 12.7767 9.76118 13.7647C6.96618 14.7265 4.74916 16.9 3.77104 19.6552C2.42026 17.7844 1.62503 15.4851 1.62503 12.9969C1.62503 6.70514 6.71112 1.625 13.0031 1.625ZM13.0031 5.66202C15.1004 5.66202 16.7812 7.34999 16.7812 9.44736C16.7812 11.5446 15.1003 13.2254 13.0031 13.2254C10.9059 13.2254 9.22298 11.5446 9.22298 9.44736C9.22298 7.3501 10.9059 5.66202 13.0031 5.66202ZM13.0031 14.8504C16.9377 14.8504 20.1734 17.5336 20.9646 21.1271C18.9151 23.137 16.1067 24.375 13.0031 24.375C9.90028 24.375 7.09124 23.138 5.03958 21.1302C5.82975 17.536 9.06646 14.8504 13.0031 14.8504Z" fill="#74121D"/>
</svg>
