<?xml version="1.0" encoding="utf-8"?>
<!-- Generator: Adobe Illustrator 25.4.1, SVG Export Plug-In . SVG Version: 6.00 Build 0)  -->
<svg version="1.1" id="Livello_1" xmlns="http://www.w3.org/2000/svg" xmlns:xlink="http://www.w3.org/1999/xlink" x="0px" y="0px"
	 viewBox="0 0 28 28" style="enable-background:new 0 0 28 28;" xml:space="preserve">
<style type="text/css">
	.st0{fill:#74121D;}
</style>
<g>
	<path class="st0" d="M21.8,27.8H6.2c-1.9,0-2.9,0-3.8-0.4c-0.8-0.4-1.4-1-1.7-1.7c-0.4-0.9-0.4-1.8-0.4-3.8V6.2
		c0-1.9,0-2.9,0.4-3.8c0.4-0.8,1-1.4,1.7-1.7c0.9-0.4,1.8-0.4,3.8-0.4h15.6c1.9,0,2.9,0,3.8,0.4c0.8,0.4,1.4,1,1.7,1.7
		c0.4,0.9,0.4,1.8,0.4,3.8v15.6c0,1.9,0,2.9-0.4,3.8c-0.4,0.8-1,1.4-1.7,1.7C24.7,27.8,23.7,27.8,21.8,27.8z M6.2,1.8
		c-1.7,0-2.6,0-3.1,0.3C2.6,2.3,2.3,2.6,2,3.1C1.8,3.6,1.8,4.5,1.8,6.2v15.6c0,1.7,0,2.5,0.3,3.1c0.2,0.5,0.6,0.9,1.1,1.1
		c0.5,0.3,1.4,0.3,3.1,0.3h15.6c1.7,0,2.5,0,3.1-0.3c0.5-0.2,0.9-0.6,1.1-1.1c0.3-0.5,0.3-1.4,0.3-3.1V6.2c0-1.7,0-2.6-0.3-3.1
		c-0.2-0.5-0.6-0.9-1.1-1.1c-0.5-0.3-1.4-0.3-3.1-0.3H6.2z M14,21.2c-0.4,0-0.8-0.3-0.8-0.8v-5.8H7.5c-0.4,0-0.8-0.3-0.8-0.8
		s0.3-0.8,0.8-0.8h5.8V7.5c0-0.4,0.3-0.8,0.8-0.8s0.8,0.3,0.8,0.8v5.8h5.8c0.4,0,0.8,0.3,0.8,0.8s-0.3,0.8-0.8,0.8h-5.8v5.8
		C14.8,20.9,14.4,21.2,14,21.2z"/>
</g>
</svg>
