<svg width="37" height="27" viewBox="0 0 37 27" fill="none" xmlns="http://www.w3.org/2000/svg">
<path d="M11.821 3.36365C5.30258 3.36365 0 8.66056 0 15.179C0 18.3172 1.2289 21.1739 3.23156 23.2919C5.38838 25.5734 8.44078 27 11.821 27C18.3395 27 23.6364 21.6974 23.6364 15.179C23.6364 8.66056 18.3395 3.36365 11.821 3.36365ZM11.821 4.84092C17.5408 4.84092 22.1591 9.45923 22.1591 15.179C22.1591 17.442 21.4352 19.5323 20.2072 21.2339C19.319 18.7289 17.308 16.7522 14.768 15.877C15.96 14.9786 16.7328 13.5521 16.7328 11.9512C16.7328 9.24603 14.5252 7.03272 11.8209 7.03272C9.11577 7.03272 6.90718 9.24586 6.90718 11.9512C6.90718 13.5522 7.68182 14.9788 8.8738 15.877C6.33289 16.7513 4.31742 18.7273 3.42822 21.232C2.20024 19.5313 1.4773 17.441 1.4773 15.179C1.4773 9.45923 6.10102 4.84092 11.821 4.84092ZM11.821 8.51094C13.7276 8.51094 15.2556 10.0455 15.2556 11.9522C15.2556 13.8588 13.7276 15.3868 11.821 15.3868C9.91441 15.3868 8.38453 13.8587 8.38453 11.9522C8.38453 10.0456 9.91444 8.51094 11.821 8.51094ZM11.821 16.864C15.3979 16.864 18.3395 19.3033 19.0587 22.5701C17.1955 24.3973 14.6425 25.5227 11.821 25.5227C9.00025 25.5227 6.44658 24.3982 4.58144 22.5729C5.29977 19.3054 8.24224 16.864 11.821 16.864Z" fill="#74121D"/>
<path d="M35.1354 4.9805L34.9058 4.8528C34.8702 4.83297 34.8527 4.82303 34.8354 4.81271C34.6643 4.71018 34.52 4.56852 34.4147 4.39903C34.4041 4.38198 34.3942 4.36409 34.3737 4.32875C34.3533 4.29345 34.343 4.27556 34.3335 4.25785C34.2391 4.08152 34.188 3.88502 34.185 3.68502C34.1846 3.66491 34.1847 3.64437 34.1854 3.60352L34.1899 3.33698C34.1971 2.91043 34.2007 2.6965 34.1407 2.5045C34.0875 2.33397 33.9984 2.17689 33.8795 2.04359C33.745 1.89291 33.5589 1.78541 33.1863 1.57069L32.8767 1.39233C32.5052 1.1782 32.3193 1.0711 32.122 1.03027C31.9475 0.994154 31.7674 0.995828 31.5935 1.03487C31.3972 1.07893 31.2137 1.18882 30.8469 1.40847L30.8448 1.40947L30.623 1.54226C30.5879 1.56326 30.5702 1.57384 30.5526 1.58361C30.3782 1.68059 30.1835 1.73421 29.984 1.74061C29.9639 1.74126 29.9435 1.74126 29.9026 1.74126C29.8619 1.74126 29.8406 1.74126 29.8206 1.74061C29.6207 1.73418 29.4255 1.68027 29.2509 1.58289C29.2332 1.57308 29.2158 1.56241 29.1807 1.54131L28.9575 1.40733C28.5882 1.18559 28.4032 1.07455 28.2059 1.03027C28.0313 0.9911 27.8505 0.990016 27.6754 1.0266C27.4776 1.06791 27.2917 1.17581 26.9199 1.39159L26.9182 1.39233L26.6126 1.56973L26.6092 1.5718C26.2407 1.78564 26.0561 1.89282 25.9227 2.04289C25.8044 2.17606 25.716 2.33289 25.6631 2.50297C25.6032 2.69523 25.6064 2.90962 25.6136 3.33818L25.6181 3.60435C25.6188 3.64465 25.62 3.66468 25.6197 3.68451C25.6167 3.88492 25.565 4.08182 25.4702 4.25846C25.4609 4.27593 25.4508 4.2934 25.4306 4.32829C25.4104 4.36321 25.4007 4.38058 25.3902 4.39743C25.2845 4.56782 25.1395 4.71031 24.9673 4.81302C24.9503 4.82318 24.9323 4.83295 24.897 4.8525L24.6704 4.97809C24.2933 5.18704 24.1049 5.2916 23.9677 5.44041C23.8464 5.57205 23.7547 5.7282 23.6988 5.89826C23.6355 6.0905 23.6356 6.30606 23.6366 6.73714L23.6374 7.08947C23.6383 7.51767 23.6397 7.73162 23.7031 7.92256C23.7591 8.09147 23.8501 8.2467 23.9708 8.37755C24.1071 8.52545 24.2938 8.62937 24.6679 8.83754L24.8926 8.96249C24.9308 8.98375 24.95 8.99425 24.9684 9.00535C25.1391 9.10813 25.2829 9.25022 25.3878 9.41964C25.3991 9.43794 25.41 9.45694 25.4317 9.49493C25.4532 9.53245 25.4642 9.55121 25.4741 9.57001C25.566 9.74406 25.6153 9.93745 25.6186 10.1343C25.619 10.1555 25.6187 10.177 25.6179 10.2203L25.6136 10.4757C25.6064 10.9057 25.6032 11.121 25.6634 11.3138C25.7166 11.4843 25.8056 11.6414 25.9246 11.7747C26.059 11.9254 26.2454 12.0328 26.6181 12.2475L26.9275 12.4258C27.2991 12.64 27.4848 12.7469 27.6821 12.7878C27.8566 12.8239 28.0369 12.8225 28.2108 12.7834C28.4073 12.7393 28.5915 12.629 28.9593 12.4088L29.1811 12.276C29.2162 12.255 29.234 12.2444 29.2515 12.2347C29.426 12.1377 29.6205 12.0838 29.8199 12.0774C29.84 12.0767 29.8605 12.0767 29.9014 12.0767C29.9424 12.0767 29.9628 12.0767 29.9829 12.0774C30.1828 12.0838 30.3785 12.1379 30.5532 12.2353C30.5686 12.2438 30.584 12.2531 30.611 12.2693L30.8468 12.4109C31.2162 12.6327 31.4008 12.7434 31.5981 12.7876C31.7727 12.8268 31.9536 12.8284 32.1288 12.7918C32.3265 12.7505 32.5128 12.6424 32.8844 12.4267L33.1946 12.2467C33.5633 12.0327 33.7482 11.9254 33.8815 11.7753C33.9999 11.6421 34.0884 11.4854 34.1413 11.3153C34.2007 11.1244 34.1971 10.9117 34.19 10.4893L34.1854 10.2138C34.1847 10.1735 34.1846 10.1535 34.1849 10.1336C34.1879 9.93324 34.2388 9.7362 34.3335 9.55956C34.3429 9.54212 34.3531 9.52451 34.3731 9.48972C34.3933 9.45481 34.4038 9.43741 34.4142 9.42056C34.52 9.25017 34.665 9.10755 34.8373 9.00484C34.8541 8.99481 34.8714 8.98521 34.9059 8.96612L34.9071 8.96557L35.1337 8.83999C35.5107 8.63104 35.6996 8.52636 35.8367 8.37755C35.9581 8.24591 36.0496 8.08998 36.1055 7.91992C36.1684 7.72881 36.1679 7.5145 36.167 7.08846L36.1661 6.72857C36.1652 6.30037 36.1646 6.08644 36.1013 5.89551C36.0452 5.72659 35.9537 5.57136 35.833 5.44051C35.6968 5.29275 35.5099 5.1888 35.1365 4.98103L35.1354 4.9805Z" stroke="#74121D" stroke-linecap="round" stroke-linejoin="round"/>
<path d="M27.3948 6.90913C27.3948 8.29379 28.5173 9.41627 29.902 9.41627C31.2866 9.41627 32.4091 8.29379 32.4091 6.90913C32.4091 5.52448 31.2866 4.402 29.902 4.402C28.5173 4.402 27.3948 5.52448 27.3948 6.90913Z" stroke="#74121D" stroke-linecap="round" stroke-linejoin="round"/>
</svg>
