<svg width="26" height="26" viewBox="0 0 26 26" fill="none" xmlns="http://www.w3.org/2000/svg">
<path fill-rule="evenodd" clip-rule="evenodd" d="M1.94875 0H10.1225C11.1948 0 12.0712 0.875269 12.0712 1.94875V10.1225C12.0712 11.1948 11.1959 12.0712 10.1225 12.0712H1.94875C0.876381 12.0712 0 11.1959 0 10.1225V1.94875C0 0.876381 0.876381 0 1.94875 0ZM19.345 0.619157C19.345 -0.19599 20.5833 -0.19599 20.5833 0.619157V5.41642H25.3805C26.1957 5.41642 26.1957 6.65473 25.3805 6.65473H20.5833V11.452C20.5833 12.2671 19.345 12.2671 19.345 11.452V6.65473H14.5477C13.7325 6.65473 13.7325 5.41642 14.5477 5.41642H19.345V0.619157ZM15.8773 13.9288H24.051C25.1234 13.9288 25.9997 14.8041 25.9997 15.8775V24.0512C25.9997 25.1247 25.1245 26 24.051 26H15.8773C14.8049 26 13.9285 25.1247 13.9285 24.0512V15.8775C13.9285 14.8041 14.8038 13.9288 15.8773 13.9288ZM24.051 15.1671H15.8773C15.4875 15.1671 15.1668 15.4878 15.1668 15.8776V24.0513C15.1668 24.441 15.4875 24.7617 15.8773 24.7617H24.051C24.4407 24.7617 24.7615 24.441 24.7615 24.0513V15.8776C24.7615 15.4878 24.4407 15.1671 24.051 15.1671ZM1.94875 13.9288H10.1225C11.1948 13.9288 12.0712 14.8041 12.0712 15.8775V24.0512C12.0712 25.1247 11.1959 26 10.1225 26H1.94875C0.876381 26 0 25.1247 0 24.0512V15.8775C0 14.8041 0.876381 13.9288 1.94875 13.9288ZM10.1225 15.1671H1.94875C1.559 15.1671 1.23829 15.4878 1.23829 15.8776V24.0513C1.23829 24.441 1.559 24.7617 1.94875 24.7617H10.1225C10.5122 24.7617 10.8329 24.441 10.8329 24.0513V15.8776C10.8329 15.4878 10.5122 15.1671 10.1225 15.1671ZM10.1225 1.23857H1.94875C1.559 1.23857 1.23829 1.55928 1.23829 1.94904V10.1227C1.23829 10.5125 1.559 10.8332 1.94875 10.8332H10.1225C10.5122 10.8332 10.8329 10.5125 10.8329 10.1227V1.94904C10.8329 1.55928 10.5122 1.23857 10.1225 1.23857Z" fill="#74121D"/>
</svg>
