<svg id="Livello_1" data-name="Livello 1" xmlns="http://www.w3.org/2000/svg" viewBox="0 0 28.5 28.5"><defs><style>.cls-1{fill:#74121d;}</style></defs><path class="cls-1" d="M14.5,28A13.5,13.5,0,1,0,1,14.5,13.52,13.52,0,0,0,14.5,28Zm0-25.94A12.44,12.44,0,1,1,2.06,14.5,12.45,12.45,0,0,1,14.5,2.06Z" transform="translate(-0.25 -0.25)"/><path class="cls-1" d="M14.5,28.75A14.25,14.25,0,1,1,28.75,14.5,14.26,14.26,0,0,1,14.5,28.75Zm0-25.94A11.69,11.69,0,1,0,26.19,14.5,11.7,11.7,0,0,0,14.5,2.81Z" transform="translate(-0.25 -0.25)"/><path class="cls-1" d="M8,15H21.84a.53.53,0,1,0,0-1.06H8A.53.53,0,0,0,8,15Z" transform="translate(-0.25 -0.25)"/><path class="cls-1" d="M21.84,15.78H8a1.28,1.28,0,0,1,0-2.56H21.84a1.28,1.28,0,1,1,0,2.56Z" transform="translate(-0.25 -0.25)"/><path class="cls-1" d="M11.94,19.16a.53.53,0,0,0,.32-.94l-1.64-1.31L8,14.55l4.37-3.78A.54.54,0,0,0,12.4,10a.53.53,0,0,0-.75,0L6.82,14.14a.51.51,0,0,0-.19.4.55.55,0,0,0,.18.4l3.12,2.78,1.68,1.33A.49.49,0,0,0,11.94,19.16Z" transform="translate(-0.25 -0.25)"/><path class="cls-1" d="M11.94,19.91a1.35,1.35,0,0,1-.8-.27L9.47,18.31,6.31,15.5a1.33,1.33,0,0,1-.43-1,1.31,1.31,0,0,1,.45-1L11.16,9.4a1.28,1.28,0,0,1,1.67,1.94L9.1,14.56l2,1.79,1.61,1.28a1.25,1.25,0,0,1,.48.85,1.3,1.3,0,0,1-.27.95A1.29,1.29,0,0,1,11.94,19.91Z" transform="translate(-0.25 -0.25)"/></svg>