<?xml version="1.0" encoding="utf-8"?>
<!-- Generator: Adobe Illustrator 25.4.1, SVG Export Plug-In . SVG Version: 6.00 Build 0)  -->
<svg version="1.1" id="Livello_1" xmlns="http://www.w3.org/2000/svg" xmlns:xlink="http://www.w3.org/1999/xlink" x="0px" y="0px"
	 viewBox="0 0 29 29" style="enable-background:new 0 0 29 29;" xml:space="preserve">
<style type="text/css">
	.st0{fill:#fff;}
	.st1{fill:red;}
</style>
<g>
	<path class="st0" d="M14.5,28C21.9,28,28,21.9,28,14.5S21.9,1,14.5,1S1,7.1,1,14.5S7.1,28,14.5,28z M14.5,2.1
		c6.9,0,12.4,5.6,12.4,12.4c0,6.9-5.6,12.4-12.4,12.4c-6.9,0-12.4-5.6-12.4-12.4C2.1,7.6,7.6,2.1,14.5,2.1z"/>
	<path class="st0" d="M14.5,28.5c-7.7,0-14-6.3-14-14s6.3-14,14-14s14,6.3,14,14S22.2,28.5,14.5,28.5z M14.5,1.5
		c-7.2,0-13,5.8-13,13c0,7.2,5.8,13,13,13c7.2,0,13-5.8,13-13C27.5,7.3,21.7,1.5,14.5,1.5z M14.5,27.4c-7.1,0-12.9-5.8-12.9-12.9
		c0-7.1,5.8-12.9,12.9-12.9s12.9,5.8,12.9,12.9C27.4,21.6,21.6,27.4,14.5,27.4z M14.5,2.6C7.9,2.6,2.6,7.9,2.6,14.5
		s5.4,11.9,11.9,11.9c6.6,0,11.9-5.4,11.9-11.9S21.1,2.6,14.5,2.6z"/>
</g>
<g>
	<path class="st0" d="M8,15h13.8c0.3,0,0.5-0.2,0.5-0.5c0-0.3-0.2-0.5-0.5-0.5H8c-0.3,0-0.5,0.2-0.5,0.5C7.5,14.8,7.7,15,8,15z"/>
	<path class="st0" d="M21.8,15.5H8c-0.6,0-1-0.5-1-1c0-0.6,0.5-1,1-1h13.8c0.6,0,1,0.5,1,1C22.9,15.1,22.4,15.5,21.8,15.5z M8,14.5
		L8,14.5l13.8,0.1L8,14.5z"/>
</g>
<g>
	<path class="st0" d="M11.9,19.2c0.2,0,0.3-0.1,0.4-0.2c0.2-0.2,0.1-0.6-0.1-0.7l-1.6-1.3L8,14.5l4.4-3.8c0.2-0.2,0.2-0.5,0.1-0.7
		c-0.2-0.2-0.5-0.2-0.7-0.1l-4.8,4.2c-0.1,0.1-0.2,0.2-0.2,0.4c0,0.2,0.1,0.3,0.2,0.4l3.1,2.8l1.7,1.3
		C11.7,19.1,11.8,19.2,11.9,19.2z"/>
	<path class="st0" d="M11.9,19.7c-0.2,0-0.5-0.1-0.6-0.2l-1.7-1.3l-3.1-2.8c-0.2-0.2-0.3-0.5-0.3-0.8c0-0.3,0.1-0.6,0.4-0.8l4.8-4.2
		c0.4-0.4,1.1-0.3,1.5,0.1c0.4,0.4,0.3,1.1-0.1,1.5l-3.9,3.4l2.2,2l1.6,1.3c0.4,0.4,0.5,1,0.2,1.4C12.5,19.5,12.3,19.7,11.9,19.7z
		 M12,10.4l-4.9,4.1l3.1,2.8l1.7,1.3c0,0,0,0,0,0l-1.7-1.3l-2.7-2.4c-0.1-0.1-0.2-0.2-0.2-0.4c0-0.1,0.1-0.3,0.2-0.4L12,10.4z"/>
</g>
</svg>
