<?xml version="1.0" encoding="utf-8"?>
<!-- Generator: Adobe Illustrator 25.4.1, SVG Export Plug-In . SVG Version: 6.00 Build 0)  -->
<svg version="1.1" id="Livello_1" xmlns="http://www.w3.org/2000/svg" xmlns:xlink="http://www.w3.org/1999/xlink" x="0px" y="0px"
	 viewBox="0 0 25 28" style="enable-background:new 0 0 25 28;" xml:space="preserve">
<style type="text/css">
	.st0{fill:#74121D;}
</style>
<g>
	<path class="st0" d="M23.9,8c0-0.1,0-0.1,0-0.1l-1.5-3.1c0-0.1-0.1-0.2-0.2-0.2c-0.1-0.1-0.2-0.1-0.3-0.1h-4.3
		c-0.3-1-1-1.9-1.9-2.5c-0.9-0.6-1.9-1-3-1s-2.1,0.3-3,1C8.9,2.6,8.2,3.5,7.9,4.5H3.6c-0.1,0-0.2,0-0.3,0.1S3.1,4.7,3.1,4.8L1.6,7.9
		c0,0,0,0,0,0c0,0,0,0.1,0,0.1L1,26.5c0,0.1,0.1,0.3,0.1,0.4C1.2,26.9,1.4,27,1.5,27h22.4c0.1,0,0.1,0,0.2,0c0.1,0,0.1-0.1,0.2-0.1
		c0.1-0.1,0.1-0.2,0.1-0.4L23.9,8C23.9,8,24,10.2,23.9,8z M21.6,5.5l1,2h-4.8V6c0-0.2,0-0.3,0-0.5H21.6z M8.7,5.5h8.1
		c0,0.2,0,0.3,0,0.5v1.5H8.7V6C8.7,5.9,8.7,5.7,8.7,5.5z M12.8,2c0.8,0,1.6,0.2,2.3,0.7c0.7,0.5,1.2,1.1,1.5,1.9H9
		c0.3-0.8,0.8-1.4,1.5-1.9C11.1,2.2,11.9,2,12.8,2z M3.9,5.5h3.8c0,0.2,0,0.3,0,0.5v1.5H2.8L3.9,5.5z M2,26L2.5,8.6h5.1v1.6
		c-0.3,0.1-0.5,0.3-0.7,0.5c-0.2,0.2-0.3,0.5-0.3,0.8c0,0.3,0,0.6,0.1,0.8s0.3,0.5,0.5,0.6s0.5,0.3,0.8,0.3c0.3,0,0.6,0,0.8-0.2
		c0.2-0.1,0.5-0.3,0.6-0.6s0.2-0.5,0.2-0.8c0-0.3-0.1-0.6-0.3-0.9c-0.2-0.3-0.4-0.5-0.7-0.6V8.6h8.2v1.6c-0.3,0.1-0.6,0.4-0.8,0.7
		c-0.2,0.3-0.2,0.7-0.2,1c0.1,0.4,0.2,0.7,0.5,0.9c0.3,0.2,0.6,0.4,1,0.4c0.4,0,0.7-0.1,1-0.4s0.5-0.6,0.5-0.9c0.1-0.4,0-0.7-0.2-1
		c-0.2-0.3-0.5-0.5-0.8-0.7V8.6H23L23.5,26L2,26z M8.2,11.2c0.1,0,0.2,0,0.3,0.1c0.1,0.1,0.1,0.1,0.2,0.2s0,0.2,0,0.3
		c0,0.1-0.1,0.2-0.1,0.3s-0.2,0.1-0.3,0.1c-0.1,0-0.2,0-0.3,0S7.8,12,7.7,12c-0.1-0.1-0.1-0.2-0.1-0.3c0-0.1,0.1-0.3,0.1-0.4
		C7.9,11.2,8,11.2,8.2,11.2z M17.4,11.2c0.1,0,0.2,0,0.3,0.1c0.1,0.1,0.1,0.1,0.2,0.2s0,0.2,0,0.3c0,0.1-0.1,0.2-0.1,0.3
		c-0.1,0.1-0.2,0.1-0.3,0.1c-0.1,0-0.2,0-0.3,0c-0.1,0-0.2-0.1-0.2-0.2c-0.1-0.1-0.1-0.2-0.1-0.3c0-0.1,0-0.3,0.1-0.3
		C17.1,11.2,17.2,11.2,17.4,11.2L17.4,11.2z"/>
	<path class="st0" d="M23.9,27.2H1.5c-0.2,0-0.4-0.1-0.5-0.2c-0.1-0.1-0.2-0.3-0.2-0.5L1.3,8c0-0.1,0-0.1,0-0.2l0-0.1l1.5-3.1
		C2.9,4.6,3,4.5,3.2,4.4c0.1-0.1,0.3-0.1,0.4-0.1h4.2c0.4-1,1-1.9,1.9-2.5c0.9-0.7,2-1,3.1-1c1.1,0,2.2,0.4,3.1,1
		c0.9,0.6,1.5,1.5,1.9,2.5h4.1c0.1,0,0.3,0,0.4,0.1c0.1,0.1,0.2,0.2,0.3,0.3l1.5,3.1c0,0.1,0.1,0.2,0.1,0.2l0,0c0,0,0,0,0,0h0
		l0.5,18.4c0,0.2-0.1,0.4-0.2,0.5c-0.1,0.1-0.2,0.1-0.3,0.2C24.1,27.2,24,27.2,23.9,27.2z M1.8,7.9L1.8,7.9c0,0.1,0,0.1,0,0.1
		L1.2,26.5c0,0.1,0,0.1,0.1,0.2c0,0,0.1,0.1,0.2,0.1h22.4c0,0,0.1,0,0.1,0c0,0,0.1,0,0.1-0.1c0,0,0.1-0.1,0.1-0.2L23.7,9
		c0,0,0-0.2,0-0.3c0-0.2,0-0.4,0-0.7c0,0,0,0,0-0.1l-1.5-3c0-0.1-0.1-0.1-0.1-0.1s-0.1,0-0.1,0h-4.5l-0.1-0.2
		c-0.3-1-0.9-1.8-1.8-2.4c-1.7-1.2-4-1.2-5.7,0C9.1,2.8,8.4,3.6,8.1,4.6L8.1,4.8H3.6c0,0-0.1,0-0.1,0c0,0-0.1,0.1-0.1,0.1L1.8,7.9z
		 M23.7,26.3l-21.9,0L2.3,8.4h5.6v2l-0.2,0.1c-0.2,0.1-0.4,0.2-0.6,0.4C7,11,6.9,11.3,6.9,11.5c0,0.2,0,0.5,0.1,0.7
		c0.1,0.2,0.2,0.4,0.4,0.5s0.4,0.2,0.7,0.2c0.2,0,0.5,0,0.7-0.1c0.2-0.1,0.4-0.3,0.5-0.5c0.1-0.2,0.2-0.4,0.2-0.7
		c0-0.3-0.1-0.5-0.2-0.7c-0.2-0.2-0.4-0.4-0.6-0.5l-0.2-0.1V8.4h8.7v2l-0.2,0.1c-0.3,0.1-0.5,0.3-0.7,0.6c-0.2,0.3-0.2,0.6-0.2,0.9
		c0.1,0.3,0.2,0.6,0.4,0.8c0.5,0.4,1.2,0.4,1.7,0c0.2-0.2,0.4-0.5,0.4-0.8c0.1-0.3,0-0.6-0.2-0.9c-0.2-0.3-0.4-0.5-0.7-0.6l-0.2-0.1
		v-2h5.6L23.7,26.3z M2.3,25.8l20.9,0L22.7,8.9h-4.6v1.2c0.3,0.2,0.6,0.4,0.8,0.7c0.2,0.4,0.3,0.8,0.2,1.2c-0.1,0.4-0.3,0.8-0.6,1.1
		c-0.6,0.5-1.7,0.5-2.3,0c-0.3-0.3-0.5-0.6-0.6-1.1c-0.1-0.4,0-0.8,0.2-1.2c0.2-0.3,0.5-0.6,0.8-0.7V8.9H8.9v1.2
		c0.3,0.1,0.5,0.3,0.7,0.6c0.2,0.3,0.3,0.7,0.3,1c0,0.3-0.1,0.6-0.3,0.9c-0.2,0.3-0.4,0.5-0.7,0.7c-0.3,0.2-0.6,0.2-0.9,0.2
		c-0.3,0-0.6-0.1-0.9-0.3c-0.3-0.2-0.5-0.4-0.6-0.7c-0.1-0.3-0.2-0.6-0.1-1s0.2-0.6,0.4-0.9c0.2-0.2,0.4-0.4,0.6-0.5V8.9H2.8
		L2.3,25.8z M8.2,12.4c-0.1,0-0.2,0-0.3-0.1c-0.1-0.1-0.3-0.2-0.3-0.3c-0.1-0.1-0.1-0.3-0.1-0.4c0-0.2,0.1-0.4,0.2-0.5
		c0.3-0.3,0.7-0.3,1-0.1c0.1,0.1,0.2,0.2,0.3,0.3c0.1,0.1,0.1,0.3,0,0.4c0,0.1-0.1,0.3-0.2,0.4c-0.1,0.1-0.2,0.2-0.4,0.2
		C8.3,12.4,8.2,12.4,8.2,12.4z M8.2,11.4c-0.1,0-0.1,0-0.2,0.1c0,0-0.1,0.1-0.1,0.2c0,0.1,0,0.1,0,0.1c0,0,0.1,0.1,0.1,0.1
		c0,0,0.1,0,0.2,0c0.1,0,0.1,0,0.1-0.1c0,0,0.1-0.1,0.1-0.1c0,0,0-0.1,0-0.1c0,0-0.1-0.1-0.1-0.1C8.3,11.4,8.2,11.4,8.2,11.4z
		 M17.4,12.4c-0.1,0-0.2,0-0.3-0.1c-0.1-0.1-0.3-0.2-0.3-0.3c-0.1-0.1-0.1-0.3-0.1-0.4c0-0.2,0.1-0.4,0.2-0.5
		c0.1-0.1,0.3-0.2,0.5-0.2l0.1,0c0.2,0,0.3,0,0.4,0.1c0.1,0.1,0.2,0.2,0.3,0.3c0.1,0.1,0.1,0.3,0,0.4c0,0.1-0.1,0.3-0.2,0.4
		c-0.1,0.1-0.2,0.2-0.4,0.2C17.5,12.4,17.4,12.4,17.4,12.4z M17.3,11.4c0,0-0.1,0-0.2,0.1c0,0-0.1,0.1-0.1,0.2c0,0.1,0,0.1,0,0.1
		c0,0,0.1,0.1,0.1,0.1c0,0,0.1,0,0.2,0c0,0,0.1,0,0.1-0.1c0,0,0.1-0.1,0.1-0.1c0-0.1,0-0.1,0-0.2c0,0-0.1-0.1-0.1-0.1
		S17.4,11.4,17.3,11.4L17.3,11.4z M23,7.8h-5.4V5.3h4.2L23,7.8z M18.1,7.3h4.1l-0.8-1.5h-3.4V7.3z M17.1,7.8H8.4V6
		c0-0.2,0-0.3,0-0.5l0-0.2H17l0,0.2c0,0.2,0,0.4,0,0.5V7.8z M8.9,7.3h7.6V6c0-0.1,0-0.2,0-0.3H8.9c0,0.1,0,0.2,0,0.2L8.9,7.3z
		 M7.9,7.8H2.4l1.3-2.5h4.2V7.8z M3.2,7.3h4.1V5.8H4L3.2,7.3z M16.9,4.8H8.6l0.1-0.3c0.3-0.8,0.9-1.5,1.6-2C11,2,11.9,1.7,12.7,1.7
		c0,0,0,0,0,0c0.9,0,1.7,0.3,2.4,0.7c0.7,0.5,1.3,1.2,1.6,2L16.9,4.8z M9.3,4.3h6.8c-0.3-0.6-0.7-1-1.2-1.4
		c-0.6-0.4-1.4-0.7-2.1-0.7c-0.8,0-1.5,0.2-2.2,0.7C10.1,3.2,9.6,3.7,9.3,4.3z"/>
</g>
</svg>
