<?xml version="1.0" encoding="utf-8"?>
<!-- Generator: Adobe Illustrator 25.4.1, SVG Export Plug-In . SVG Version: 6.00 Build 0)  -->
<svg version="1.1" id="Livello_1" xmlns="http://www.w3.org/2000/svg" xmlns:xlink="http://www.w3.org/1999/xlink" x="0px" y="0px"
	 viewBox="0 0 25 27" style="enable-background:new 0 0 25 27;" xml:space="preserve">
<style type="text/css">
	.st0{fill:#74121D;}
</style>
<g>
	<path class="st0" d="M23.1,7.8c0,0,0-0.1,0-0.1l-1.5-2.9c0-0.1-0.1-0.2-0.2-0.2c-0.1-0.1-0.2-0.1-0.3-0.1H17
		c-0.3-1-0.9-1.8-1.8-2.4S13.3,1,12.3,1s-2,0.3-2.9,0.9C8.6,2.5,7.9,3.4,7.6,4.4H3.5c-0.1,0-0.2,0-0.3,0.1C3.1,4.5,3.1,4.6,3,4.6
		L1.5,7.6c0,0,0,0,0,0c0,0,0,0.1,0,0.1L1,25.5c0,0.1,0.1,0.3,0.1,0.3C1.2,25.9,1.4,26,1.5,26h21.6c0.1,0,0.1,0,0.2,0
		c0.1,0,0.1-0.1,0.2-0.1c0.1-0.1,0.1-0.2,0.1-0.3L23.1,7.8C23.1,7.8,23.1,7.8,23.1,7.8z M20.8,5.4l1,2h-4.6V5.9c0-0.2,0-0.3,0-0.5
		H20.8z M8.4,5.4h7.8c0,0.2,0,0.3,0,0.5v1.5H8.4V5.9C8.4,5.7,8.4,5.5,8.4,5.4z M12.3,1.9c0.8,0,1.5,0.2,2.2,0.7s1.1,1.1,1.4,1.8H8.6
		C8.9,3.7,9.4,3,10.1,2.6C10.7,2.2,11.5,1.9,12.3,1.9z M3.8,5.4h3.6c0,0.2,0,0.3,0,0.5v1.5H2.8L3.8,5.4z M2,25L2.5,8.3h4.9v1.6
		c-0.3,0.1-0.5,0.2-0.7,0.5c-0.2,0.2-0.3,0.5-0.3,0.7c0,0.3,0,0.5,0.1,0.8c0.1,0.2,0.3,0.5,0.5,0.6c0.2,0.2,0.5,0.2,0.7,0.3
		c0.3,0,0.5,0,0.8-0.2C8.8,12.4,9,12.3,9.1,12c0.1-0.2,0.2-0.5,0.2-0.8c0-0.3-0.1-0.6-0.3-0.8C8.9,10.2,8.7,10,8.4,9.9V8.3h7.9v1.6
		c-0.3,0.1-0.6,0.3-0.8,0.6c-0.2,0.3-0.2,0.7-0.2,1s0.2,0.7,0.5,0.9c0.3,0.2,0.6,0.3,1,0.3c0.3,0,0.7-0.1,1-0.3s0.4-0.5,0.5-0.9
		c0.1-0.3,0-0.7-0.2-1c-0.2-0.3-0.5-0.5-0.8-0.6V8.3h4.9l0.5,16.8L2,25z M7.9,10.8c0.1,0,0.2,0,0.3,0.1c0.1,0.1,0.1,0.1,0.2,0.2
		c0,0.1,0,0.2,0,0.3s-0.1,0.2-0.1,0.3c-0.1,0.1-0.2,0.1-0.3,0.1c-0.1,0-0.2,0-0.3,0c-0.1,0-0.2-0.1-0.2-0.2
		c-0.1-0.1-0.1-0.2-0.1-0.3c0-0.1,0.1-0.3,0.1-0.3C7.6,10.8,7.7,10.8,7.9,10.8z M16.7,10.8c0.1,0,0.2,0,0.3,0.1
		c0.1,0.1,0.1,0.1,0.2,0.2c0,0.1,0,0.2,0,0.3c0,0.1-0.1,0.2-0.1,0.3c-0.1,0.1-0.2,0.1-0.3,0.1c-0.1,0-0.2,0-0.3,0s-0.2-0.1-0.2-0.2
		c-0.1-0.1-0.1-0.2-0.1-0.3c0-0.1,0-0.2,0.1-0.3C16.4,10.8,16.6,10.8,16.7,10.8L16.7,10.8z"/>
	<path class="st0" d="M23.1,26.1H1.5c-0.2,0-0.3-0.1-0.4-0.2c-0.1-0.1-0.2-0.3-0.2-0.4L1.4,7.8c0-0.1,0-0.1,0-0.2l0-0.1l1.5-2.9
		C3,4.5,3,4.4,3.1,4.3c0.1-0.1,0.2-0.1,0.3-0.1h4.1c0.3-1,1-1.8,1.8-2.4c0.9-0.6,1.9-1,3-1s2.1,0.3,3,1c0.8,0.6,1.5,1.4,1.8,2.4h4.1
		c0.1,0,0.2,0,0.3,0.1c0.1,0.1,0.2,0.2,0.2,0.3l1.5,2.9c0,0,0,0.1,0,0.1h0l0,0.1l0.5,17.7c0,0.2-0.1,0.3-0.2,0.4
		c-0.1,0.1-0.1,0.1-0.2,0.1C23.2,26.1,23.1,26.1,23.1,26.1z M1.7,7.6L1.7,7.6c0,0.1,0,0.1,0,0.1L1.1,25.5c0,0.1,0,0.2,0.1,0.3
		c0.1,0.1,0.2,0.1,0.3,0.1h21.6c0.1,0,0.1,0,0.1,0s0.1,0,0.1-0.1c0.1-0.1,0.1-0.2,0.1-0.3L22.9,7.8c0,0,0-0.1,0-0.1l-1.5-2.9
		c0-0.1-0.1-0.1-0.1-0.2c-0.1,0-0.1-0.1-0.2-0.1h-4.2l0-0.1c-0.3-1-0.9-1.8-1.7-2.4s-1.8-0.9-2.8-0.9c-1,0-2,0.3-2.8,0.9
		C8.7,2.6,8.1,3.5,7.7,4.4l0,0.1H3.5c-0.1,0-0.1,0-0.2,0.1c-0.1,0-0.1,0.1-0.1,0.1L1.7,7.6z M22.7,25.2l-20.9,0l0-0.1L2.4,8.2h5.2
		V10l-0.1,0c-0.2,0.1-0.4,0.2-0.6,0.4c-0.2,0.2-0.3,0.4-0.3,0.7c0,0.2,0,0.5,0.1,0.7s0.3,0.4,0.5,0.6c0.2,0.1,0.4,0.2,0.7,0.2
		c0.2,0,0.5,0,0.7-0.1C8.7,12.3,8.9,12.2,9,12c0.1-0.2,0.2-0.5,0.2-0.7c0-0.3-0.1-0.5-0.2-0.8c-0.2-0.2-0.4-0.4-0.6-0.5l-0.1,0V8.2
		h8.1V10l-0.1,0c-0.3,0.1-0.6,0.3-0.7,0.6c-0.2,0.3-0.2,0.6-0.2,0.9c0.1,0.3,0.2,0.6,0.5,0.8c0.5,0.4,1.3,0.4,1.7,0
		c0.2-0.2,0.4-0.5,0.5-0.8c0.1-0.3,0-0.6-0.2-0.9c-0.2-0.3-0.4-0.5-0.7-0.6l-0.1,0V8.2h5.2l0,0.1L22.7,25.2z M2.1,24.9l20.4,0
		L22,8.4h-4.7v1.3c0.3,0.1,0.6,0.4,0.8,0.7c0.2,0.3,0.3,0.7,0.2,1.1c-0.1,0.4-0.3,0.7-0.5,1c-0.6,0.5-1.5,0.5-2.1,0
		c-0.3-0.2-0.5-0.6-0.5-1c-0.1-0.4,0-0.8,0.2-1.1c0.2-0.3,0.4-0.5,0.8-0.7V8.4H8.5v1.4c0.3,0.1,0.5,0.3,0.7,0.5
		c0.2,0.3,0.3,0.6,0.3,0.9c0,0.3-0.1,0.6-0.2,0.8c-0.2,0.3-0.4,0.5-0.6,0.6c-0.3,0.1-0.5,0.2-0.8,0.2c-0.3,0-0.6-0.1-0.8-0.3
		c-0.2-0.2-0.4-0.4-0.5-0.7c-0.1-0.3-0.2-0.6-0.1-0.9c0-0.3,0.2-0.6,0.3-0.8C6.8,10,7,9.9,7.3,9.8V8.4H2.6L2.1,24.9z M7.9,11.9
		c-0.1,0-0.2,0-0.2,0c-0.1,0-0.2-0.1-0.3-0.2c-0.1-0.1-0.1-0.2-0.1-0.3c0-0.2,0.1-0.3,0.2-0.4c0.2-0.2,0.5-0.2,0.8-0.1
		c0.1,0.1,0.2,0.2,0.2,0.3s0.1,0.2,0,0.4c0,0.1-0.1,0.2-0.2,0.3c-0.1,0.1-0.2,0.1-0.3,0.2C8,11.9,7.9,11.9,7.9,11.9z M7.9,10.9
		c-0.1,0-0.2,0-0.3,0.1c-0.1,0.1-0.1,0.2-0.1,0.3c0,0.1,0,0.1,0.1,0.2c0,0.1,0.1,0.1,0.2,0.1c0.1,0,0.1,0,0.2,0c0.1,0,0.1,0,0.2-0.1
		c0.1-0.1,0.1-0.1,0.1-0.2s0-0.1,0-0.2c0-0.1-0.1-0.1-0.1-0.2C8,10.9,8,10.9,7.9,10.9z M16.7,11.9c-0.1,0-0.2,0-0.2,0
		c-0.1,0-0.2-0.1-0.3-0.2c-0.1-0.1-0.1-0.2-0.1-0.3c0-0.2,0.1-0.3,0.2-0.4c0.1-0.1,0.3-0.2,0.4-0.2l0,0c0.1,0,0.2,0,0.3,0.1
		s0.2,0.2,0.2,0.3c0,0.1,0.1,0.2,0,0.4c0,0.1-0.1,0.2-0.2,0.3c-0.1,0.1-0.2,0.1-0.3,0.2C16.8,11.9,16.8,11.9,16.7,11.9z M16.7,10.9
		c-0.1,0-0.2,0-0.2,0.1s-0.1,0.2-0.1,0.3c0,0.1,0,0.1,0.1,0.2c0,0.1,0.1,0.1,0.2,0.1c0.1,0,0.1,0,0.2,0c0.1,0,0.1,0,0.2-0.1
		c0.1-0.1,0.1-0.1,0.1-0.2c0-0.1,0-0.1,0-0.2c0-0.1-0.1-0.1-0.1-0.2C16.9,10.9,16.8,10.9,16.7,10.9L16.7,10.9z M22,7.5h-4.9V5.2h3.8
		L22,7.5z M17.3,7.2h4.3l-0.9-1.7h-3.4V7.2z M16.3,7.5H8.2V5.9c0-0.2,0-0.3,0-0.5l0-0.1h8l0,0.1c0,0.2,0,0.3,0,0.5V7.5z M8.5,7.2
		h7.6V5.9c0-0.1,0-0.2,0-0.4H8.5c0,0.1,0,0.2,0,0.4V7.2z M7.5,7.5H2.6l1.1-2.2h3.8V7.5z M3,7.2h4.3V5.5H3.8L3,7.2z M16.1,4.5H8.5
		l0.1-0.2C8.8,3.6,9.4,2.9,10,2.5c0.7-0.5,1.5-0.7,2.3-0.7c0,0,0,0,0,0l0,0c0.8,0,1.6,0.2,2.3,0.7c0.7,0.5,1.2,1.1,1.5,1.8L16.1,4.5
		z M8.8,4.3h6.9c-0.3-0.6-0.7-1.2-1.3-1.6c-0.6-0.4-1.4-0.7-2.1-0.7c0,0,0,0,0,0c-0.8,0-1.5,0.2-2.1,0.6C9.6,3.1,9.1,3.6,8.8,4.3z"
		/>
</g>
</svg>
