<?xml version="1.0" encoding="utf-8"?>
<!-- Generator: Adobe Illustrator 25.4.1, SVG Export Plug-In . SVG Version: 6.00 Build 0)  -->
<svg version="1.1" id="Livello_1" xmlns="http://www.w3.org/2000/svg" xmlns:xlink="http://www.w3.org/1999/xlink" x="0px" y="0px"
	 viewBox="0 0 10 28" style="enable-background:new 0 0 10 28;" xml:space="preserve">
<style type="text/css">
	.st0{fill:#74121D;}
</style>
<g>
	<path class="st0" d="M7.7,10.4L7.1,4.6V1H3.5v3.6L3,10.4c-0.6,0.4-1.1,0.9-1.5,1.6C1.2,12.6,1,13.3,1,14v11.9c0,0.1,0,0.3,0.1,0.4
		s0.1,0.3,0.2,0.4c0.1,0.1,0.2,0.2,0.4,0.2S1.9,27,2.1,27h6.5c0.1,0,0.3,0,0.4-0.1c0.1-0.1,0.3-0.1,0.4-0.2c0.1-0.1,0.2-0.2,0.2-0.4
		c0.1-0.1,0.1-0.3,0.1-0.4V14c0-0.7-0.2-1.4-0.5-2.1S8.3,10.7,7.7,10.4z M6.4,4.6l0.1,1.4H4.1l0.1-1.4V3.2h2.2V4.6z M6.4,1.7v0.7
		H4.3V1.7H6.4z M4.1,6.8h2.6L6.9,10c-1-0.4-2.1-0.4-3.1,0L4.1,6.8z M5.3,10.4c1,0,1.9,0.4,2.6,1.1C8.6,12.1,8.9,13,8.9,14v0.4H1.7
		V14c0-1,0.4-1.9,1.1-2.6C3.5,10.8,4.4,10.4,5.3,10.4z M8.9,15.1v8.3H1.7v-8.3H8.9z M8.6,26.3H2.1c0,0-0.1,0-0.1,0
		c0,0-0.1,0-0.1-0.1c0,0-0.1-0.1-0.1-0.1c0,0,0-0.1,0-0.1v-1.8h7.2v1.8c0,0,0,0.1,0,0.1c0,0,0,0.1-0.1,0.1c0,0-0.1,0.1-0.1,0.1
		C8.7,26.3,8.6,26.3,8.6,26.3z"/>
	<path class="st0" d="M8.6,27.2H2.1c-0.2,0-0.3,0-0.5-0.1c-0.2-0.1-0.3-0.2-0.4-0.3c-0.1-0.1-0.2-0.3-0.3-0.4
		c-0.1-0.2-0.1-0.3-0.1-0.5V14c0-0.8,0.2-1.5,0.6-2.2c0.3-0.6,0.8-1.2,1.4-1.6l0.5-5.7l0-3.6c0-0.1,0.1-0.2,0.2-0.2h3.6
		c0.1,0,0.2,0.1,0.2,0.2v3.6l0.5,5.6c0.6,0.4,1.1,1,1.4,1.6c0.4,0.7,0.6,1.4,0.6,2.2v11.9c0,0.2,0,0.3-0.1,0.5
		c-0.1,0.2-0.2,0.3-0.3,0.4c-0.1,0.1-0.3,0.2-0.4,0.3C8.9,27.2,8.8,27.2,8.6,27.2z M3.8,1.2v3.3l-0.5,5.8c0,0.1,0,0.1-0.1,0.2
		c-0.6,0.4-1.1,0.9-1.4,1.5c-0.3,0.6-0.5,1.3-0.5,2v11.9c0,0.1,0,0.2,0.1,0.3c0,0.1,0.1,0.2,0.2,0.3c0.1,0.1,0.2,0.1,0.3,0.2
		c0.1,0,0.2,0.1,0.3,0.1h6.5c0.1,0,0.2,0,0.3-0.1c0.1,0,0.2-0.1,0.3-0.2c0.1-0.1,0.1-0.2,0.2-0.3c0-0.1,0.1-0.2,0.1-0.3V14
		c0-0.7-0.2-1.4-0.5-2c-0.3-0.6-0.8-1.1-1.4-1.5c-0.1,0-0.1-0.1-0.1-0.2L6.9,4.6l0-3.4H3.8z M2.1,26.5c-0.1,0-0.1,0-0.2,0
		c-0.1,0-0.1-0.1-0.2-0.1c-0.1-0.1-0.1-0.1-0.1-0.2c0-0.1,0-0.2,0-0.2v-1.8c0-0.1,0.1-0.2,0.2-0.2h7.2c0.1,0,0.2,0.1,0.2,0.2v1.8
		c0,0.1,0,0.2,0,0.2c0,0.1-0.1,0.1-0.1,0.2c-0.1,0.1-0.1,0.1-0.2,0.1c-0.1,0-0.2,0-0.2,0H2.1C2.1,26.5,2.1,26.5,2.1,26.5z M2,24.4
		v1.6l-0.1,0.3L2,26c0,0,0.1,0,0.1,0h6.5c0,0,0,0,0,0c0,0,0,0,0,0c0,0,0.1-0.1,0.1-0.1l0-1.6H2z M8.9,23.6H1.7
		c-0.1,0-0.2-0.1-0.2-0.2v-8.3c0-0.1,0.1-0.2,0.2-0.2h7.2c0.1,0,0.2,0.1,0.2,0.2v8.3C9.2,23.5,9.1,23.6,8.9,23.6z M2,23.1h6.7v-7.8
		H2V23.1z M8.9,14.6H1.7c-0.1,0-0.2-0.1-0.2-0.2V14c0-1,0.4-2,1.1-2.7c0.7-0.7,1.7-1.1,2.7-1.1h0c1,0,2,0.4,2.7,1.1
		C8.8,12,9.2,13,9.2,14v0.4C9.2,14.5,9.1,14.6,8.9,14.6z M2,14.1h6.7V14c0-0.9-0.3-1.7-1-2.4c-0.6-0.6-1.5-1-2.4-1
		c-0.9,0-1.7,0.4-2.4,1c-0.6,0.6-1,1.5-1,2.4V14.1z M3.8,10.2c-0.1,0-0.1,0-0.1,0C3.5,10.1,3.5,10,3.5,9.9l0.3-3.2
		c0-0.1,0.1-0.2,0.2-0.2h2.6c0.1,0,0.2,0.1,0.2,0.2l0.3,3.2c0,0.1,0,0.2-0.1,0.2c-0.1,0.1-0.2,0.1-0.2,0C5.9,9.8,4.8,9.8,3.8,10.2
		C3.8,10.2,3.8,10.2,3.8,10.2z M5.3,9.4c0.4,0,0.9,0.1,1.3,0.2L6.4,7H4.3L4,9.6C4.5,9.5,4.9,9.4,5.3,9.4z M6.5,6.3H4.1
		C4,6.3,4,6.3,3.9,6.2S3.9,6.1,3.9,6L4,4.6l0-1.4C4,3,4.1,2.9,4.3,2.9h2.2c0.1,0,0.2,0.1,0.2,0.2v1.5L6.8,6c0,0.1,0,0.1-0.1,0.2
		C6.7,6.3,6.6,6.3,6.5,6.3z M4.4,5.8h1.9L6.2,4.7c0,0,0,0,0,0V3.4H4.5v1.2L4.4,5.8z M6.4,2.7H4.3C4.1,2.7,4,2.6,4,2.4V1.7
		c0-0.1,0.1-0.2,0.2-0.2h2.2c0.1,0,0.2,0.1,0.2,0.2v0.7C6.7,2.6,6.6,2.7,6.4,2.7z M4.5,2.2h1.7V2H4.5V2.2z"/>
</g>
</svg>
