<?xml version="1.0" encoding="utf-8"?>
<!-- Generator: Adobe Illustrator 25.4.1, SVG Export Plug-In . SVG Version: 6.00 Build 0)  -->
<svg version="1.1" id="Livello_1" xmlns="http://www.w3.org/2000/svg" xmlns:xlink="http://www.w3.org/1999/xlink" x="0px" y="0px"
	 viewBox="0 0 28 28" style="enable-background:new 0 0 28 28;" xml:space="preserve">
<style type="text/css">
	.st0{fill:#74121D;}
</style>
<g>
	<path class="st0" d="M15.6,24c-1.5,0-3-0.3-4.5-0.9c-1.4-0.6-2.7-1.4-3.8-2.5c-1.1-1.1-1.9-2.4-2.5-3.8C4.3,15.4,4,13.9,4,12.4V12
		c0-3.1,1.2-6.1,3.4-8.3c2.2-2.2,5.2-3.4,8.3-3.4H27c0.4,0,0.8,0.3,0.8,0.8v11.1c0,3.2-1.2,6.2-3.5,8.4S19,24,15.8,24H15.6
		C15.6,24,15.6,24,15.6,24z M15.7,1.8c-2.7,0-5.3,1.1-7.3,3c-1.9,1.9-3,4.5-3,7.3v0.3c0,1.3,0.3,2.7,0.8,3.9
		c0.5,1.2,1.3,2.4,2.2,3.3c1,1,2.1,1.7,3.3,2.2c1.2,0.5,2.5,0.8,3.9,0.8c0,0,0,0,0,0h0.2c2.8,0,5.4-1.1,7.3-3c2-2,3-4.6,3.1-7.3V1.8
		H15.7z"/>
</g>
<g>
	<path class="st0" d="M1,27.8c-0.2,0-0.4-0.1-0.5-0.2c-0.3-0.3-0.3-0.8,0-1.1l15-15c0.3-0.3,0.8-0.3,1.1,0s0.3,0.8,0,1.1l-15,15
		C1.4,27.7,1.2,27.8,1,27.8z"/>
</g>
</svg>
