<svg width="7" height="26" viewBox="0 0 7 26" fill="none" xmlns="http://www.w3.org/2000/svg">
<path d="M5.85752 8.70369C5.68746 8.24234 5.08046 7.86573 4.70385 7.47734C4.32753 7.08867 4.35166 6.57877 4.35166 6.57877L4.30723 5.44569H4.32135C4.32135 5.44569 4.18777 1.56009 4.21219 1.21996C4.26074 1.14699 4.29722 1.00135 4.29722 1.00135C4.29722 1.00135 4.29722 0.867769 4.29722 0.710062C4.29722 0.552355 4.2728 0.418775 4.22426 0.297258C4.22426 -0.0669985 3.65345 0.00597038 3.65345 0.00597038H3.08853H3.06028H2.49536C2.49536 0.00597038 1.92456 -0.0669985 1.92456 0.297258C1.87601 0.418775 1.85159 0.552355 1.85159 0.710062C1.85159 0.867769 1.85159 1.00135 1.85159 1.00135C1.85159 1.00135 1.88807 1.14699 1.93662 1.21996C1.96104 1.56009 1.82746 5.44569 1.82746 5.44569H1.84158L1.79715 6.57877C1.79715 6.57877 1.82158 7.08867 1.44496 7.47734C1.06864 7.86602 0.461352 8.24234 0.291288 8.70369C0.121223 9.16504 0 9.20153 0 11.7878C0 14.3741 0.121517 25.1082 0.121517 25.1082C0.121517 25.1082 0.145938 25.6666 0.752934 25.7761C1.28225 25.8714 1.77509 26.0126 3.07441 25.9991C4.37402 26.0126 4.86685 25.8714 5.39617 25.7761C6.00317 25.6669 6.02759 25.1082 6.02759 25.1082C6.02759 25.1082 6.14911 14.3741 6.14911 11.7878C6.14911 9.20153 6.02759 9.16504 5.85752 8.70369Z" fill="#74121D"/>
</svg>
