<?xml version="1.0" encoding="utf-8"?>
<!-- Generator: Adobe Illustrator 25.4.1, SVG Export Plug-In . SVG Version: 6.00 Build 0)  -->
<svg version="1.1" id="Livello_1" xmlns="http://www.w3.org/2000/svg" xmlns:xlink="http://www.w3.org/1999/xlink" x="0px" y="0px"
	 viewBox="0 0 37 38" style="enable-background:new 0 0 37 38;" xml:space="preserve">
<style type="text/css">
	.st0{fill:#74121D;}
</style>
<g>
	<path class="st0" d="M15.6,19.6c-0.3,0-0.4,0.2-0.4,0.4v9.6c0,0.1,0,0.2,0.1,0.3c0.1,0.1,0.2,0.1,0.3,0.1h5.6
		c0.1,0,0.3-0.1,0.3-0.1c0.1-0.1,0.1-0.2,0.1-0.3V20c0-0.1,0-0.2-0.1-0.3c-0.1-0.1-0.2-0.1-0.3-0.1L15.6,19.6z M20.7,29.1H16v-8.7
		h4.7V29.1z"/>
	<path class="st0" d="M21.2,30.3h-5.6c-0.2,0-0.4-0.1-0.5-0.2c-0.1-0.1-0.2-0.3-0.2-0.5V20c0-0.4,0.3-0.7,0.7-0.7h5.6
		c0.2,0,0.4,0.1,0.5,0.2c0.1,0.1,0.2,0.3,0.2,0.5v9.6c0,0.2-0.1,0.4-0.2,0.5C21.5,30.2,21.4,30.3,21.2,30.3z M15.6,19.8
		c-0.1,0-0.2,0.1-0.2,0.2v9.6c0,0.1,0,0.1,0.1,0.1c0,0,0.1,0.1,0.1,0.1h5.6c0.1,0,0.1,0,0.1-0.1c0,0,0.1-0.1,0.1-0.1V20
		c0-0.1,0-0.1-0.1-0.1c0,0-0.1-0.1-0.1-0.1H15.6z M21,29.4h-5.2v-9.2H21V29.4z M16.3,28.9h4.2v-8.2h-4.2V28.9z"/>
</g>
<g>
	<path class="st0" d="M17.4,5.2c-0.4,0-0.8,0.2-1,0.5c-0.3,0.3-0.3,0.7-0.3,1.1l0.4,1.7c-0.1,0.1-0.3,0.2-0.3,0.4l-0.4,5.6
		c-0.1,0.8-0.5,1.6-1.3,2c-1.2,0.6-1.8,1.8-1.8,3.1l0.6,12.6c0,0.7,0.6,1.2,1.2,1.2H22c0.3,0,0.7-0.2,0.9-0.4
		c0.2-0.2,0.3-0.5,0.4-0.8l0.6-12.6c0.1-1.3-0.6-2.5-1.8-3.1c-0.8-0.4-1.2-1.1-1.3-2l-0.4-5.6c0-0.2-0.1-0.3-0.3-0.4l0.4-1.7
		c0.1-0.3,0-0.8-0.3-1.1c-0.3-0.3-0.6-0.5-1-0.5L17.4,5.2z M20,14.5c0.1,1.1,0.8,2.2,1.8,2.7c0.8,0.4,1.3,1.3,1.3,2.3L22.4,32
		c0,0.2-0.2,0.3-0.3,0.3h-7.3c-0.2,0-0.3-0.2-0.3-0.3l-0.6-12.6c-0.1-0.7,0.2-1.4,0.7-1.8c0.2-0.2,0.4-0.3,0.6-0.4
		c1-0.5,1.7-1.6,1.8-2.7l0.4-5.2h2.3L20,14.5z M19.7,6.5l-0.5,1.9h-1.7L17,6.5c0-0.1,0-0.2,0.1-0.3c0.1-0.1,0.2-0.1,0.3-0.2h2
		c0.1,0,0.2,0,0.3,0.2C19.7,6.3,19.7,6.4,19.7,6.5z"/>
	<path class="st0" d="M22,33.5h-7.3c-0.8,0-1.4-0.6-1.5-1.4l-0.6-12.6c-0.1-1.4,0.7-2.7,1.9-3.3c0.6-0.4,1.1-1,1.1-1.8l0.4-5.6
		c0-0.2,0.1-0.3,0.2-0.5L16,6.8c-0.1-0.5,0-0.9,0.3-1.3c0.3-0.4,0.7-0.6,1.2-0.6h2c0.5,0,0.9,0.2,1.2,0.6c0.3,0.4,0.4,0.9,0.3,1.3
		l-0.4,1.5c0.1,0.1,0.2,0.3,0.2,0.5l0.4,5.6c0,0.8,0.5,1.4,1.1,1.8c1.2,0.6,2,2,1.9,3.3L23.5,32c0,0.4-0.2,0.7-0.5,1
		C22.8,33.3,22.4,33.5,22,33.5z M17.4,5.4c-0.3,0-0.6,0.1-0.8,0.4c-0.2,0.2-0.3,0.5-0.2,0.9l0.5,1.9l-0.2,0.1c0,0-0.1,0.1-0.1,0.2
		l-0.4,5.6c-0.1,0.9-0.6,1.7-1.4,2.2c-1.1,0.5-1.7,1.7-1.6,2.9L13.8,32c0,0.5,0.5,0.9,1,0.9H22c0.2,0,0.5-0.1,0.7-0.3
		c0.2-0.2,0.3-0.4,0.3-0.7l0.6-12.5c0.1-1.2-0.6-2.4-1.6-2.9c-0.8-0.4-1.4-1.2-1.4-2.2l-0.4-5.6c0-0.1-0.1-0.2-0.1-0.2l-0.2-0.1
		l0.5-1.9c0.1-0.3,0-0.6-0.2-0.9c-0.2-0.2-0.5-0.4-0.8-0.4H17.4z M22,32.6h-7.3c-0.3,0-0.6-0.3-0.6-0.6l-0.6-12.5
		c-0.1-0.7,0.2-1.5,0.8-2c0.2-0.2,0.4-0.4,0.6-0.5c0.9-0.5,1.6-1.4,1.7-2.5L17,9.1h2.8l0.4,5.4c0.1,1,0.7,2,1.6,2.5
		c0.9,0.5,1.5,1.5,1.4,2.5L22.6,32C22.6,32.3,22.4,32.6,22,32.6z M17.4,9.6L17,14.5c-0.1,1.2-0.8,2.3-1.9,2.9
		c-0.1,0.1-0.4,0.2-0.5,0.4c-0.5,0.5-0.7,1-0.6,1.6L14.6,32c0,0.1,0,0.1,0.1,0.1H22c0.1,0,0.1,0,0.1-0.1l0.7-12.6
		c0-0.8-0.4-1.6-1.2-2c-1.1-0.6-1.8-1.7-1.9-2.9l-0.4-4.9H17.4z M19.4,8.7h-2.1l-0.5-2.1c-0.1-0.2,0-0.3,0.1-0.5l0-0.1
		c0.1-0.1,0.3-0.2,0.4-0.2l0.1,0h2c0.2,0,0.4,0.1,0.5,0.3C20,6.3,20,6.5,19.9,6.6L19.4,8.7z M17.7,8.2H19l0.4-1.7c0,0,0,0,0,0
		l-0.1-0.1h-1.9c-0.1,0-0.1,0-0.1,0.1c0,0.1,0,0.1,0,0.1L17.7,8.2z"/>
</g>
<g>
	<path class="st0" d="M18.4,2.8c-0.3,0-0.4,0.2-0.4,0.4V4c0,0.3,0.2,0.4,0.4,0.4c0.1,0,0.3-0.1,0.3-0.1c0.1-0.1,0.1-0.2,0.1-0.3V3.2
		C18.8,3,18.6,2.8,18.4,2.8z"/>
	<path class="st0" d="M18.4,4.7c-0.4,0-0.7-0.3-0.7-0.7V3.2c0-0.4,0.3-0.7,0.7-0.7l0,0c0.3,0,0.7,0.4,0.7,0.7V4
		c0,0.2-0.1,0.4-0.2,0.5C18.8,4.7,18.6,4.7,18.4,4.7z M18.4,3c-0.1,0-0.2,0.1-0.2,0.2V4c0,0.1,0.1,0.2,0.2,0.2c0.1,0,0.1,0,0.1-0.1
		c0,0,0.1-0.1,0.1-0.1V3.2C18.6,3.2,18.5,3,18.4,3z"/>
</g>
<g>
	<path class="st0" d="M16.1,5.3c0.2-0.2,0.2-0.4,0-0.6l-0.6-0.6c-0.2-0.2-0.4-0.2-0.6,0c-0.2,0.2-0.2,0.4,0,0.6l0.6,0.6
		C15.6,5.5,15.9,5.5,16.1,5.3z"/>
	<path class="st0" d="M15.8,5.7c-0.2,0-0.4-0.1-0.5-0.2l-0.6-0.6c-0.3-0.3-0.3-0.7,0-1c0.3-0.3,0.7-0.3,1,0l0.6,0.6
		c0.1,0.1,0.2,0.3,0.2,0.5s-0.1,0.4-0.2,0.5l0,0l0,0l0,0C16.1,5.6,15.9,5.7,15.8,5.7L15.8,5.7z M15.2,4.2c0,0-0.1,0-0.1,0.1
		c-0.1,0.1-0.1,0.2,0,0.3l0.6,0.6c0,0,0.1,0.1,0.1,0.1l0,0c0.1,0,0.1,0,0.1-0.1l0,0c0,0,0.1-0.1,0.1-0.1s0-0.1-0.1-0.1l-0.6-0.6
		C15.3,4.3,15.2,4.2,15.2,4.2z"/>
</g>
<g>
	<path class="st0" d="M21.3,4.1l-0.6,0.6c-0.2,0.2-0.2,0.5,0,0.6c0.2,0.2,0.5,0.2,0.6,0l0.6-0.6c0.2-0.2,0.2-0.5,0-0.6
		C21.7,3.9,21.5,3.9,21.3,4.1z"/>
	<path class="st0" d="M21,5.7c-0.2,0-0.4-0.1-0.5-0.2c-0.3-0.3-0.3-0.7,0-1L21.1,4c0.1-0.1,0.3-0.2,0.5-0.2c0,0,0,0,0,0
		c0.2,0,0.4,0.1,0.5,0.2c0.1,0.1,0.2,0.3,0.2,0.5c0,0.2-0.1,0.4-0.2,0.5l-0.6,0.6C21.4,5.6,21.2,5.7,21,5.7z M21.6,4.2
		c-0.1,0-0.1,0-0.1,0.1l-0.6,0.6c-0.1,0.1-0.1,0.2,0,0.3c0.1,0.1,0.2,0.1,0.3,0l0.6-0.6c0,0,0.1-0.1,0.1-0.1c0-0.1,0-0.1-0.1-0.1
		C21.7,4.3,21.6,4.2,21.6,4.2L21.6,4.2z"/>
</g>
</svg>
