<?xml version="1.0" encoding="utf-8"?>
<!-- Generator: Adobe Illustrator 25.4.1, SVG Export Plug-In . SVG Version: 6.00 Build 0)  -->
<svg version="1.1" id="Livello_1" xmlns="http://www.w3.org/2000/svg" xmlns:xlink="http://www.w3.org/1999/xlink" x="0px" y="0px"
	 viewBox="0 0 28 28" style="enable-background:new 0 0 28 28;" xml:space="preserve">
<style type="text/css">
	.st0{fill:#74121D;}
</style>
<g>
	<path class="st0" d="M14,28C6.3,28,0,21.7,0,14S6.3,0,14,0s14,6.3,14,14S21.7,28,14,28z M14,2C7.4,2,2,7.4,2,14c0,6.6,5.4,12,12,12
		c6.6,0,12-5.4,12-12C26,7.4,20.6,2,14,2z M21.2,15H14c-0.6,0-1-0.4-1-1V6.8c0-0.6,0.4-1,1-1s1,0.4,1,1V13h6.2c0.6,0,1,0.4,1,1
		S21.8,15,21.2,15z"/>
</g>
</svg>
