<?xml version="1.0" encoding="utf-8"?>
<!-- Generator: Adobe Illustrator 25.4.1, SVG Export Plug-In . SVG Version: 6.00 Build 0)  -->
<svg version="1.1" id="Livello_1" xmlns="http://www.w3.org/2000/svg" xmlns:xlink="http://www.w3.org/1999/xlink" x="0px" y="0px"
	 viewBox="0 0 25 28" style="enable-background:new 0 0 25 28;" xml:space="preserve">
<style type="text/css">
	.st0{fill:#74121D;}
</style>
<g>
	<path class="st0" d="M19.4,28H5.6c-1.7,0-2.7,0-3.5-0.4c-0.7-0.4-1.3-1-1.7-1.7C0,25,0,24.1,0,22.4V8.5C0,6.8,0,5.8,0.4,5
		c0.4-0.7,1-1.3,1.7-1.7c0.8-0.4,1.8-0.4,3.5-0.4h0.1V1c0-0.6,0.4-1,1-1s1,0.4,1,1v1.9h9.5V1c0-0.6,0.4-1,1-1s1,0.4,1,1v1.9h0.2
		c1.7,0,2.7,0,3.5,0.4c0.7,0.4,1.3,1,1.7,1.7C25,5.8,25,6.8,25,8.5v13.9c0,1.7,0,2.7-0.4,3.5c-0.4,0.7-1,1.3-1.7,1.7
		C22.1,28,21.1,28,19.4,28z M2,10.7v11.7c0,1.4,0,2.2,0.2,2.6c0.2,0.4,0.5,0.6,0.8,0.8C3.4,26,4.2,26,5.6,26h13.8
		c1.4,0,2.2,0,2.6-0.2c0.4-0.2,0.6-0.5,0.8-0.8c0.2-0.4,0.2-1.2,0.2-2.6V10.7H2z M2,8.7h21V8.5c0-1.4,0-2.2-0.2-2.6
		c-0.2-0.4-0.5-0.6-0.8-0.8c-0.4-0.2-1.2-0.2-2.6-0.2H5.6c-1.4,0-2.2,0-2.6,0.2C2.7,5.3,2.4,5.6,2.2,5.9C2,6.3,2,7.1,2,8.5V8.7z
		 M18.3,22.2c-0.1,0-0.2,0-0.3-0.1c-0.5-0.2-0.8-0.6-0.7-1.1c0.1-0.5,0.5-0.8,1-0.8h0c0.6,0,1,0.4,1,1c0,0.3-0.2,0.6-0.4,0.8
		C18.7,22.2,18.5,22.2,18.3,22.2z M12.5,22.2c-0.1,0-0.2,0-0.3-0.1c-0.5-0.2-0.8-0.6-0.7-1.1c0.1-0.5,0.5-0.8,1-0.8h0
		c0.6,0,1,0.4,1,1c0,0.3-0.2,0.6-0.4,0.8C12.9,22.2,12.7,22.2,12.5,22.2z M6.8,22.2c-0.1,0-0.2,0-0.3-0.1C6,22,5.7,21.5,5.8,21.1
		c0.1-0.5,0.5-0.8,1-0.8h0c0.6,0,1,0.4,1,1c0,0.3-0.2,0.6-0.4,0.8C7.2,22.2,7,22.2,6.8,22.2z M18.3,16.4c-0.6,0-1-0.4-1-1
		c0-0.6,0.4-1,1-1s1,0.4,1,1v0C19.3,16,18.8,16.4,18.3,16.4z M12.5,16.4c-0.6,0-1-0.4-1-1c0-0.6,0.4-1,1-1h0c0.6,0,1,0.4,1,1
		C13.5,16,13.1,16.4,12.5,16.4z M6.8,16.4c-0.6,0-1-0.4-1-1c0-0.6,0.4-1,1-1h0c0.6,0,1,0.4,1,1C7.8,16,7.3,16.4,6.8,16.4z"/>
</g>
</svg>
