<svg width="33" height="27" viewBox="0 0 33 27" fill="none" xmlns="http://www.w3.org/2000/svg">
<path d="M13.0031 1C5.83284 1 0 6.8266 0 13.9969C0 17.4489 1.35179 20.5913 3.55472 22.9211C5.92722 25.4307 9.28486 27 13.0031 27C20.1734 27 26 21.1672 26 13.9969C26 6.8266 20.1734 1 13.0031 1ZM13.0031 2.625C19.2949 2.625 24.375 7.70514 24.375 13.9969C24.375 16.4862 23.5788 18.7856 22.228 20.6573C21.2509 17.9018 19.0388 15.7274 16.2449 14.7647C17.556 13.7765 18.4061 12.2073 18.4061 10.4463C18.4061 7.47062 15.9778 5.03598 13.003 5.03598C10.0273 5.03598 7.5979 7.47044 7.5979 10.4463C7.5979 12.2074 8.45 13.7767 9.76118 14.7647C6.96618 15.7265 4.74916 17.9 3.77104 20.6552C2.42026 18.7844 1.62503 16.4851 1.62503 13.9969C1.62503 7.70514 6.71112 2.625 13.0031 2.625ZM13.0031 6.66202C15.1004 6.66202 16.7812 8.34999 16.7812 10.4474C16.7812 12.5446 15.1003 14.2254 13.0031 14.2254C10.9059 14.2254 9.22298 12.5446 9.22298 10.4474C9.22298 8.3501 10.9059 6.66202 13.0031 6.66202ZM13.0031 15.8504C16.9377 15.8504 20.1734 18.5336 20.9646 22.1271C18.9151 24.137 16.1067 25.375 13.0031 25.375C9.90028 25.375 7.09124 24.138 5.03958 22.1302C5.82975 18.536 9.06646 15.8504 13.0031 15.8504Z" fill="#74121D"/>
<path d="M26 1L31.85 6.85" stroke="#74121D" stroke-linecap="round"/>
<path d="M31.85 1L26 6.85" stroke="#74121D" stroke-linecap="round"/>
</svg>
