<?xml version="1.0" encoding="utf-8"?>
<!-- Generator: Adobe Illustrator 25.4.1, SVG Export Plug-In . SVG Version: 6.00 Build 0)  -->
<svg version="1.1" id="Livello_1" xmlns="http://www.w3.org/2000/svg" xmlns:xlink="http://www.w3.org/1999/xlink" x="0px" y="0px"
	 viewBox="0 0 37 28" style="enable-background:new 0 0 37 28;" xml:space="preserve">
<style type="text/css">
	.st0{fill:#74121D;}
</style>
<g>
	<path class="st0" d="M35.9,7.4L35.9,7.4L35.9,7.4l-0.1-0.1l0,0L24.2,1.1C24.2,1,24.1,1,24,1c-0.1,0-0.2,0-0.2,0.1L12.2,7.2l0,0
		l-0.1,0.1l0,0c0,0,0,0,0,0.1c0,0,0,0.1,0,0.1c0,0,0,0.1,0,0.1c0,0,0,0.1,0,0.1c0,0,0,0,0,0v12.6c0,0,0,0.1,0,0.1c0,0,0,0,0,0
		c0,0,0,0.1,0,0.1l0,0l0,0.1l0,0c0,0,0,0,0.1,0.1l0,0l0,0L23.7,27h0.1l0.1,0c0,0,0.1,0,0.1,0c0,0,0.1,0,0.1,0c0.1,0,0.1,0,0.2-0.1
		l11.5-6.1c0.1,0,0.2-0.1,0.2-0.2c0.1-0.1,0.1-0.2,0.1-0.3V7.8C36.1,7.6,36,7.5,35.9,7.4z M24,2.2l10.3,5.6l-3,1.6L21,3.8L24,2.2z
		 M19.8,4.4L30.2,10l-1.5,0.8L18.3,5.2L19.8,4.4z M30.8,10.9v2.5l-1.6,0.9v-2.5L30.8,10.9z M23.4,25.5L13,20V8.7l10.4,5.6V25.5z
		 M24,13.3L13.6,7.7l3.5-1.9l10.3,5.5L24,13.3z M34.9,20l-10.4,5.6V14.2l3.6-1.9v2.9c0,0,0,0,0,0c0,0,0,0,0,0v0c0,0,0,0.1,0,0.1
		c0,0.1,0.1,0.2,0.2,0.2c0.1,0.1,0.2,0.1,0.3,0.1c0.1,0,0.2,0,0.3-0.1l2.6-1.4l0.1,0l0,0l0,0l0,0c0,0,0-0.1,0-0.1v-3.6l3-1.6
		L34.9,20z"/>
	<path class="st0" d="M24,27.2C24,27.2,24,27.2,24,27.2c-0.1,0-0.2,0-0.2,0l-0.2-0.1l-11.7-6.3c0,0-0.1-0.1-0.1-0.1l-0.1-0.2
		c0,0,0-0.1,0-0.1l0,0l0-0.1c0,0,0,0,0,0c0,0,0,0,0-0.1l0-12.6l0-0.1c0,0,0,0,0,0c0,0,0,0,0-0.1c0-0.1,0-0.1,0-0.2
		c0,0,0-0.1,0.1-0.1c0,0,0-0.1,0.1-0.1L12.1,7l11.5-6.2c0.1-0.1,0.2-0.1,0.4-0.1c0.1,0,0.3,0,0.4,0.1L36,7.1l0.1,0.1
		c0.1,0.2,0.2,0.4,0.2,0.6l0,12.5c0,0.1,0,0.3-0.1,0.4C36.1,20.9,36,21,35.9,21l-11.5,6.1c-0.1,0-0.1,0.1-0.2,0.1
		C24.1,27.2,24.1,27.2,24,27.2z M23.8,26.7l0.1,0l0.1,0c0.1,0,0.1,0,0.1,0l11.5-6.1c0,0,0.1-0.1,0.1-0.1c0,0,0-0.1,0-0.2V7.8
		c0-0.1,0-0.2-0.1-0.2l-0.1-0.1L24.1,1.3c0,0-0.1-0.1-0.1,0c0,0-0.1,0-0.1,0L12.2,7.5l-0.1,0.1l0,0l0,0.1l0,12.6l0,0.1l0.1,0.1
		l-0.1,0.2l0.2-0.2L23.8,26.7z M23.7,26l-10.9-5.8V8.2l10.9,5.8V26z M13.3,19.8l9.9,5.3V14.4l-9.9-5.3V19.8z M24.3,26V14.1l4.1-2.2
		v3.4c0,0.1,0.1,0.1,0.1,0.2c0.1,0.1,0.2,0.1,0.3,0l2.7-1.5c0,0,0,0,0,0l0-3.8L35,8.3l0.2,11.9l-0.1,0.1L24.3,26z M24.8,14.4v10.7
		l9.9-5.3L34.5,9.1L32,10.4v3.5c0,0,0,0.1,0,0.2l0,0.1l-0.1,0.1l-0.1,0.1L29,15.9c-0.2,0.1-0.6,0.2-0.8,0c-0.1-0.1-0.2-0.2-0.3-0.3
		c0-0.1-0.1-0.1-0.1-0.2l0-0.2v-2.5L24.8,14.4z M29,14.7v-3.1l2.1-1.1v3.1L29,14.7z M29.5,11.9v1.9l1.1-0.6v-1.9L29.5,11.9z
		 M24,13.6l-0.1-0.1L13.1,7.7l4-2.2L28,11.4L24,13.6z M14.2,7.7L24,13l3-1.6l-9.8-5.3L14.2,7.7z M28.6,11L17.8,5.2l2-1.1L30.7,10
		L28.6,11z M18.8,5.2l9.8,5.3l1-0.5l-9.8-5.3L18.8,5.2z M31.3,9.6L20.5,3.8L24,1.9l10.9,5.8L31.3,9.6z M21.5,3.8L31.3,9l2.4-1.3
		L24,2.5L21.5,3.8z"/>
</g>
<g>
	<path class="st0" d="M12.6,24.3c-0.1-0.2-0.2-0.3-0.4-0.3c-0.2-0.1-0.4,0-0.5,0.1l-2.5,1.4c-0.1,0-0.2,0.1-0.2,0.2
		c-0.1,0.1-0.1,0.2-0.1,0.2c0,0.1,0,0.2,0,0.3s0,0.2,0.1,0.3c0.1,0.2,0.2,0.3,0.4,0.3c0.1,0,0.2,0,0.3,0c0.1,0,0.2,0,0.3-0.1
		l2.5-1.4c0.2-0.1,0.3-0.3,0.3-0.4C12.7,24.7,12.7,24.5,12.6,24.3z M10.9,21.2c-0.1-0.2-0.2-0.3-0.4-0.3c-0.2-0.1-0.4,0-0.5,0.1
		l-4.3,2.4c-0.2,0.1-0.3,0.2-0.3,0.4c-0.1,0.2,0,0.4,0.1,0.5c0.1,0.2,0.2,0.3,0.4,0.3c0.2,0.1,0.4,0,0.5-0.1l4.3-2.4
		c0.1,0,0.2-0.1,0.2-0.2s0.1-0.2,0.1-0.2c0-0.1,0-0.2,0-0.3C11,21.4,10.9,21.3,10.9,21.2z M9.2,18.1c0-0.1-0.1-0.2-0.2-0.2
		c-0.1-0.1-0.2-0.1-0.2-0.1c-0.1,0-0.2,0-0.3,0c-0.1,0-0.2,0-0.3,0.1l-6.8,3.8c-0.2,0.1-0.3,0.2-0.3,0.4c0,0.2,0,0.4,0.1,0.5
		s0.2,0.3,0.4,0.3c0.2,0,0.4,0,0.5-0.1l6.8-3.8C9,19,9,19,9.1,18.9s0.1-0.2,0.1-0.2c0-0.1,0-0.2,0-0.3C9.2,18.3,9.2,18.2,9.2,18.1z"
		/>
	<path class="st0" d="M9.5,27c-0.1,0-0.2,0-0.3,0c-0.2-0.1-0.5-0.2-0.6-0.5c-0.1-0.1-0.1-0.2-0.1-0.4c0-0.1,0-0.3,0-0.4
		c0-0.1,0.1-0.2,0.2-0.3c0.1-0.1,0.2-0.2,0.3-0.2l2.5-1.4c0.2-0.1,0.5-0.2,0.7-0.1s0.4,0.2,0.6,0.5c0.1,0.2,0.2,0.5,0.1,0.7
		c-0.1,0.2-0.2,0.5-0.4,0.6L10,26.9C9.9,26.9,9.8,27,9.6,27C9.6,27,9.6,27,9.5,27z M12,24.2c-0.1,0-0.2,0-0.2,0.1l-2.5,1.4
		c0,0-0.1,0.1-0.1,0.1c0,0-0.1,0.1-0.1,0.2c0,0.1,0,0.1,0,0.2c0,0.1,0,0.1,0.1,0.2c0.1,0.1,0.2,0.2,0.3,0.2c0.1,0,0.1,0,0.2,0
		c0.1,0,0.1,0,0.2-0.1l2.5-1.4c0.1-0.1,0.2-0.2,0.2-0.3c0-0.1,0-0.2,0-0.3l0,0c-0.1-0.1-0.2-0.2-0.3-0.2C12.1,24.2,12,24.2,12,24.2z
		 M5.9,24.9c-0.1,0-0.2,0-0.3,0c-0.2-0.1-0.5-0.2-0.6-0.5C5,24.2,4.9,23.9,5,23.7c0.1-0.2,0.2-0.5,0.5-0.6l4.3-2.4
		c0.2-0.1,0.5-0.2,0.7-0.1c0.2,0.1,0.5,0.2,0.6,0.5l0,0c0.1,0.1,0.1,0.2,0.1,0.4c0,0.1,0,0.3,0,0.4c0,0.1-0.1,0.2-0.2,0.3
		c-0.1,0.1-0.2,0.2-0.3,0.2l-4.3,2.4C6.2,24.9,6.1,24.9,5.9,24.9z M10.3,21.1c-0.1,0-0.2,0-0.2,0.1l-4.3,2.4
		c-0.1,0.1-0.2,0.2-0.2,0.3c0,0.1,0,0.2,0,0.4c0.1,0.1,0.2,0.2,0.3,0.2c0.1,0,0.2,0,0.4,0l4.3-2.4c0.1,0,0.1-0.1,0.1-0.1
		c0,0,0.1-0.1,0.1-0.2c0-0.1,0-0.1,0-0.2c0-0.1,0-0.1-0.1-0.2c-0.1-0.1-0.2-0.2-0.3-0.2C10.4,21.1,10.3,21.1,10.3,21.1z M1.7,23.2
		c-0.1,0-0.2,0-0.3,0c-0.2-0.1-0.5-0.2-0.6-0.5c-0.1-0.2-0.2-0.5-0.1-0.7c0.1-0.2,0.2-0.5,0.5-0.6l6.8-3.8c0.1-0.1,0.2-0.1,0.4-0.1
		c0.1,0,0.2,0,0.4,0c0.1,0,0.2,0.1,0.3,0.2c0.1,0.1,0.2,0.2,0.2,0.3c0.1,0.1,0.1,0.2,0.1,0.4c0,0.1,0,0.3,0,0.4S9.4,18.9,9.3,19
		c-0.1,0.1-0.2,0.2-0.3,0.2l-6.8,3.8C2,23.2,1.9,23.2,1.7,23.2z M8.6,18C8.5,18,8.5,18,8.6,18c-0.1,0-0.2,0-0.2,0.1l-6.8,3.8
		c-0.1,0.1-0.2,0.2-0.2,0.3c0,0.1,0,0.2,0,0.4c0.1,0.1,0.2,0.2,0.3,0.2c0.1,0,0.2,0,0.4,0l6.8-3.8c0.1,0,0.1-0.1,0.1-0.1
		c0,0,0.1-0.1,0.1-0.2s0-0.1,0-0.2s0-0.1-0.1-0.2c0-0.1-0.1-0.1-0.1-0.1c0,0-0.1-0.1-0.2-0.1C8.6,18,8.6,18,8.6,18z"/>
</g>
</svg>
