<svg width="26" height="26" viewBox="0 0 26 26" fill="none" xmlns="http://www.w3.org/2000/svg">
<path d="M18.6333 17.3333H13.8667C13.3893 17.3333 13 17.7226 13 18.1999C13 18.6773 13.3893 19.0666 13.8667 19.0666H18.6333C19.1107 19.0666 19.5 18.6773 19.5 18.1999C19.5 17.7226 19.1107 17.3333 18.6333 17.3333Z" fill="#74121D"/>
<path d="M8.23333 18.2001C8.23333 19.3562 6.49999 19.3562 6.49999 18.2001C6.49999 17.044 8.23333 17.044 8.23333 18.2001Z" fill="#74121D"/>
<path d="M18.6333 10.8333H13.8667C13.3893 10.8333 13 11.2226 13 11.6999C13 12.1773 13.3893 12.5666 13.8667 12.5666H18.6333C19.1107 12.5666 19.5 12.1773 19.5 11.6999C19.5 11.2226 19.1107 10.8333 18.6333 10.8333Z" fill="#74121D"/>
<path d="M8.23333 11.7C8.23333 12.8561 6.49999 12.8561 6.49999 11.7C6.49999 10.5439 8.23333 10.5439 8.23333 11.7Z" fill="#74121D"/>
<path d="M26 8.23333C26 5.84493 24.0551 3.9 21.6667 3.9H18.4116L15.578 1.06639C14.8891 0.377476 13.975 0 13 0C12.025 0 11.1109 0.380861 10.422 1.06639L7.5884 3.9H4.33333C1.94493 3.9 0 5.84493 0 8.23333V21.6667C0 24.0551 1.94493 26 4.33333 26H21.6667C24.0551 26 26 24.0551 26 21.6667V8.23333ZM24.2667 21.6667C24.2667 23.1004 23.1004 24.2667 21.6667 24.2667H4.33333C2.89961 24.2667 1.73333 23.1004 1.73333 21.6667V8.23333C1.73333 6.79961 2.89961 5.63333 4.33333 5.63333H7.5884C8.0522 5.63333 8.48553 5.45052 8.81391 5.12551L11.6475 2.2919C12.3805 1.55896 13.6195 1.55896 14.3508 2.2919L17.1844 5.12551C17.5094 5.45051 17.9478 5.63333 18.4099 5.63333H21.665C23.0987 5.63333 24.265 6.79961 24.265 8.23333V21.6667H24.2667Z" fill="#74121D"/>
</svg>
