<?xml version="1.0" encoding="utf-8"?>
<!-- Generator: Adobe Illustrator 25.4.1, SVG Export Plug-In . SVG Version: 6.00 Build 0)  -->
<svg version="1.1" id="Livello_1" xmlns="http://www.w3.org/2000/svg" xmlns:xlink="http://www.w3.org/1999/xlink" x="0px" y="0px"
	 viewBox="0 0 15 28" style="enable-background:new 0 0 15 28;" xml:space="preserve">
<style type="text/css">
	.st0{fill-rule:evenodd;clip-rule:evenodd;fill:#74121D;}
	.st1{fill:#74121D;}
</style>
<g>
	<path class="st0" d="M13.7,9.4c-1.2-0.4-2.2-1.1-2.9-2.1C10.2,6.2,10,5,10.3,3.8h0.5c0.1,0,0.2,0,0.3-0.1c0.1-0.1,0.1-0.2,0.1-0.3
		V1.5c0-0.1,0-0.2-0.1-0.3C11,1.1,10.9,1,10.8,1H4.3C4.2,1,4.2,1,4.1,1C4,1,4,1.1,3.9,1.1c0,0-0.1,0.1-0.1,0.2c0,0.1,0,0.1,0,0.2
		v1.9c0,0.1,0,0.2,0.1,0.3s0.2,0.1,0.3,0.1h0.5c0.1,2-0.1,3.6-1.2,4.6C2.9,8.9,2.2,9.3,1.4,9.4c-0.1,0-0.2,0.1-0.3,0.2
		C1,9.6,1,9.7,1,9.8v15.8c0,0.4,0.1,0.7,0.4,1C1.7,26.8,2,27,2.4,27h10.2c0.4,0,0.7-0.1,1-0.4c0.3-0.3,0.4-0.6,0.4-0.9V9.8
		c0-0.1,0-0.2-0.1-0.3S13.8,9.4,13.7,9.4z M4.7,2.9V1.9h5.6v0.9H4.7z M13.1,25.6c0,0.1-0.1,0.2-0.1,0.3c-0.1,0.1-0.2,0.1-0.3,0.1
		H2.4c-0.1,0-0.2,0-0.3-0.1c-0.1-0.1-0.1-0.2-0.1-0.3V12.3l1.2,0.4c0.4,0.1,0.8,0.2,1.1,0.1c0.4-0.1,0.7-0.2,1-0.5L5.8,12
		c0.2-0.2,0.5-0.3,0.8-0.3s0.6,0.1,0.8,0.3l0.1,0.1c0.4,0.3,0.9,0.5,1.4,0.4c0.5,0,1-0.2,1.3-0.6l0.3-0.3c0.1-0.1,0.2-0.2,0.3-0.2
		c0.1,0,0.3,0,0.4,0l1.8,0.6V25.6z M13.1,11l-1.5-0.5c-0.3-0.1-0.6-0.1-0.9,0c-0.3,0.1-0.6,0.2-0.8,0.4l-0.3,0.3
		c-0.2,0.2-0.5,0.3-0.7,0.3c-0.3,0-0.5-0.1-0.8-0.2L8,11.3c-0.4-0.3-0.9-0.5-1.4-0.5c-0.5,0-1,0.2-1.4,0.5l-0.5,0.4
		c-0.2,0.1-0.4,0.2-0.6,0.3c-0.2,0-0.5,0-0.7,0l-1.5-0.5v-1.1C2.7,10,3.5,9.7,4.1,9.1C5.4,8,5.7,6.1,5.6,3.8h3.7
		c-0.2,1.4,0,2.8,0.7,4c0.8,1.1,1.8,1.9,3.1,2.4V11z"/>
	<path class="st1" d="M12.6,27.2H2.4c-0.4,0-0.8-0.2-1.2-0.5c-0.3-0.3-0.5-0.7-0.5-1.2V9.8c0-0.2,0.1-0.3,0.2-0.5
		C1,9.2,1.2,9.1,1.3,9.1c0.7-0.1,1.4-0.4,2-0.9c1.1-1,1.2-2.6,1.1-4.2H4.2C4.1,4,3.9,4,3.7,3.8C3.6,3.7,3.5,3.5,3.5,3.3V1.5
		c0-0.1,0-0.2,0.1-0.3c0-0.1,0.1-0.2,0.2-0.2C3.8,0.9,3.9,0.8,4,0.8c0.1,0,0.2,0,0.3,0l6.5,0c0.2,0,0.4,0.1,0.5,0.2
		c0.1,0.1,0.2,0.3,0.2,0.5v1.9c0,0.2-0.1,0.4-0.2,0.5S11,4,10.8,4h-0.3c-0.2,1,0,2.1,0.5,3.1c0.7,0.9,1.7,1.7,2.8,2l0,0
		c0.1,0.1,0.3,0.2,0.3,0.3c0.1,0.1,0.1,0.3,0.1,0.4l0,15.8c0,0.4-0.2,0.8-0.5,1.1C13.5,27.1,13,27.2,12.6,27.2z M4.3,1.3
		C4.2,1.3,4.2,1.3,4.3,1.3c-0.1,0-0.1,0-0.1,0.1c0,0,0,0-0.1,0.1c0,0,0,0.1,0,0.1v1.9c0,0.1,0,0.1,0.1,0.2c0,0,0.1,0.1,0.2,0.1H5
		l0,0.2C5,5.5,5,7.5,3.7,8.6C3,9.2,2.2,9.5,1.4,9.6c0,0-0.1,0-0.1,0.1c0,0,0,0.1,0,0.1v15.8c0,0.3,0.1,0.6,0.3,0.8
		c0.2,0.2,0.5,0.3,0.8,0.3h10.2c0.3,0,0.6-0.1,0.8-0.3c0.2-0.2,0.3-0.5,0.3-0.8V9.8c0-0.1,0-0.1,0-0.1c0,0-0.1-0.1-0.1-0.1
		c-1.2-0.4-2.3-1.2-3.1-2.2C10,6.2,9.8,5,10,3.7l0-0.2h0.7c0.1,0,0.1,0,0.2-0.1S11,3.4,11,3.3V1.5c0-0.1,0-0.1-0.1-0.2
		c0,0-0.1-0.1-0.2-0.1L4.3,1.3C4.3,1.3,4.3,1.3,4.3,1.3z M2.4,26.4c-0.2,0-0.4-0.1-0.5-0.2c-0.1-0.1-0.2-0.3-0.2-0.5V12l1.5,0.5
		c0.3,0.1,0.7,0.1,1,0.1c0.3-0.1,0.7-0.2,0.9-0.4l0.4-0.4c0.5-0.4,1.4-0.4,1.9,0l0.1,0.1c0.3,0.3,0.8,0.4,1.2,0.4
		c0.4,0,0.9-0.2,1.2-0.5l0.3-0.3c0.1-0.1,0.3-0.2,0.5-0.3c0.2,0,0.4,0,0.5,0l1.9,0.6v13.8c0,0.2-0.1,0.4-0.2,0.5
		c-0.1,0.1-0.3,0.2-0.5,0.2H2.4z M2.2,12.7v13c0,0.1,0,0.1,0.1,0.2c0,0,0.1,0.1,0.2,0.1h10.2c0.1,0,0.1,0,0.1-0.1
		c0,0,0.1-0.1,0.1-0.2V12.2l-1.6-0.5c-0.1,0-0.2,0-0.3,0c-0.1,0-0.2,0.1-0.2,0.1l-0.3,0.3c-0.4,0.4-0.9,0.6-1.5,0.7
		c-0.6,0-1.1-0.1-1.6-0.5l-0.1-0.1c-0.4-0.3-0.9-0.3-1.3,0l-0.4,0.4c-0.3,0.3-0.7,0.4-1.2,0.5c-0.4,0.1-0.9,0-1.3-0.1L2.2,12.7z
		 M3.8,12.2c-0.2,0-0.3,0-0.5-0.1l-1.6-0.6V10l0.2,0c0.8-0.2,1.5-0.5,2.1-1c1.1-1,1.5-2.6,1.4-5.1l0-0.3h4.2l0,0.3
		c-0.2,1.3,0,2.7,0.7,3.8c0.7,1,1.7,1.8,3,2.3l0.2,0.1v1.4l-1.8-0.6c-0.2-0.1-0.5-0.1-0.8,0c-0.3,0.1-0.5,0.2-0.7,0.4l-0.3,0.3
		c-0.2,0.2-0.5,0.4-0.9,0.4c-0.3,0-0.7-0.1-0.9-0.3l-0.1-0.1c-0.7-0.6-1.8-0.6-2.5,0l-0.5,0.4c-0.2,0.2-0.5,0.3-0.7,0.3
		C4,12.2,3.9,12.2,3.8,12.2z M2.2,11.2l1.3,0.5c0.2,0.1,0.4,0.1,0.6,0c0.2,0,0.4-0.1,0.5-0.2L5,11.1c0.9-0.7,2.2-0.7,3.1,0l0.1,0.1
		c0.2,0.1,0.4,0.2,0.6,0.2c0.2,0,0.4-0.1,0.6-0.3l0.3-0.3c0.2-0.2,0.6-0.4,0.9-0.5c0.3-0.1,0.7-0.1,1,0l1.1,0.4v-0.4
		c-1.2-0.5-2.3-1.3-3-2.4C9.1,6.7,8.9,5.4,9,4H5.9C6,6.6,5.5,8.3,4.3,9.3C3.7,9.8,3,10.2,2.2,10.4V11.2z M10.5,3.1H4.5V1.7h6.1V3.1z
		 M5,2.6H10V2.2H5V2.6z"/>
</g>
</svg>
