<?xml version="1.0" encoding="utf-8"?>
<!-- Generator: Adobe Illustrator 25.4.1, SVG Export Plug-In . SVG Version: 6.00 Build 0)  -->
<svg version="1.1" id="Livello_1" xmlns="http://www.w3.org/2000/svg" xmlns:xlink="http://www.w3.org/1999/xlink" x="0px" y="0px"
	 viewBox="0 0 28 28" style="enable-background:new 0 0 28 28;" xml:space="preserve">
<style type="text/css">
	.st0{fill:#74121D;}
</style>
<g>
	<path class="st0" d="M21.8,27.8h-7.5c-1.9,0-2.9,0-3.8-0.4c-0.8-0.4-1.4-1-1.7-1.7c-0.4-0.9-0.4-1.8-0.4-3.8c0-0.4,0.3-0.8,0.8-0.8
		s0.8,0.3,0.8,0.7c0,1.8,0,2.6,0.3,3.2c0.2,0.5,0.6,0.9,1.1,1.1c0.5,0.3,1.4,0.3,3.1,0.3h7.5c1.7,0,2.5,0,3.1-0.3
		c0.5-0.2,0.9-0.6,1.1-1.1c0.3-0.5,0.3-1.4,0.3-3.1V6.2c0-1.7,0-2.5-0.3-3.1c-0.2-0.5-0.6-0.9-1.1-1.1c-0.5-0.3-1.4-0.3-3.1-0.3
		h-7.5c-1.7,0-2.6,0-3.1,0.3c-0.5,0.2-0.9,0.6-1.1,1.1C9.9,3.6,9.9,4.5,9.9,6.2C9.9,6.6,9.5,7,9.1,7S8.4,6.7,8.4,6.3V6.2
		c0-1.9,0-2.9,0.4-3.8c0.4-0.8,1-1.4,1.7-1.7c0.9-0.4,1.8-0.4,3.8-0.4h7.5c1.9,0,2.9,0,3.8,0.4c0.8,0.4,1.4,1,1.8,1.7
		c0.4,0.9,0.4,1.8,0.4,3.8v15.6c0,1.9,0,2.9-0.4,3.8c-0.4,0.7-1,1.4-1.7,1.7C24.7,27.8,23.7,27.8,21.8,27.8z M14,19.6
		c-0.2,0-0.4-0.1-0.5-0.2c-0.3-0.3-0.3-0.8,0-1.1l3.6-3.6H1c-0.4,0-0.8-0.3-0.8-0.8s0.3-0.8,0.8-0.8h16.1l-3.6-3.6
		c-0.3-0.3-0.3-0.8,0-1.1s0.8-0.3,1.1,0l4.9,4.9c0.1,0.1,0.1,0.2,0.2,0.2c0,0.1,0.1,0.2,0.1,0.3s0,0.2-0.1,0.3
		c0,0.1-0.1,0.2-0.2,0.2l-4.9,4.9C14.4,19.6,14.2,19.6,14,19.6z"/>
</g>
</svg>
