<?xml version="1.0" encoding="utf-8"?>
<!-- Generator: Adobe Illustrator 25.4.1, SVG Export Plug-In . SVG Version: 6.00 Build 0)  -->
<svg version="1.1" id="Livello_1" xmlns="http://www.w3.org/2000/svg" xmlns:xlink="http://www.w3.org/1999/xlink" x="0px" y="0px"
	 viewBox="0 0 25 28" style="enable-background:new 0 0 25 28;" xml:space="preserve">
<style type="text/css">
	.st0{fill:#74121D;}
</style>
<path class="st0" d="M25,1.6c0-0.3-0.1-0.5-0.1-0.7c0,0,0,0,0,0c0,0,0,0,0,0c0,0,0,0,0,0c0,0,0,0,0,0c-0.2-0.3-0.4-0.6-0.7-0.7
	c0,0-0.1,0-0.1-0.1c0,0,0,0-0.1,0c0,0-0.1,0-0.1,0c-0.1,0-0.2,0-0.3-0.1c-0.2,0-0.5,0-1,0h-20C2,0,1.7,0,1.5,0c-0.2,0-0.3,0-0.3,0.1
	c0,0-0.1,0-0.2,0.1c0,0-0.1,0-0.1,0.1C0.6,0.4,0.3,0.6,0.2,0.9C0.1,1.1,0,1.3,0,1.6c0,0.3,0,0.6,0,1.1V4c0,0.5,0,0.6,0,0.8
	c0,0.2,0.1,0.3,0.2,0.5c0.1,0.2,0.2,0.3,0.5,0.6l8,8.7C8.9,14.8,9,15,9.1,15.2c0,0,0,0,0,0c0,0,0,0,0,0c0.1,0.2,0.1,0.3,0.2,0.5
	c0,0.2,0,0.4,0,0.8v8.1c0,0.8,0,1.3,0,1.7c0,0.4,0.1,0.7,0.2,0.9c0,0,0,0,0,0c0,0,0,0,0,0c0.2,0.4,0.6,0.6,1,0.7c0.1,0,0.1,0,0.2,0
	c0,0,0.1,0,0.1,0c0.2,0,0.4-0.1,0.6-0.2c0.3-0.1,0.8-0.4,1.4-0.7l1.2-0.7c0.6-0.3,0.8-0.4,0.9-0.6c0.2-0.2,0.3-0.4,0.4-0.6
	c0.1-0.2,0.1-0.5,0.1-1.2v-7.5c0-0.3,0-0.5,0-0.7c0,0,0,0,0,0c0-0.2,0.1-0.3,0.2-0.5c0,0,0,0,0,0c0.1-0.2,0.3-0.3,0.4-0.5
	c0,0,0.1-0.1,0.1-0.1l7.9-8.6c0.3-0.4,0.4-0.5,0.5-0.6C24.9,5.2,24.9,5,25,4.8c0-0.2,0-0.3,0-0.8V2.7C25,2.2,25,1.9,25,1.6z
	 M22.8,4.6l-7.9,8.6c0,0-0.1,0.1-0.1,0.1c-0.2,0.3-0.5,0.6-0.7,0.9c0,0,0,0,0,0c0,0,0,0,0,0c-0.2,0.3-0.3,0.7-0.4,1c0,0,0,0,0,0
	c-0.1,0.4-0.1,0.8-0.1,1.2V24c0,0.2,0,0.4,0,0.5c-0.1,0-0.2,0.1-0.3,0.2L12,25.3c-0.3,0.1-0.5,0.3-0.7,0.4c0-0.3,0-0.6,0-1v-8.2
	c0-0.4,0-0.8-0.1-1.2c-0.1-0.4-0.2-0.7-0.4-1c0,0,0,0,0,0c0,0,0,0,0,0c0,0,0,0,0,0c0,0,0,0,0,0c-0.2-0.4-0.5-0.7-0.8-1L2.2,4.6
	C2.1,4.5,2,4.4,2,4.4C2,4.3,2,4.2,2,4V2.7C2,2.4,2,2.2,2,2c0.1,0,0.3,0,0.5,0h20c0.2,0,0.4,0,0.5,0c0,0.2,0,0.4,0,0.7V4
	c0,0.2,0,0.3,0,0.3C23,4.4,22.9,4.5,22.8,4.6z"/>
</svg>
