<?xml version="1.0" encoding="utf-8"?>
<!-- Generator: Adobe Illustrator 25.4.1, SVG Export Plug-In . SVG Version: 6.00 Build 0)  -->
<svg version="1.1" id="Livello_1" xmlns="http://www.w3.org/2000/svg" xmlns:xlink="http://www.w3.org/1999/xlink" x="0px" y="0px"
	 viewBox="0 0 26 26" style="enable-background:new 0 0 26 26;" xml:space="preserve">
<style type="text/css">
	.st0{fill:#FFFFFF;filter:url(#Adobe_OpacityMaskFilter);}
	.st1{mask:url(#path-1-inside-1_161_2022_00000045585079975761053510000008555890249000802969_);}
	.st2{fill:#74121D;}
</style>
<defs>
	<filter id="Adobe_OpacityMaskFilter" filterUnits="userSpaceOnUse" x="-0.5" y="-0.5" width="27" height="27">
		<feColorMatrix  type="matrix" values="1 0 0 0 0  0 1 0 0 0  0 0 1 0 0  0 0 0 1 0"/>
	</filter>
</defs>
<mask maskUnits="userSpaceOnUse" x="-0.5" y="-0.5" width="27" height="27" id="path-1-inside-1_161_2022_00000045585079975761053510000008555890249000802969_">
	<path class="st0" d="M25.9,10.3l-2.7-3.8c-0.1-0.1-0.2-0.3-0.3-0.4c0.3-0.3,0.4-0.7,0.4-1.1c0-0.3-0.1-0.6-0.2-0.9
		c-0.2-0.3-0.4-0.5-0.7-0.6c0.1-0.3,0.2-0.6,0.2-0.9c0-0.7-0.3-1.4-0.8-1.9C21.2,0.3,20.5,0,19.8,0H6.1C5.4,0,4.7,0.3,4.2,0.8
		C3.7,1.3,3.4,1.9,3.4,2.7c0,0.3,0.1,0.6,0.2,0.9C3.4,3.7,3.1,3.9,3,4.1C2.8,4.4,2.7,4.7,2.7,5c0,0.4,0.1,0.8,0.4,1.1
		C3,6.2,2.9,6.3,2.8,6.5l-2.7,3.8C0,10.4,0,10.5,0,10.6c0,0.1,0,0.2,0.1,0.3c0.1,0.1,0.1,0.2,0.2,0.3c0.1,0.1,0.2,0.1,0.3,0.1
		c0.7,0,1.4-0.1,2-0.4v12c0,0.4,0.1,0.8,0.3,1.2c0.2,0.4,0.4,0.7,0.7,1c0.3,0.3,0.7,0.5,1.1,0.6C5.2,26,5.6,26,6,26h14
		c0.8,0,1.7-0.3,2.3-0.8c0.6-0.6,1-1.4,1-2.2v-12c0.6,0.3,1.3,0.4,2,0.4c0.1,0,0.2,0,0.4-0.1c0.1-0.1,0.2-0.2,0.3-0.3
		c0.1-0.1,0.1-0.2,0.1-0.3C26,10.5,26,10.4,25.9,10.3L25.9,10.3z M6.1,1.3h13.7c0.2,0,0.4,0,0.5,0.1c0.2,0.1,0.3,0.2,0.4,0.3
		C20.9,1.8,21,2,21.1,2.1c0.1,0.2,0.1,0.3,0.1,0.5c0,0.2-0.1,0.3-0.2,0.5c-0.1,0.1-0.3,0.2-0.5,0.2H5.5C5.3,3.3,5.1,3.3,5,3.1
		C4.9,3,4.8,2.8,4.8,2.7c0-0.2,0-0.4,0.1-0.5C5,2,5.1,1.8,5.2,1.7s0.3-0.2,0.4-0.3C5.8,1.4,6,1.3,6.1,1.3z M4.4,4.7h17.1
		c0.1,0,0.2,0,0.2,0.1c0.1,0.1,0.1,0.1,0.1,0.2c0,0,0,0.1,0,0.1c0,0,0,0.1-0.1,0.1c0,0-0.1,0.1-0.1,0.1c0,0-0.1,0-0.1,0H4.4
		c0,0-0.1,0-0.1,0c0,0-0.1,0-0.1-0.1c0,0-0.1-0.1-0.1-0.1c0,0,0-0.1,0-0.1c0-0.1,0-0.2,0.1-0.2C4.3,4.7,4.3,4.7,4.4,4.7z M21.9,22.9
		c0,0.5-0.2,0.9-0.6,1.2c-0.4,0.3-0.8,0.5-1.3,0.5H6c-0.5,0-1-0.1-1.3-0.5c-0.4-0.3-0.6-0.8-0.6-1.3V10.4c0.2,0,0.4-0.1,0.7-0.1
		c0.6,0,1.2,0.2,1.7,0.6c0.7,0.5,1.6,0.8,2.4,0.8c0.9,0,1.7-0.3,2.5-0.8c0.5-0.4,1.1-0.6,1.7-0.6c0.6,0,1.2,0.2,1.7,0.6
		c0.7,0.5,1.6,0.8,2.4,0.8s1.7-0.3,2.4-0.8c0.5-0.4,1.1-0.6,1.7-0.6c0.2,0,0.5,0,0.7,0.1L21.9,22.9L21.9,22.9z M23.5,9.6
		C22.8,9.2,22,9,21.1,9c-0.9,0-1.7,0.3-2.4,0.8c-0.5,0.4-1.1,0.6-1.7,0.6c-0.6,0-1.2-0.2-1.7-0.6C14.7,9.3,13.8,9,13,9
		c-0.9,0-1.7,0.3-2.4,0.8c-0.5,0.4-1.1,0.6-1.7,0.6c-0.6,0-1.2-0.2-1.7-0.6C6.5,9.3,5.6,9,4.8,9C4,9,3.1,9.2,2.4,9.6L2.2,9.7
		l1.7-2.4C4,7.1,4.2,6.9,4.4,6.8C4.6,6.7,4.8,6.7,5,6.7h15.9c0.2,0,0.4,0,0.6,0.1c0.2,0.1,0.4,0.2,0.5,0.4l1.8,2.5L23.5,9.6z"/>
</mask>
<g class="st1">
	<path class="st2" d="M25.9,10.3l-2.7-3.8c-0.1-0.1-0.2-0.3-0.3-0.4c0.3-0.3,0.4-0.7,0.4-1.1c0-0.3-0.1-0.6-0.2-0.9
		c-0.2-0.3-0.4-0.5-0.7-0.6c0.1-0.3,0.2-0.6,0.2-0.9c0-0.7-0.3-1.4-0.8-1.9C21.2,0.3,20.5,0,19.8,0H6.1C5.4,0,4.7,0.3,4.2,0.8
		C3.7,1.3,3.4,1.9,3.4,2.7c0,0.3,0.1,0.6,0.2,0.9C3.4,3.7,3.1,3.9,3,4.1C2.8,4.4,2.7,4.7,2.7,5c0,0.4,0.1,0.8,0.4,1.1
		C3,6.2,2.9,6.3,2.8,6.5l-2.7,3.8C0,10.4,0,10.5,0,10.6c0,0.1,0,0.2,0.1,0.3c0.1,0.1,0.1,0.2,0.2,0.3c0.1,0.1,0.2,0.1,0.3,0.1
		c0.7,0,1.4-0.1,2-0.4v12c0,0.4,0.1,0.8,0.3,1.2c0.2,0.4,0.4,0.7,0.7,1c0.3,0.3,0.7,0.5,1.1,0.6C5.2,26,5.6,26,6,26h14
		c0.8,0,1.7-0.3,2.3-0.8c0.6-0.6,1-1.4,1-2.2v-12c0.6,0.3,1.3,0.4,2,0.4c0.1,0,0.2,0,0.4-0.1c0.1-0.1,0.2-0.2,0.3-0.3
		c0.1-0.1,0.1-0.2,0.1-0.3C26,10.5,26,10.4,25.9,10.3L25.9,10.3z M6.1,1.3h13.7c0.2,0,0.4,0,0.5,0.1c0.2,0.1,0.3,0.2,0.4,0.3
		C20.9,1.8,21,2,21.1,2.1c0.1,0.2,0.1,0.3,0.1,0.5c0,0.2-0.1,0.3-0.2,0.5c-0.1,0.1-0.3,0.2-0.5,0.2H5.5C5.3,3.3,5.1,3.3,5,3.1
		C4.9,3,4.8,2.8,4.8,2.7c0-0.2,0-0.4,0.1-0.5C5,2,5.1,1.8,5.2,1.7s0.3-0.2,0.4-0.3C5.8,1.4,6,1.3,6.1,1.3z M4.4,4.7h17.1
		c0.1,0,0.2,0,0.2,0.1c0.1,0.1,0.1,0.1,0.1,0.2c0,0,0,0.1,0,0.1c0,0,0,0.1-0.1,0.1c0,0-0.1,0.1-0.1,0.1c0,0-0.1,0-0.1,0H4.4
		c0,0-0.1,0-0.1,0c0,0-0.1,0-0.1-0.1c0,0-0.1-0.1-0.1-0.1c0,0,0-0.1,0-0.1c0-0.1,0-0.2,0.1-0.2C4.3,4.7,4.3,4.7,4.4,4.7z M21.9,22.9
		c0,0.5-0.2,0.9-0.6,1.2c-0.4,0.3-0.8,0.5-1.3,0.5H6c-0.5,0-1-0.1-1.3-0.5c-0.4-0.3-0.6-0.8-0.6-1.3V10.4c0.2,0,0.4-0.1,0.7-0.1
		c0.6,0,1.2,0.2,1.7,0.6c0.7,0.5,1.6,0.8,2.4,0.8c0.9,0,1.7-0.3,2.5-0.8c0.5-0.4,1.1-0.6,1.7-0.6c0.6,0,1.2,0.2,1.7,0.6
		c0.7,0.5,1.6,0.8,2.4,0.8s1.7-0.3,2.4-0.8c0.5-0.4,1.1-0.6,1.7-0.6c0.2,0,0.5,0,0.7,0.1L21.9,22.9L21.9,22.9z M23.5,9.6
		C22.8,9.2,22,9,21.1,9c-0.9,0-1.7,0.3-2.4,0.8c-0.5,0.4-1.1,0.6-1.7,0.6c-0.6,0-1.2-0.2-1.7-0.6C14.7,9.3,13.8,9,13,9
		c-0.9,0-1.7,0.3-2.4,0.8c-0.5,0.4-1.1,0.6-1.7,0.6c-0.6,0-1.2-0.2-1.7-0.6C6.5,9.3,5.6,9,4.8,9C4,9,3.1,9.2,2.4,9.6L2.2,9.7
		l1.7-2.4C4,7.1,4.2,6.9,4.4,6.8C4.6,6.7,4.8,6.7,5,6.7h15.9c0.2,0,0.4,0,0.6,0.1c0.2,0.1,0.4,0.2,0.5,0.4l1.8,2.5L23.5,9.6z"/>
	<path class="st2" d="M5.9,26.5c-0.4,0-0.8-0.1-1.2-0.2c-0.5-0.2-0.9-0.4-1.2-0.7c-0.4-0.3-0.6-0.7-0.9-1.2
		c-0.2-0.4-0.3-0.9-0.3-1.4l0-11.3c-0.5,0.1-1,0.2-1.6,0.2c-0.2,0-0.4-0.1-0.6-0.2c-0.2-0.1-0.3-0.3-0.4-0.5
		c-0.1-0.2-0.1-0.4-0.1-0.6c0-0.2,0.1-0.4,0.2-0.6l2.7-3.8c0-0.1,0.1-0.1,0.1-0.2C2.3,5.7,2.2,5.4,2.2,5c0-0.4,0.1-0.8,0.3-1.1
		C2.7,3.7,2.8,3.5,3,3.3C2.9,3.1,2.9,2.9,2.9,2.7c0-0.9,0.4-1.7,1-2.3s1.4-0.9,2.3-0.9h13.7c0.9,0,1.7,0.3,2.3,0.9
		c0.6,0.6,1,1.4,1,2.3c0,0.2,0,0.5-0.1,0.7c0.2,0.2,0.3,0.3,0.5,0.5c0.2,0.3,0.3,0.7,0.3,1.1c0,0.4-0.1,0.8-0.3,1.1
		c0,0,0.1,0.1,0.1,0.1l2.7,3.8l0,0c0.2,0.2,0.2,0.4,0.2,0.6c0,0.2,0,0.4-0.1,0.6c-0.1,0.2-0.3,0.4-0.4,0.5c-0.2,0.1-0.4,0.2-0.6,0.2
		c-0.5,0-1,0-1.5-0.2v11.3c0,1-0.5,1.9-1.2,2.6c-0.7,0.7-1.7,1-2.6,1H6C6,26.5,5.9,26.5,5.9,26.5z M3.2,10.1v12.8
		c0,0.3,0.1,0.7,0.2,1c0.2,0.3,0.4,0.6,0.6,0.8C4.3,25,4.6,25.2,5,25.3c0.3,0.1,0.7,0.2,1,0.2l14,0c0.7,0,1.4-0.2,1.9-0.7
		c0.5-0.5,0.8-1.1,0.9-1.9V10.2l0.7,0.3c0.5,0.2,1,0.3,1.6,0.3L23.3,10c-0.7-0.3-1.4-0.5-2.1-0.5c-0.8,0-1.5,0.2-2.1,0.7
		c-0.6,0.4-1.2,0.7-2,0.7c-0.7,0-1.4-0.2-2-0.7c-0.6-0.4-1.3-0.7-2.1-0.7c-0.8,0-1.5,0.2-2.1,0.7c-0.6,0.4-1.2,0.7-2,0.7
		c-0.7,0-1.4-0.2-2-0.7C6.3,9.7,5.5,9.5,4.8,9.5C4,9.5,3.3,9.7,2.7,10L1,10.8c0.5,0,1-0.2,1.5-0.4L3.2,10.1z M20.9,6.2
		c0.3,0,0.6,0.1,0.8,0.2c0.3,0.1,0.5,0.3,0.7,0.6l2.8,3.9c0,0,0.1,0,0.1,0l0.1,0l0,0l0.1-0.1l0-0.1l-2.7-3.8
		c-0.1-0.1-0.2-0.2-0.3-0.3l-0.4-0.3l0.4-0.4c0.2-0.2,0.3-0.5,0.3-0.8c0-0.2-0.1-0.4-0.2-0.6c-0.1-0.2-0.3-0.3-0.5-0.4l-0.4-0.2
		l0.2-0.4c0.1-0.2,0.2-0.4,0.2-0.6c0-0.6-0.2-1.1-0.7-1.5c-0.4-0.4-1-0.6-1.6-0.6H6.1C5.6,0.5,5,0.7,4.6,1.1c-0.4,0.4-0.7,1-0.7,1.5
		c0,0.2,0.1,0.4,0.2,0.6l0.2,0.4L3.9,4C3.7,4.1,3.5,4.2,3.4,4.4S3.2,4.8,3.2,5c0,0.3,0.1,0.5,0.3,0.7l0.3,0.4L3.5,6.4
		C3.4,6.5,3.3,6.7,3.2,6.8l-2.7,3.8l0,0v0.2l0.1,0.1c0,0,0.1,0,0.1,0L3.5,7c0.2-0.2,0.4-0.4,0.7-0.6C4.4,6.2,4.7,6.2,5,6.2H20.9
		C20.9,6.2,20.9,6.2,20.9,6.2z M13.1,8.5c0.9,0,1.9,0.3,2.6,0.9c0.4,0.3,0.9,0.5,1.4,0.5c0.5,0,1-0.2,1.4-0.4
		c0.8-0.6,1.7-0.9,2.7-0.9c0.4,0,0.8,0,1.2,0.1l-0.8-1.1c-0.1-0.1-0.2-0.2-0.3-0.3c-0.1-0.1-0.3-0.1-0.4-0.1c0,0,0,0,0,0H5
		c-0.1,0-0.3,0-0.4,0.1C4.5,7.3,4.4,7.4,4.3,7.5L3.5,8.6c0.4-0.1,0.8-0.1,1.2-0.1c1,0,1.9,0.3,2.7,0.9c0.4,0.3,0.9,0.5,1.4,0.5
		c0.5,0,1-0.2,1.4-0.4C11,8.8,12,8.5,13.1,8.5C13,8.5,13,8.5,13.1,8.5z M5.9,25.2c-0.6,0-1.1-0.2-1.5-0.6c-0.5-0.4-0.7-1-0.8-1.6
		l0-13L4,9.9c0.2,0,0.5-0.1,0.8-0.1c0.7,0,1.4,0.2,2,0.7c0.6,0.4,1.4,0.7,2.1,0.7c0.8,0,1.6-0.2,2.2-0.7c0.6-0.4,1.3-0.7,2-0.7
		c0.7,0,1.4,0.2,2,0.7c1.2,0.9,3,0.9,4.3,0c0.5-0.4,1.3-0.7,2-0.6c0.3,0,0.5,0,0.8,0.1l0.4,0.1v13.5h-0.1c-0.1,0.4-0.3,0.8-0.7,1.1
		c-0.5,0.4-1,0.6-1.6,0.6H6C6,25.2,5.9,25.2,5.9,25.2z M4.6,10.8v12.1c0,0.3,0.2,0.6,0.4,0.9c0.3,0.2,0.6,0.4,1,0.3l14,0
		c0.4,0,0.7-0.1,1-0.3s0.4-0.6,0.4-0.9l0-0.4V10.9c-0.1,0-0.2,0-0.2,0c-0.5,0-1,0.1-1.4,0.4c-1.6,1.2-3.9,1.2-5.5,0
		C14,11,13.5,10.8,13,10.8c-0.5,0-1,0.1-1.4,0.4c-0.8,0.6-1.8,0.9-2.8,0.9c-1,0-1.9-0.3-2.7-0.9c-0.4-0.3-0.9-0.5-1.4-0.5
		C4.7,10.9,4.7,10.8,4.6,10.8z M4.4,5.8c-0.1,0-0.2,0-0.3-0.1C4,5.7,3.9,5.7,3.8,5.6C3.8,5.5,3.7,5.4,3.7,5.3c0-0.1-0.1-0.2-0.1-0.3
		c0-0.2,0.1-0.4,0.3-0.6C4,4.3,4.2,4.2,4.4,4.2h17.1c0.2,0,0.4,0.1,0.6,0.2c0.2,0.2,0.2,0.4,0.3,0.6c0,0.1,0,0.2-0.1,0.3
		c0,0.1-0.1,0.2-0.2,0.3C22,5.7,22,5.7,21.9,5.8c-0.1,0-0.2,0.1-0.3,0.1H4.4C4.4,5.8,4.4,5.8,4.4,5.8z M20.5,3.8H5.5
		c-0.3,0-0.6-0.1-0.8-0.3C4.4,3.3,4.3,3,4.3,2.7c0-0.2,0-0.5,0.1-0.7c0.1-0.2,0.2-0.4,0.4-0.6C5,1.2,5.2,1.1,5.4,1
		c0.2-0.1,0.5-0.1,0.7-0.1h13.7c0.2,0,0.5,0,0.7,0.1C20.8,1,21,1.2,21.1,1.3c0.2,0.2,0.3,0.4,0.4,0.6c0.1,0.2,0.1,0.5,0.1,0.7
		c0,0.3-0.1,0.6-0.3,0.8C21.1,3.7,20.8,3.8,20.5,3.8z M6.1,1.8c-0.1,0-0.2,0-0.3,0.1C5.7,1.9,5.6,2,5.5,2.1C5.5,2.2,5.4,2.2,5.4,2.3
		c0,0.1-0.1,0.2-0.1,0.3c0,0,0,0.1,0,0.1s0.1,0,0.1,0h15.1c0,0,0.1,0,0.1,0c0,0,0-0.1,0-0.1c0-0.1,0-0.2-0.1-0.3
		c0-0.1-0.1-0.2-0.2-0.3c-0.1-0.1-0.2-0.1-0.3-0.2c-0.1,0-0.2-0.1-0.3-0.1H6.1C6.1,1.8,6.1,1.8,6.1,1.8z"/>
</g>
</svg>
