<?xml version="1.0" encoding="utf-8"?>
<!-- Generator: Adobe Illustrator 25.4.1, SVG Export Plug-In . SVG Version: 6.00 Build 0)  -->
<svg version="1.1" id="Livello_1" xmlns="http://www.w3.org/2000/svg" xmlns:xlink="http://www.w3.org/1999/xlink" x="0px" y="0px"
	 viewBox="0 0 28 28" style="enable-background:new 0 0 28 28;" xml:space="preserve">
<style type="text/css">
	.st0{fill-rule:evenodd;clip-rule:evenodd;fill:#74121D;}
	.st1{fill:#74121D;}
</style>
<g>
	<path class="st0" d="M14,1C6.8,1,1,6.8,1,14c0,7.2,5.8,13,13,13c7.2,0,13-5.8,13-13C27,6.8,21.2,1,14,1z M22.9,5.8l-4.2,4.2
		c0.1,0.9,0.2,2.3-0.5,3.4c0,0,0,0,0,0.1c0.1,0,0.2,0.1,0.3,0.3c0,0,0.9,2.6-0.2,4.5C17.8,19,17,19.6,16.3,20
		c-0.7,0.4-1.4,0.7-1.8,0.8v2.8c0,0.2-0.2,0.4-0.4,0.4c-0.2,0-0.4-0.2-0.4-0.4v-2.8c-0.4-0.1-1.1-0.4-1.8-0.8
		c-0.6-0.4-1.2-0.8-1.7-1.4l-4.3,4.3c2.2,2,5.1,3.2,8.2,3.2c6.7,0,12.1-5.4,12.1-12.1C26.1,10.8,24.9,7.9,22.9,5.8z M22.2,5.1
		c-2.2-2-5.1-3.2-8.2-3.2C7.3,1.9,1.9,7.3,1.9,14c0,3.2,1.2,6.1,3.2,8.2l4.5-4.5c-0.8-1.9,0-4.1,0-4.1c0-0.1,0.2-0.2,0.3-0.3
		c0,0,0,0,0-0.1c-1.1-1.9-0.2-4.5-0.2-4.5c0.1-0.2,0.3-0.3,0.5-0.3c0,0,0.8,0.2,1.8,0.7c-0.1-0.4-0.2-0.8-0.2-1.2c0-2.2,2.1-4,2.1-4
		c0.2-0.1,0.4-0.1,0.6,0c0,0,2.1,1.8,2.1,4c0,0.4-0.1,0.8-0.2,1.1c0.9-0.5,1.7-0.7,1.7-0.7c0.2-0.1,0.4,0.1,0.5,0.3c0,0,0,0,0,0.1
		L22.2,5.1z M11.1,14.8c-0.3-0.2-0.6-0.3-0.9-0.4c-0.2,0.7-0.4,2.2,0.3,3.4c0.4,0.6,1,1.1,1.6,1.5c0.5,0.3,1,0.5,1.4,0.6
		c0,0,0-0.1,0-0.1c0,0,0-0.1,0-0.1c0-0.9-0.1-2.4-0.7-3.4c-0.3-0.5-0.7-0.8-1-1.1c0,0-0.1,0-0.1-0.1C11.5,15,11.3,14.9,11.1,14.8z
		 M14.5,19.8c0.4-0.1,0.9-0.3,1.4-0.6c0.6-0.4,1.2-0.8,1.6-1.5c0.7-1.2,0.4-2.6,0.3-3.4c-0.2,0.1-0.5,0.2-0.9,0.4
		c-0.2,0.1-0.4,0.3-0.6,0.4c0,0-0.1,0-0.1,0.1c-0.4,0.3-0.8,0.6-1,1.1c-0.4,0.7-0.6,1.7-0.6,2.5V19.8z M13.6,14.8
		c0-0.9-0.1-2.4-0.7-3.4c-0.7-1.1-2-1.7-2.6-1.9c-0.2,0.7-0.4,2.2,0.3,3.4c0.3,0.5,0.7,0.8,1.1,1.1c0.2,0.1,0.4,0.2,0.6,0.4
		c0.5,0.3,1,0.5,1.3,0.6C13.6,15,13.6,14.9,13.6,14.8C13.6,14.9,13.6,14.8,13.6,14.8z M16.3,14c0.4-0.3,0.9-0.7,1.1-1.1
		c0.7-1.2,0.4-2.6,0.3-3.4c-0.6,0.2-1.9,0.8-2.6,1.9c-0.4,0.7-0.6,1.7-0.6,2.5v1c0.3-0.1,0.8-0.3,1.3-0.6
		C15.9,14.3,16.1,14.1,16.3,14z M14,5.1c0.5,0.5,1.5,1.7,1.5,3.1c0,1.4-1,2.5-1.5,3.1c-0.5-0.5-1.5-1.7-1.5-3.1
		C12.6,6.8,13.5,5.6,14,5.1z"/>
	<path class="st1" d="M14,27.2C6.7,27.2,0.8,21.3,0.8,14C0.8,6.7,6.7,0.8,14,0.8c7.3,0,13.2,5.9,13.2,13.2
		C27.2,21.3,21.3,27.2,14,27.2z M14,1.2C7,1.2,1.2,7,1.2,14S7,26.8,14,26.8S26.8,21,26.8,14S21,1.2,14,1.2z M14,26.4
		c-3.1,0-6.1-1.2-8.4-3.3l-0.2-0.2l4.7-4.7l0.2,0.2c0.4,0.5,0.9,0.9,1.6,1.3c0.7,0.4,1.4,0.7,1.8,0.8l0.2,0.1v3
		c0,0.1,0.1,0.2,0.2,0.2c0.1,0,0.2-0.1,0.2-0.2v-3l0.2-0.1c0.3-0.1,1-0.4,1.8-0.8c0.8-0.5,1.5-1.1,1.8-1.7c1-1.8,0.2-4.3,0.2-4.3
		c0-0.1-0.1-0.1-0.1-0.1l-0.2-0.1l0.1-0.3c0.6-1.1,0.6-2.4,0.5-3.3l0-0.1l4.5-4.5l0.2,0.2c2.1,2.3,3.3,5.3,3.3,8.4
		C26.4,20.8,20.8,26.4,14,26.4z M6.1,22.9c2.2,1.9,5,3,7.9,3c6.5,0,11.9-5.3,11.9-11.9c0-2.9-1.1-5.7-3-7.9L19,10
		c0.1,0.9,0.1,2.2-0.5,3.3c0.1,0.1,0.1,0.2,0.2,0.3c0,0.1,0.9,2.7-0.3,4.7c-0.4,0.7-1.1,1.3-2,1.9c-0.7,0.4-1.3,0.6-1.7,0.7v2.6
		c0,0.4-0.3,0.7-0.7,0.7s-0.7-0.3-0.7-0.7V21c-0.5-0.2-1.1-0.4-1.7-0.8C11,19.8,10.4,19.4,10,19L6.1,22.9z M5.1,22.6l-0.2-0.2
		c-2.1-2.3-3.3-5.3-3.3-8.4C1.6,7.2,7.2,1.6,14,1.6c3.1,0,6.1,1.2,8.4,3.3l0.2,0.2l-4.3,4.3L18.2,9c0-0.1-0.1-0.2-0.2-0.2
		c0,0-0.8,0.2-1.6,0.7l-0.5,0.3L16,9.2c0.1-0.4,0.2-0.7,0.2-1.1c0-2.1-1.9-3.8-2-3.8c-0.1-0.1-0.2-0.1-0.2,0c0,0-2,1.8-2,3.8
		c0,0.4,0.1,0.7,0.2,1.1l0.2,0.6l-0.6-0.3C10.8,9,10,8.8,10,8.8c-0.1,0-0.2,0-0.2,0.1c0,0-0.8,2.5,0.2,4.3c0,0.1,0,0.1,0.1,0.1
		l0.1,0.2l-0.2,0.1c-0.1,0-0.1,0.1-0.1,0.1c0,0-0.7,2.2,0,3.9l0.1,0.2L5.1,22.6z M14,2.1C7.5,2.1,2.1,7.5,2.1,14
		c0,2.9,1.1,5.7,3,7.9l4.2-4.2c-0.7-1.9,0-4,0-4.1c0-0.1,0.1-0.2,0.2-0.3c-1-1.9-0.2-4.5-0.2-4.6c0.1-0.3,0.5-0.5,0.8-0.5
		c0,0,0.6,0.1,1.3,0.5c0-0.2-0.1-0.5-0.1-0.7c0-2.3,2.1-4.1,2.1-4.2c0.3-0.2,0.6-0.2,0.9,0c0.1,0.1,2.1,1.9,2.1,4.2
		c0,0.2,0,0.4-0.1,0.7c0.7-0.3,1.3-0.5,1.3-0.5c0.2-0.1,0.5,0,0.7,0.2l3.4-3.4C19.7,3.2,16.9,2.1,14,2.1z M13.8,20.2l-0.3-0.1
		c-0.5-0.2-1-0.4-1.4-0.6c-0.8-0.5-1.4-1-1.7-1.6c-0.7-1.2-0.5-2.7-0.3-3.5l0.1-0.3l0.3,0.1c0.3,0.1,0.6,0.2,0.9,0.4l0,0
		c0.2,0.1,0.4,0.2,0.6,0.4L12,15c0.5,0.4,0.9,0.8,1.1,1.2c0.6,0.9,0.7,2.4,0.7,3.5L13.8,20.2z M10.5,14.7c-0.1,0.8-0.2,1.9,0.3,2.9
		c0.3,0.5,0.8,1,1.5,1.4c0.3,0.2,0.6,0.3,1,0.5c0-1.3-0.2-2.4-0.6-3c-0.2-0.4-0.6-0.7-1-1l-0.1,0c-0.2-0.1-0.4-0.2-0.6-0.4
		C10.8,14.9,10.7,14.8,10.5,14.7z M14.2,20.2v-1.4c0.1-0.8,0.2-1.9,0.7-2.6c0.3-0.4,0.6-0.8,1.1-1.2l0.1-0.1
		c0.2-0.1,0.4-0.2,0.6-0.4c0.3-0.2,0.6-0.3,0.9-0.4l0.3-0.1l0.1,0.3c0.2,0.8,0.4,2.3-0.3,3.5c-0.3,0.6-0.9,1.1-1.7,1.6
		c-0.5,0.3-1.1,0.5-1.4,0.6L14.2,20.2z M17.5,14.7c-0.2,0.1-0.4,0.2-0.6,0.3c-0.2,0.1-0.4,0.3-0.6,0.4l-0.1,0.1
		c-0.4,0.3-0.7,0.6-1,1c-0.4,0.7-0.6,1.7-0.6,2.4l0,0.6c0.3-0.1,0.6-0.3,1-0.5c0.7-0.4,1.2-0.9,1.5-1.4
		C17.8,16.7,17.7,15.5,17.5,14.7z M13.8,15.3l-0.3-0.1c-0.5-0.2-0.9-0.4-1.3-0.6c-0.2-0.1-0.4-0.3-0.6-0.4c-0.6-0.4-1-0.8-1.2-1.2
		c-0.7-1.2-0.5-2.7-0.3-3.5l0.1-0.3l0.3,0.1c0.7,0.2,2,0.8,2.7,2c0.6,0.9,0.7,2.4,0.7,3.5L13.8,15.3z M10.5,9.9
		c-0.1,0.8-0.2,1.9,0.3,2.9c0.2,0.4,0.6,0.7,1,1.1c0.2,0.1,0.4,0.2,0.6,0.4c0.3,0.1,0.6,0.3,0.9,0.4c0-1.3-0.2-2.4-0.6-3
		C12.1,10.7,11.1,10.1,10.5,9.9z M14.2,15.3V14c0.1-0.8,0.2-1.9,0.7-2.7c0.7-1.2,2-1.8,2.7-2l0.3-0.1l0.1,0.3
		c0.2,0.8,0.4,2.3-0.3,3.5c-0.2,0.4-0.6,0.8-1.2,1.2l0,0c-0.2,0.1-0.4,0.2-0.5,0.3c-0.5,0.3-1,0.5-1.3,0.6L14.2,15.3z M17.5,9.9
		c-0.7,0.3-1.6,0.8-2.2,1.7c-0.4,0.7-0.6,1.7-0.6,2.4l0,0.6c0.3-0.1,0.6-0.2,0.9-0.4c0.2-0.1,0.4-0.2,0.6-0.3c0.5-0.3,0.8-0.7,1-1.1
		C17.8,11.8,17.7,10.6,17.5,9.9z M14,11.5l-0.2-0.2c-0.6-0.6-1.5-1.8-1.5-3.2c0-1.4,1-2.6,1.5-3.2L14,4.7l0.2,0.2
		c0.5,0.5,1.5,1.7,1.5,3.2c0,1.5-1.1,2.8-1.5,3.2L14,11.5z M14,5.4C13.5,6,12.8,7,12.8,8.1c0,1.1,0.7,2.1,1.2,2.7
		c0.5-0.5,1.2-1.5,1.2-2.7C15.2,7,14.5,6,14,5.4z"/>
</g>
</svg>
