<?xml version="1.0" encoding="utf-8"?>
<!-- Generator: Adobe Illustrator 25.4.1, SVG Export Plug-In . SVG Version: 6.00 Build 0)  -->
<svg version="1.1" id="Livello_1" xmlns="http://www.w3.org/2000/svg" xmlns:xlink="http://www.w3.org/1999/xlink" x="0px" y="0px"
	 viewBox="0 0 28 28" style="enable-background:new 0 0 28 28;" xml:space="preserve">
<style type="text/css">
	.st0{fill:#74121D;}
</style>
<g>
	<path class="st0" d="M2.6,20.3c0.1,0.2,0.2,0.5,0.2,0.7c0,0.3,0,0.5-0.1,0.7l-0.8,2c-0.1,0.3-0.1,0.7-0.1,1
		c0.1,0.3,0.2,0.7,0.5,0.9c0.2,0.3,0.5,0.4,0.9,0.5c0.3,0.1,0.7,0.1,1,0l2.4-0.8c0.5-0.2,0.9-0.1,1.4,0.1c1.8,1,3.9,1.5,6,1.5
		c0.9,0,1.8-0.1,2.7-0.3c2.7-0.6,5.1-2,6.9-4c1.8-2,3-4.6,3.3-7.3s-0.3-5.5-1.6-7.8c-1.4-2.4-3.4-4.3-5.9-5.4
		c-2.5-1.1-5.3-1.5-7.9-0.9c-2.7,0.5-5.1,1.9-7,3.9c-1.9,2-3,4.5-3.4,7.3C0.8,15.1,1.3,17.9,2.6,20.3L2.6,20.3z M2.3,12.6
		c0.3-2.5,1.4-4.8,3.1-6.7s4-3.1,6.4-3.5c2.5-0.5,5-0.1,7.3,1c2.3,1.1,4.1,2.9,5.3,5.1c1.2,2.2,1.6,4.8,1.3,7.2
		c-0.4,2.5-1.5,4.8-3.3,6.6c-1.8,1.8-4.1,3-6.5,3.4c-2.5,0.4-5,0-7.3-1.2c-0.4-0.2-0.9-0.3-1.3-0.3c-0.3,0-0.7,0.1-1,0.2L3.9,25
		c-0.1,0-0.2,0-0.3,0c-0.1,0-0.2-0.1-0.3-0.2c-0.1-0.1-0.1-0.2-0.2-0.3c0-0.1,0-0.2,0-0.3l0.8-2c0.2-0.4,0.2-0.8,0.2-1.3
		c0-0.4-0.1-0.9-0.4-1.2C2.5,17.5,2,15.1,2.3,12.6z"/>
	<path class="st0" d="M14,27.4c-2.1,0-4.2-0.5-6.1-1.5c-0.3-0.2-0.7-0.2-1.1-0.1l-2.4,0.8c-0.4,0.1-0.8,0.1-1.2,0
		C2.7,26.5,2.3,26.3,2,26c-0.3-0.3-0.5-0.7-0.6-1.1s0-0.8,0.1-1.2l0.8-2c0.1-0.2,0.1-0.4,0.1-0.6c0-0.2-0.1-0.4-0.2-0.6l-0.2-0.4
		l0,0c-1.2-2.4-1.7-5-1.4-7.7C1.1,9.6,2.3,7,4.2,4.9c1.9-2.1,4.4-3.5,7.2-4c2.8-0.6,5.6-0.2,8.2,0.9c2.6,1.2,4.7,3.1,6.1,5.6
		c1.4,2.5,2,5.2,1.7,8.1c-0.3,2.8-1.5,5.4-3.4,7.5c-1.9,2.1-4.4,3.5-7.1,4.1C15.9,27.3,14.9,27.4,14,27.4z M7.2,25
		c0.3,0,0.7,0.1,1,0.2c1.8,0.9,3.8,1.4,5.8,1.4c0,0,0,0,0,0c0.9,0,1.8-0.1,2.7-0.3c2.6-0.6,4.9-1.9,6.7-3.9s2.9-4.4,3.2-7.1
		c0.3-2.7-0.3-5.3-1.6-7.6c-1.3-2.3-3.3-4.1-5.7-5.2c-2.4-1.1-5.1-1.4-7.7-0.9c-2.6,0.5-5,1.8-6.8,3.8c-1.8,2-2.9,4.4-3.3,7
		c-0.3,2.7,0.2,5.3,1.5,7.6l0.2,0.4l0,0c0,0.2,0.1,0.3,0.1,0.5c0,0.3,0,0.6-0.1,0.9l-0.8,2c-0.1,0.3-0.1,0.5-0.1,0.8
		c0.1,0.3,0.2,0.5,0.4,0.7c0.2,0.2,0.4,0.3,0.7,0.4c0.3,0.1,0.5,0.1,0.8,0l2.4-0.8C6.8,25,7,25,7.2,25z M14,26.1
		c-1.9,0-3.8-0.5-5.6-1.4c-0.4-0.2-0.8-0.3-1.2-0.3c-0.3,0-0.6,0-0.9,0.1L4,25.4c-0.2,0.1-0.4,0.1-0.5,0c-0.2,0-0.3-0.1-0.5-0.3
		c-0.1-0.1-0.2-0.3-0.3-0.5c0-0.2,0-0.4,0-0.5l0.8-2c0.1-0.4,0.2-0.7,0.2-1.1c0-0.4-0.1-0.8-0.3-1.1c-1.2-2.2-1.7-4.8-1.4-7.3
		c0.3-2.6,1.4-5,3.2-6.9C6.9,3.8,9.2,2.5,11.8,2c2.6-0.5,5.2-0.1,7.5,1c2.4,1.1,4.2,2.9,5.5,5.3s1.7,4.9,1.3,7.5s-1.5,4.9-3.4,6.8
		c-1.8,1.9-4.2,3.1-6.7,3.5C15.3,26.1,14.6,26.1,14,26.1z M7.3,23.7c0.5,0,1,0.1,1.5,0.4c2.2,1.1,4.6,1.5,7,1.1
		c2.4-0.4,4.6-1.5,6.3-3.2c1.7-1.7,2.8-3.9,3.2-6.4c0.4-2.4-0.1-4.8-1.2-7S21.2,4.8,19,3.7c-2.2-1.1-4.6-1.4-7.1-0.9
		C9.5,3.2,7.3,4.4,5.7,6.2s-2.7,4-3,6.5v0C2.4,15,2.9,17.4,4,19.5c0.2,0.4,0.4,0.9,0.4,1.4c0,0.5,0,1-0.2,1.4l-0.8,2
		c0,0,0,0.1,0,0.1s0,0.1,0.1,0.1c0,0,0.1,0.1,0.1,0.1c0,0,0.1,0,0.1,0l2.4-0.8C6.5,23.8,6.9,23.8,7.3,23.7z"/>
</g>
<g>
	<path class="st0" d="M10.9,11.2c0.2,0,0.3-0.1,0.4-0.2c0.1-0.1,0.2-0.3,0.2-0.4c0-0.4,0.1-0.9,0.4-1.3c0.2-0.4,0.6-0.7,1-0.9
		s0.8-0.3,1.3-0.3c0.4,0,0.9,0.2,1.3,0.4c0.4,0.2,0.7,0.6,0.9,1c0.2,0.4,0.3,0.9,0.2,1.3s-0.2,0.9-0.5,1.2s-0.6,0.6-1,0.8
		c-0.5,0.2-0.9,0.5-1.2,1c-0.3,0.4-0.4,0.9-0.4,1.5v1.5c0,0.2,0.1,0.3,0.2,0.4c0.1,0.1,0.3,0.2,0.4,0.2c0.2,0,0.3-0.1,0.4-0.2
		c0.1-0.1,0.2-0.3,0.2-0.4v-1.5c0-0.3,0.1-0.5,0.2-0.8c0.1-0.2,0.3-0.4,0.6-0.5c0.6-0.3,1.2-0.7,1.6-1.2s0.6-1.2,0.7-1.8
		c0.1-0.7-0.1-1.3-0.3-2c-0.3-0.6-0.7-1.1-1.3-1.5c-0.6-0.4-1.2-0.6-1.9-0.6c-0.7,0-1.3,0.1-1.9,0.4c-0.6,0.3-1.1,0.8-1.4,1.4
		c-0.3,0.6-0.5,1.2-0.5,1.9c0,0.2,0.1,0.3,0.2,0.4C10.6,11.2,10.7,11.2,10.9,11.2z"/>
	<path class="st0" d="M14,17.8c-0.3,0-0.5-0.1-0.7-0.3c-0.2-0.2-0.3-0.4-0.3-0.7v-1.5c0-0.6,0.2-1.2,0.5-1.7
		c0.3-0.5,0.8-0.9,1.3-1.1c0.4-0.1,0.7-0.4,0.9-0.7c0.2-0.3,0.4-0.7,0.4-1c0-0.4,0-0.8-0.2-1.1c-0.2-0.3-0.4-0.6-0.7-0.8
		c-0.3-0.2-0.7-0.3-1.1-0.4c-0.4,0-0.8,0.1-1.1,0.2c-0.3,0.2-0.6,0.4-0.8,0.8c-0.2,0.3-0.3,0.7-0.3,1.1c0,0.3-0.1,0.5-0.3,0.7
		c-0.4,0.4-1,0.4-1.4,0c-0.2-0.2-0.3-0.4-0.3-0.7c0-0.7,0.2-1.5,0.6-2.1c0.4-0.6,0.9-1.2,1.6-1.5c0.7-0.3,1.4-0.5,2.1-0.5
		c0.7,0,1.5,0.3,2.1,0.7c0.6,0.4,1.1,1,1.4,1.7c0.3,0.7,0.4,1.4,0.4,2.1c-0.1,0.7-0.3,1.4-0.8,2c-0.4,0.6-1,1.1-1.7,1.3
		c-0.2,0.1-0.3,0.2-0.4,0.4S15,15.1,15,15.3v1.5c0,0.3-0.1,0.5-0.3,0.7C14.5,17.7,14.3,17.8,14,17.8z M14,7.8c0,0,0.1,0,0.1,0
		c0.5,0,1,0.2,1.4,0.5c0.4,0.3,0.8,0.7,1,1.2c0.2,0.5,0.3,1,0.3,1.5c-0.1,0.5-0.2,1-0.5,1.4c-0.3,0.4-0.7,0.7-1.2,0.9
		c-0.4,0.2-0.7,0.5-1,0.8c-0.2,0.4-0.4,0.8-0.4,1.2v1.5c0,0.1,0,0.1,0.1,0.2c0.1,0.1,0.3,0.1,0.3,0c0,0,0.1-0.1,0.1-0.2v-1.5
		c0-0.3,0.1-0.7,0.3-1c0.2-0.3,0.4-0.5,0.8-0.7c0.6-0.2,1.1-0.6,1.4-1.1c0.4-0.5,0.6-1.1,0.6-1.7c0.1-0.6,0-1.2-0.3-1.8
		c-0.3-0.5-0.7-1-1.2-1.3c-0.5-0.3-1.1-0.5-1.7-0.6c-0.6,0-1.2,0.1-1.7,0.4c-0.5,0.3-1,0.7-1.3,1.2c-0.3,0.5-0.5,1.1-0.5,1.7
		c0,0.1,0,0.1,0.1,0.2c0.1,0.1,0.3,0.1,0.3,0c0,0,0.1-0.1,0.1-0.2c0-0.5,0.1-1,0.4-1.5c0.3-0.4,0.6-0.8,1.1-1
		C13.1,7.9,13.5,7.8,14,7.8z"/>
</g>
<g>
	<path class="st0" d="M14,21.1c0.5,0,0.9-0.4,0.9-0.9c0-0.5-0.4-0.9-0.9-0.9c-0.5,0-0.9,0.4-0.9,0.9C13.1,20.7,13.5,21.1,14,21.1z"
		/>
	<path class="st0" d="M14,21.5c-0.7,0-1.3-0.6-1.3-1.3s0.6-1.3,1.3-1.3s1.3,0.6,1.3,1.3S14.7,21.5,14,21.5z M14,19.6
		c-0.3,0-0.6,0.2-0.6,0.6s0.2,0.6,0.6,0.6s0.6-0.2,0.6-0.6S14.3,19.6,14,19.6z"/>
</g>
</svg>
