<?xml version="1.0" encoding="utf-8"?>
<!-- Generator: Adobe Illustrator 25.4.1, SVG Export Plug-In . SVG Version: 6.00 Build 0)  -->
<svg version="1.1" id="Livello_1" xmlns="http://www.w3.org/2000/svg" xmlns:xlink="http://www.w3.org/1999/xlink" x="0px" y="0px"
	 viewBox="0 0 28.5 26.4" style="enable-background:new 0 0 28.5 26.4;" xml:space="preserve">
<style type="text/css">
	.st0{fill:#757373;}
</style>
<path class="st0" d="M27.3,10.1c-1-1.7-2.3-3.3-3.8-4.6l3.2-3.3c0.2-0.2,0.3-0.5,0.3-0.8c0-0.3-0.1-0.6-0.3-0.8
	c-0.2-0.2-0.5-0.3-0.8-0.3c-0.3,0-0.6,0.1-0.8,0.3l-3.5,3.6c-2.2-1.3-4.6-2-7.1-2c-7.1,0-11.1,5-12.8,8c-0.5,0.9-0.8,2-0.8,3.1
	s0.3,2.1,0.8,3.1c1,1.7,2.3,3.3,3.8,4.6l-3.2,3.3C2.1,24.3,2,24.4,2,24.6c-0.1,0.1-0.1,0.3-0.1,0.5s0,0.3,0.1,0.5
	c0.1,0.1,0.1,0.3,0.2,0.4c0.1,0.1,0.2,0.2,0.4,0.3c0.1,0.1,0.3,0.1,0.4,0.1s0.3,0,0.4-0.1C3.6,26,3.7,26,3.8,25.8l3.5-3.6
	c2.1,1.3,4.6,2,7.1,2c7.1,0,11.1-5,12.8-8c0.5-0.9,0.8-2,0.8-3.1S27.8,11.1,27.3,10.1z M3.5,15C3.2,14.5,3,13.8,3,13.2
	c0-0.6,0.2-1.3,0.5-1.8c1.5-2.6,5-6.9,10.9-6.9c1.9,0,3.8,0.5,5.4,1.4l-2.3,2.4c-1.1-0.8-2.4-1.1-3.7-1C12.5,7.4,11.3,8,10.4,9
	c-0.9,1-1.5,2.2-1.6,3.6c-0.1,1.4,0.2,2.7,0.9,3.9L7,19.2C5.6,18,4.4,16.6,3.5,15z M17.8,13.2c0,0.9-0.4,1.8-1,2.5
	c-0.6,0.7-1.5,1-2.4,1c-0.5,0-1-0.1-1.5-0.4l4.5-4.7C17.7,12.1,17.8,12.7,17.8,13.2z M11,13.2c0-0.9,0.4-1.8,1-2.5
	c0.6-0.7,1.5-1,2.4-1c0.5,0,1,0.1,1.5,0.4l-4.5,4.7C11.1,14.2,11,13.7,11,13.2z M25.3,15c-1.5,2.6-5,6.9-10.9,6.9
	c-1.9,0-3.8-0.5-5.4-1.4l2.3-2.4c1.1,0.8,2.4,1.1,3.7,1c1.3-0.1,2.5-0.7,3.5-1.7c0.9-1,1.5-2.2,1.6-3.6c0.1-1.4-0.2-2.7-0.9-3.9
	l2.6-2.7c1.4,1.2,2.6,2.6,3.5,4.2c0.3,0.5,0.5,1.2,0.5,1.8C25.8,13.8,25.6,14.5,25.3,15z"/>
</svg>
