<svg width="25" height="26" viewBox="0 0 25 26" fill="none" xmlns="http://www.w3.org/2000/svg">
<path d="M19.168 19.245C21.2279 17.2026 22.5103 14.3759 22.5103 11.2524C22.5062 5.04839 17.4605 0 11.2551 0C5.04839 0 0 5.04839 0 11.2551C0 17.4619 5.04839 22.5065 11.2513 22.5065C13.5879 22.5065 15.7572 21.791 17.5579 20.568L22.8036 26L24.2966 24.5583L19.168 19.245ZM2.07309 11.2551C2.07309 6.19326 6.19156 2.0734 11.2548 2.0734C16.3167 2.0734 20.4327 6.19326 20.4327 11.2551C20.4327 16.317 16.3129 20.433 11.2548 20.433C6.19537 20.433 2.07309 16.3146 2.07309 11.2551Z" fill="#74121D"/>
</svg>
