<?xml version="1.0" encoding="utf-8"?>
<!-- Generator: Adobe Illustrator 25.4.1, SVG Export Plug-In . SVG Version: 6.00 Build 0)  -->
<svg version="1.1" id="Livello_1" xmlns="http://www.w3.org/2000/svg" xmlns:xlink="http://www.w3.org/1999/xlink" x="0px" y="0px"
	 viewBox="0 0 23 28" style="enable-background:new 0 0 23 28;" xml:space="preserve">
<style type="text/css">
	.st0{fill:#74121D;}
</style>
<g>
	<path class="st0" d="M11.5,28c-0.2,0-0.5,0-0.7-0.1c-0.5-0.1-0.8-0.4-1.3-0.8C6.7,24.9,0,18.7,0,11.1c0-2.9,1.2-5.8,3.4-7.9
		C5.6,1.2,8.4,0,11.5,0c3.1,0,5.9,1.2,8.1,3.3c2.1,2.1,3.4,5,3.4,7.9c0,7.6-6.7,13.7-9.6,16c-0.4,0.4-0.8,0.6-1.3,0.8
		C12,28,11.7,28,11.5,28z M11.5,2C9,2,6.5,3,4.8,4.7C3,6.4,2,8.7,2,11.1c0,6.7,6.2,12.3,8.8,14.5c0.3,0.3,0.5,0.4,0.5,0.4
		c0.1,0,0.2,0,0.3,0c0.1,0,0.2-0.1,0.5-0.4c2.6-2.1,8.8-7.8,8.8-14.5c0-2.4-1-4.7-2.8-6.5C16.4,3,14,2,11.5,2z"/>
</g>
<g>
	<path class="st0" d="M11.5,13.7c-2.2,0-4-1.8-4-3.9s1.8-3.9,4-3.9c2.2,0,4,1.8,4,3.9S13.7,13.7,11.5,13.7z M11.5,7.9
		c-1.1,0-2,0.9-2,1.9s0.9,1.9,2,1.9c1.1,0,2-0.9,2-1.9S12.6,7.9,11.5,7.9z"/>
</g>
</svg>
