<?xml version="1.0" encoding="utf-8"?>
<!-- Generator: Adobe Illustrator 25.4.1, SVG Export Plug-In . SVG Version: 6.00 Build 0)  -->
<svg version="1.1" id="Livello_1" xmlns="http://www.w3.org/2000/svg" xmlns:xlink="http://www.w3.org/1999/xlink" x="0px" y="0px"
	 viewBox="0 0 32 26" style="enable-background:new 0 0 32 26;" xml:space="preserve">
<style type="text/css">
	.st0{fill:#74121D;}
</style>
<g>
	<path class="st0" d="M25.7,26H6.3c-2,0-3,0-4-0.5c-0.8-0.4-1.5-1.1-1.9-1.9C0,22.6,0,21.6,0,19.5v-13c0-2.1,0-3.1,0.5-4.1
		c0.4-0.8,1.1-1.5,1.9-1.9C3.3,0,4.3,0,6.3,0h19.3c2,0,3,0,4,0.5c0.8,0.4,1.5,1.1,1.9,1.9C32,3.4,32,4.4,32,6.5v13
		c0,2.1,0,3.1-0.5,4.1c-0.4,0.8-1.1,1.5-1.9,1.9C28.7,26,27.7,26,25.7,26z M2.2,3.6C2,4.1,2,5,2,6.5v13c0,1.7,0,2.6,0.3,3.2
		c0.2,0.5,0.6,0.8,1,1.1C3.8,24,4.7,24,6.3,24h19.3c1.6,0,2.5,0,3-0.3c0.4-0.2,0.8-0.6,1-1.1c0.3-0.5,0.3-1.5,0.3-3.2v-13
		c0-1.4,0-2.3-0.2-2.9c-3.6,2.7-10,7.8-10.1,7.8c-1.2,0.9-1.9,1.4-2.7,1.6c-0.7,0.2-1.5,0.2-2.2,0c-0.8-0.2-1.5-0.7-2.7-1.6L2.2,3.6
		z M3.6,2.1l9.9,7.7c1,0.7,1.5,1.2,2,1.3c0.4,0.1,0.8,0.1,1.2,0c0.4-0.1,1-0.5,2-1.3c0,0,6.2-4.9,9.9-7.7C27.9,2,27,2,25.7,2H6.3
		C5,2,4.1,2,3.6,2.1z"/>
</g>
</svg>
