<?xml version="1.0" encoding="utf-8"?>
<!-- Generator: Adobe Illustrator 25.4.1, SVG Export Plug-In . SVG Version: 6.00 Build 0)  -->
<svg version="1.1" id="Livello_1" xmlns="http://www.w3.org/2000/svg" xmlns:xlink="http://www.w3.org/1999/xlink" x="0px" y="0px"
	 viewBox="0 0 18 27" style="enable-background:new 0 0 18 27;" xml:space="preserve">
<style type="text/css">
	.st1{fill:#757373;}
</style>
<g>
	<path class="st1" d="M8.8,18.2c-1.4,0-2.7-0.5-3.6-1.5c-1-1-1.5-2.3-1.5-3.7V5.2c0-1.4,0.5-2.7,1.5-3.7l0,0c1-1,2.3-1.5,3.6-1.5
		c1.4,0,2.7,0.5,3.6,1.5c1,1,1.5,2.3,1.5,3.7v7.7c0,1.4-0.5,2.7-1.5,3.7C11.4,17.6,10.2,18.2,8.8,18.2z M8.8,1.7
		c-0.9,0-1.8,0.4-2.4,1c-0.6,0.7-1,1.5-1,2.5v7.7c0,0.9,0.4,1.8,1,2.5c1.3,1.3,3.5,1.3,4.8,0l0,0c0.6-0.7,1-1.5,1-2.5V5.2
		c0-0.9-0.4-1.8-1-2.5S9.7,1.7,8.8,1.7z"/>
</g>
<g>
	<path class="st1" d="M8.4,21.6v-0.5l-0.5,0c-4.2-0.4-7.5-4-7.5-8.4h0l0,0c0-0.1,0-0.1,0-0.1c0,0,0-0.1,0.1-0.1c0,0,0.1-0.1,0.1-0.1
		c0,0,0.1,0,0.1,0c0,0,0.1,0,0.1,0l0.2-0.4L1,12.3c0,0,0.1,0,0.1,0.1c0,0,0.1,0.1,0.1,0.1c0,0,0,0.1,0,0.1h0v0
		c0,4.3,3.4,7.7,7.6,7.7c4.2,0,7.6-3.5,7.6-7.7h0l0,0c0-0.1,0-0.1,0-0.1c0,0,0-0.1,0.1-0.1c0,0,0.1-0.1,0.1-0.1c0,0,0.1,0,0.1,0
		s0.1,0,0.1,0c0,0,0.1,0,0.1,0.1l0.4-0.3L17,12.4c0,0,0.1,0.1,0.1,0.1c0,0,0,0.1,0,0.1h0v0c0,4.4-3.3,8-7.5,8.4l-0.5,0v0.5v3.6v0.5
		h0.5h3.4c0.1,0,0.2,0,0.2,0.1c0.1,0.1,0.1,0.2,0.1,0.3c0,0.1,0,0.2-0.1,0.3c-0.1,0.1-0.1,0.1-0.2,0.1H4.5c-0.1,0-0.2,0-0.2-0.1
		c-0.1-0.1-0.1-0.2-0.1-0.3c0-0.1,0-0.2,0.1-0.3c0.1-0.1,0.1-0.1,0.2-0.1h3.4h0.5v-0.5V21.6z"/>
	<path class="st1" d="M4.5,27c-0.2,0-0.4-0.1-0.6-0.3c-0.2-0.2-0.2-0.4-0.2-0.6s0.1-0.4,0.2-0.6c0.2-0.2,0.4-0.3,0.6-0.3l3.4,0
		l0-3.6C3.4,21.2,0,17.3,0,12.7c0-0.1,0-0.2,0.1-0.3c0-0.1,0.1-0.2,0.2-0.3c0.1-0.1,0.2-0.2,0.3-0.2c0,0,0.1,0,0.1,0l0-0.1l0.2,0.1
		c0.1,0,0.2,0,0.3,0.1l0,0.1l0-0.1c0.1,0,0.2,0.1,0.3,0.2l0.2,0.1l0,0.1c0,0,0,0.1,0.1,0.1c0,0.1,0.1,0.2,0.1,0.3
		c0,4,3.2,7.2,7.1,7.2c3.9,0,7.1-3.2,7.1-7.2c0-0.1,0-0.2,0.1-0.3c0-0.1,0.1-0.2,0.2-0.3c0.1-0.1,0.2-0.1,0.3-0.2
		c0.2-0.1,0.3-0.1,0.5-0.1l0.1-0.1l0.3,0.3c0,0,0,0,0,0c0,0,0,0,0,0l0.3,0.3l-0.1,0.1c0,0.1,0,0.1,0,0.2c0,4.6-3.4,8.5-7.9,8.9v3.6
		h3.4c0.2,0,0.4,0.1,0.6,0.3c0.2,0.2,0.2,0.4,0.2,0.6s-0.1,0.4-0.2,0.6c-0.2,0.2-0.4,0.3-0.6,0.3H4.5z"/>
</g>
</svg>
