<?xml version="1.0" encoding="utf-8"?>
<!-- Generator: Adobe Illustrator 25.4.1, SVG Export Plug-In . SVG Version: 6.00 Build 0)  -->
<svg version="1.1" id="Livello_1" xmlns="http://www.w3.org/2000/svg" xmlns:xlink="http://www.w3.org/1999/xlink" x="0px" y="0px"
	 viewBox="0 0 20 28" style="enable-background:new 0 0 20 28;" xml:space="preserve">
<style type="text/css">
	.st0{fill:#74121D;}
</style>
<g>
	<path class="st0" d="M3.9,1C2.3,1,1,2.3,1,3.9v22.3c0,0.5,0.6,0.9,1.1,0.7l1.4-0.7c0.1,0,0.1,0,0.2,0l1.4,0.7
		c0.4,0.2,0.8,0.2,1.1,0l1.4-0.7c0.1,0,0.1,0,0.2,0l1.4,0.7c0.4,0.2,0.8,0.2,1.1,0l1.4-0.7c0.1,0,0.1,0,0.2,0l1.4,0.7
		c0.4,0.2,0.8,0.2,1.1,0l1.4-0.7c0.1,0,0.1,0,0.2,0l1.4,0.7c0.5,0.2,1.1-0.1,1.1-0.7V6.9c0,0,0,0,0,0c0-0.1,0-0.2-0.1-0.2
		c0,0,0,0,0,0c0,0,0-0.1-0.1-0.1l-5.4-5.4c0,0,0,0,0,0c0,0-0.2-0.1-0.3-0.1L3.9,1z M3.9,2h8.6v3.5c0,1.1,0.9,1.9,1.9,1.9h3.5v18.3
		l-1-0.5c-0.4-0.2-0.8-0.2-1.1,0l-1.4,0.7c-0.1,0-0.1,0-0.2,0l-1.4-0.7c-0.4-0.2-0.8-0.2-1.1,0l-1.4,0.7c-0.1,0-0.1,0-0.2,0
		l-1.4-0.7c-0.4-0.2-0.8-0.2-1.1,0l-1.4,0.7c-0.1,0-0.1,0-0.2,0l-1.4-0.7c-0.4-0.2-0.8-0.2-1.1,0l-1,0.5L2,3.9C2,2.9,2.9,2.1,3.9,2
		L3.9,2z M13.5,2.8l3.6,3.6h-2.7c-0.5,0-0.9-0.4-0.9-0.9V2.8z M5.3,5.6C5,5.6,4.7,5.9,4.7,6.2c0,0.3,0.2,0.5,0.5,0.5h4.6
		c0.3,0,0.5-0.2,0.5-0.5s-0.2-0.5-0.5-0.5H5.3z M5.3,10c-0.3,0-0.5,0.2-0.5,0.5c0,0.3,0.2,0.5,0.5,0.5h9.4c0.3,0,0.5-0.2,0.5-0.5
		c0-0.3-0.2-0.5-0.5-0.5H5.3z M5.3,14.4c-0.3,0-0.5,0.2-0.5,0.5c0,0.3,0.2,0.5,0.5,0.5h9.4c0.3,0,0.5-0.2,0.5-0.5
		c0-0.3-0.2-0.5-0.5-0.5H5.3z M5.3,18.7c-0.3,0-0.5,0.2-0.5,0.5c0,0.3,0.2,0.5,0.5,0.5h9.4c0.3,0,0.5-0.2,0.5-0.5
		c0-0.3-0.2-0.5-0.5-0.5H5.3z"/>
	<path class="st0" d="M5.7,27.1c-0.2,0-0.4,0-0.6-0.1l-1.4-0.7c0,0-0.1,0-0.1,0L2.1,27c-0.3,0.1-0.6,0.1-0.8-0.1
		c-0.3-0.2-0.4-0.4-0.4-0.7V3.9c0-1.7,1.3-3,3-3l9.1,0c0.3,0,0.4,0.1,0.4,0.2l0,0l5.4,5.4c0,0,0.1,0.1,0.1,0.1C19,6.7,19,6.8,19,6.9
		l0,0v19.2c0,0.3-0.2,0.6-0.4,0.7c-0.3,0.2-0.6,0.2-0.9,0.1l-1.4-0.7c0,0-0.1,0-0.1,0L14.8,27c-0.4,0.2-0.9,0.2-1.2,0l-1.4-0.7
		c0,0-0.1,0-0.1,0L10.6,27c-0.4,0.2-0.9,0.2-1.2,0l-1.4-0.7c0,0-0.1,0-0.1,0L6.4,27C6.2,27.1,6,27.1,5.7,27.1z M12.1,26
		c0.1,0,0.1,0,0.2,0l1.4,0.7c0.3,0.2,0.7,0.2,1,0l1.4-0.7c0.1,0,0.2,0,0.3,0l1.4,0.7c0.2,0.1,0.4,0.1,0.6,0s0.3-0.3,0.3-0.5l0-19.3
		c0-0.1,0-0.1,0-0.2c0,0,0-0.1-0.1-0.1l-5.4-5.4c0,0-0.1-0.1-0.3-0.1l-9.1,0c-1.5,0-2.7,1.2-2.7,2.7v22.3c0,0.2,0.1,0.4,0.3,0.5
		c0.2,0.1,0.4,0.1,0.6,0L3.5,26c0.1,0,0.2,0,0.3,0l1.4,0.7c0.3,0.2,0.7,0.2,1,0L7.7,26c0.1,0,0.2,0,0.3,0l1.4,0.7
		c0.3,0.2,0.7,0.2,1,0l1.4-0.7C11.9,26,12,26,12.1,26z M14.2,26.1c-0.1,0-0.1,0-0.2,0l-1.4-0.7c-0.3-0.2-0.7-0.2-1,0L10.1,26
		c-0.1,0-0.2,0-0.3,0l-1.4-0.7c-0.3-0.2-0.7-0.2-1,0L5.9,26c-0.1,0-0.2,0-0.3,0l-1.4-0.7c-0.3-0.2-0.7-0.2-1,0l-1.2,0.6l0-22
		c0-1,0.8-1.9,1.8-1.9v0l0.1,0h8.7v3.6c0,1,0.8,1.8,1.8,1.8H18v18.6l-1.2-0.6c-0.3-0.2-0.7-0.2-1,0L14.3,26
		C14.3,26.1,14.2,26.1,14.2,26.1z M3.6,25c0.2,0,0.4,0,0.6,0.1l1.4,0.7c0,0,0.1,0,0.1,0l1.4-0.7c0.4-0.2,0.8-0.2,1.2,0l1.4,0.7
		c0,0,0.1,0,0.1,0l1.4-0.7c0.4-0.2,0.9-0.2,1.2,0l1.4,0.7c0,0,0.1,0,0.1,0l1.4-0.7c0.4-0.2,0.9-0.2,1.2,0l0.8,0.4V7.6h-3.4
		c-1.1,0-2.1-0.9-2.1-2.1V2.2l-8.4,0c-1,0-1.7,0.7-1.7,1.7l0,21.6L3,25.1C3.2,25,3.4,25,3.6,25z M14.6,19.9H5.3
		c-0.2,0-0.3-0.1-0.5-0.2c-0.1-0.1-0.2-0.3-0.2-0.5c0-0.4,0.3-0.6,0.6-0.6h9.4c0.4,0,0.6,0.3,0.6,0.6c0,0.2-0.1,0.3-0.2,0.5
		C15,19.8,14.8,19.9,14.6,19.9z M5.3,18.9c-0.2,0-0.4,0.2-0.4,0.4c0,0.1,0,0.2,0.1,0.3c0.1,0.1,0.2,0.1,0.3,0.1h9.4
		c0.1,0,0.2,0,0.3-0.1s0.1-0.2,0.1-0.3c0-0.2-0.2-0.4-0.4-0.4H5.3z M14.6,15.5H5.3c-0.2,0-0.3-0.1-0.5-0.2c-0.1-0.1-0.2-0.3-0.2-0.5
		c0-0.4,0.3-0.6,0.6-0.6h9.4c0.4,0,0.6,0.3,0.6,0.6c0,0.2-0.1,0.3-0.2,0.5C15,15.5,14.8,15.5,14.6,15.5z M5.3,14.5
		c-0.2,0-0.4,0.2-0.4,0.4c0,0.1,0,0.2,0.1,0.3s0.2,0.1,0.3,0.1h9.4c0.1,0,0.2,0,0.3-0.1S15,15,15,14.9c0-0.2-0.2-0.4-0.4-0.4H5.3z
		 M14.6,11.2H5.3c-0.4,0-0.6-0.3-0.6-0.6c0-0.4,0.3-0.6,0.6-0.6h9.4c0.4,0,0.6,0.3,0.6,0.6C15.3,10.9,15,11.2,14.6,11.2z M5.3,10.1
		c-0.2,0-0.4,0.2-0.4,0.4c0,0.2,0.2,0.4,0.4,0.4h9.4c0.2,0,0.4-0.2,0.4-0.4c0-0.2-0.2-0.4-0.4-0.4H5.3z M9.9,6.8H5.3
		c-0.4,0-0.6-0.3-0.6-0.6c0-0.4,0.3-0.6,0.6-0.6h4.6c0.4,0,0.6,0.3,0.6,0.6C10.5,6.5,10.3,6.8,9.9,6.8z M9.9,5.8H5.3
		c-0.2,0-0.4,0.2-0.4,0.4c0,0.2,0.2,0.4,0.4,0.4h4.6c0.2,0,0.4-0.2,0.4-0.4C10.3,5.9,10.1,5.8,9.9,5.8z M17.4,6.5h-3
		c-0.6,0-1-0.5-1-1v-3L17.4,6.5z M13.6,3.1v2.4c0,0.4,0.3,0.8,0.8,0.8h2.4L13.6,3.1z"/>
</g>
</svg>
