<?xml version="1.0" encoding="utf-8"?>
<!-- Generator: Adobe Illustrator 25.4.1, SVG Export Plug-In . SVG Version: 6.00 Build 0)  -->
<svg version="1.1" id="Livello_1" xmlns="http://www.w3.org/2000/svg" xmlns:xlink="http://www.w3.org/1999/xlink" x="0px" y="0px"
	 viewBox="0 0 34 28" style="enable-background:new 0 0 34 28;" xml:space="preserve">
<style type="text/css">
	.st0{fill:#74121D;}
</style>
<g>
	<path class="st0" d="M4,27.8c-0.1,0-0.3,0-0.4-0.1l-3-2c-0.3-0.2-0.4-0.7-0.2-1s0.7-0.4,1-0.2L3.9,26l4.6-5.5
		c0.3-0.3,0.7-0.4,1.1-0.1s0.4,0.7,0.1,1.1l-5,6C4.4,27.7,4.2,27.8,4,27.8z M33,25.8H15c-0.4,0-0.8-0.3-0.8-0.8s0.3-0.8,0.8-0.8h18
		c0.4,0,0.8,0.3,0.8,0.8S33.4,25.8,33,25.8z M4,17.8c-0.1,0-0.3,0-0.4-0.1l-3-2c-0.3-0.2-0.4-0.7-0.2-1c0.2-0.3,0.7-0.4,1-0.2
		L3.9,16l4.6-5.5c0.3-0.3,0.7-0.4,1.1-0.1c0.3,0.3,0.4,0.7,0.1,1.1l-5,6C4.4,17.7,4.2,17.8,4,17.8z M33,15.8H15
		c-0.4,0-0.8-0.3-0.8-0.8s0.3-0.8,0.8-0.8h18c0.4,0,0.8,0.3,0.8,0.8S33.4,15.8,33,15.8z M4,7.8c-0.1,0-0.3,0-0.4-0.1l-3-2
		c-0.3-0.2-0.4-0.7-0.2-1s0.7-0.4,1-0.2L3.9,6l4.6-5.5c0.3-0.3,0.7-0.4,1.1-0.1c0.3,0.3,0.4,0.7,0.1,1.1l-5,6C4.4,7.7,4.2,7.8,4,7.8
		z M33,5.8H15c-0.4,0-0.8-0.3-0.8-0.8s0.3-0.8,0.8-0.8h18c0.4,0,0.8,0.3,0.8,0.8S33.4,5.8,33,5.8z"/>
</g>
</svg>
