<?xml version="1.0" encoding="utf-8"?>
<!-- Generator: Adobe Illustrator 25.4.1, SVG Export Plug-In . SVG Version: 6.00 Build 0)  -->
<svg version="1.1" id="Livello_1" xmlns="http://www.w3.org/2000/svg" xmlns:xlink="http://www.w3.org/1999/xlink" x="0px" y="0px"
	 viewBox="0 0 28 28" style="enable-background:new 0 0 28 28;" xml:space="preserve">
<style type="text/css">
	.st0{fill:#74121D;}
</style>
<g>
	<path class="st0" d="M24.3,28C10.9,28,0,17.1,0,3.7C0,1.7,1.7,0,3.7,0h4c1.6,0,3,1,3.6,2.4l1.5,3.8c0.5,1.3,0.3,2.8-0.6,3.9l-0.8,1
		c-0.6,0.8-0.6,1.8,0.1,2.5l2.8,2.8c0.7,0.7,1.8,0.7,2.5,0.1l1-0.8c1.1-0.9,2.6-1.2,3.9-0.6l3.8,1.5c1.5,0.6,2.4,2,2.4,3.6l0,4
		C28,26.3,26.3,28,24.3,28z M3.7,2C2.8,2,2,2.8,2,3.7C2,16,12,26,24.3,26c1,0,1.7-0.8,1.7-1.7l0-4c0-0.8-0.5-1.5-1.2-1.8L21,17
		c-0.6-0.3-1.4-0.1-1.9,0.3l-1,0.8c-1.6,1.3-3.8,1.2-5.2-0.2l-2.8-2.8c-1.4-1.4-1.5-3.7-0.2-5.2l0.8-1C11.1,8.4,11.2,7.6,11,7
		L9.5,3.2c0,0,0,0,0,0C9.2,2.5,8.5,2,7.7,2H3.7z"/>
</g>
</svg>
