<?xml version="1.0" encoding="utf-8"?>
<!-- Generator: Adobe Illustrator 25.4.1, SVG Export Plug-In . SVG Version: 6.00 Build 0)  -->
<svg version="1.1" id="Livello_1" xmlns="http://www.w3.org/2000/svg" xmlns:xlink="http://www.w3.org/1999/xlink" x="0px" y="0px"
	 viewBox="0 0 30 28" style="enable-background:new 0 0 30 28;" xml:space="preserve">
<style type="text/css">
	.st0{fill:#74121D;}
</style>
<g>
	<path class="st0" d="M15.7,28c-0.5,0-0.9-0.1-1.4-0.2c-1-0.3-1.8-1-3.2-2.4L2,17c-0.7-0.7-1.1-1-1.4-1.5c-0.3-0.4-0.5-0.9-0.5-1.4
		c-0.1-0.6-0.1-1.1,0-2l0.6-5.9c0,0,0,0,0,0l0,0c0.2-1.6,0.2-2.5,0.7-3.3c0.4-0.7,1-1.3,1.8-1.6C4,0.8,4.9,0.8,6.6,0.6L13,0.1
		c1-0.1,1.6-0.1,2.1,0c0.5,0.1,1,0.2,1.5,0.5c0.5,0.3,0.9,0.6,1.6,1.3l9,8.4c1.5,1.4,2.2,2.1,2.6,3.1c0.3,0.9,0.3,1.8,0,2.7
		c-0.3,1-1.1,1.7-2.6,3.1l-6.9,6.4c-1.4,1.3-2.2,2.1-3.3,2.4C16.6,27.9,16.1,28,15.7,28z M14.4,2c-0.3,0-0.7,0-1.3,0.1L6.8,2.6
		C5.3,2.7,4.5,2.8,4.1,3.1c-0.4,0.2-0.7,0.5-1,0.9C2.9,4.3,2.8,5.1,2.7,6.4c0,0,0,0,0,0l-0.6,5.9C2,13.1,2,13.5,2,13.8
		c0,0.3,0.1,0.5,0.3,0.7c0.2,0.3,0.5,0.5,1.1,1.1l9,8.4c1.2,1.1,1.9,1.8,2.5,1.9c0.5,0.2,1.1,0.2,1.6,0c0.6-0.2,1.3-0.8,2.5-1.9
		l6.9-6.4c1.2-1.1,1.9-1.8,2.1-2.3c0.2-0.4,0.2-0.9,0-1.3c-0.2-0.5-0.8-1.1-2.1-2.3l-9-8.4c-0.7-0.6-0.9-0.9-1.2-1
		c-0.3-0.1-0.5-0.2-0.8-0.3C14.7,2,14.5,2,14.4,2z"/>
</g>
<g>
	<path class="st0" d="M9.1,11.1c-0.7,0-1.4-0.2-1.9-0.7C6.6,9.9,6.3,9.2,6.3,8.5c0-0.7,0.3-1.4,0.8-1.9c1.1-1,2.8-1,3.8,0
		c0.5,0.5,0.8,1.2,0.8,1.9c0,0.7-0.3,1.4-0.8,1.9c0,0,0,0,0,0C10.5,10.9,9.8,11.1,9.1,11.1z M10.3,9.7L10.3,9.7L10.3,9.7z M9.1,7.9
		C8.9,7.9,8.7,8,8.5,8.1C8.4,8.2,8.3,8.4,8.3,8.5s0,0.3,0.2,0.4c0.3,0.3,0.8,0.3,1.1,0c0.2-0.1,0.2-0.3,0.2-0.4c0-0.1,0-0.3-0.2-0.4
		C9.5,8,9.3,7.9,9.1,7.9z"/>
</g>
</svg>
