<svg width="27" height="29" viewBox="0 0 27 29" fill="none" xmlns="http://www.w3.org/2000/svg">
<path d="M0.00453157 7.61287V17.274C0.00453157 20.0518 1.50445 22.6302 3.91519 24.0032L9.3167 27.0755C11.6459 28.3987 14.6412 28.3987 16.9704 27.0755L22.3719 24.0032C24.7871 22.6302 26.2825 20.0518 26.2825 17.274V7.61287C26.2825 5.5148 24.9548 3.62971 22.9836 2.9228L16.413 0.566434C15.3572 0.18579 14.2515 0 13.1413 0C12.0311 0 10.9254 0.190322 9.86954 0.566434L3.29891 2.9228C1.32319 3.62971 0 5.5148 0 7.61287H0.00453157ZM2.15907 7.60834C2.15907 6.65673 3.3261 5.386 4.22333 5.05974L10.794 2.69884C12.3075 2.15506 13.9841 2.15506 15.4976 2.69884L22.0683 5.0552C22.9655 5.37694 24.2896 6.6522 24.2896 7.60834V17.2694C24.2896 19.073 22.5939 21.3049 21.0306 22.1931L15.629 25.2654C14.8768 25.6959 14.0113 25.9089 13.1458 25.9089C12.2803 25.9089 11.4193 25.6959 10.6626 25.2654L5.26104 22.1931C3.69768 21.3004 2.15907 19.0684 2.15907 17.2694V7.60834Z" fill="#74121D"/>
<path d="M0.00453157 7.61287V17.274C0.00453157 20.0518 1.50445 22.6302 3.91519 24.0032L9.3167 27.0755C11.6459 28.3987 14.6412 28.3987 16.9704 27.0755L22.3719 24.0032C24.7871 22.6302 26.2825 20.0518 26.2825 17.274V7.61287C26.2825 5.5148 24.9548 3.62971 22.9836 2.9228L16.413 0.566434C15.3572 0.18579 14.2515 0 13.1413 0C12.0311 0 10.9254 0.190322 9.86954 0.566434L3.29891 2.9228C1.32319 3.62971 0 5.5148 0 7.61287H0.00453157ZM2.15907 7.60834C2.15907 6.65673 3.3261 5.386 4.22333 5.05974L10.794 2.69884C12.3075 2.15506 13.9841 2.15506 15.4976 2.69884L22.0683 5.0552C22.9655 5.37694 24.2896 6.6522 24.2896 7.60834V17.2694C24.2896 19.073 22.5939 21.3049 21.0306 22.1931L15.629 25.2654C14.8768 25.6959 14.0113 25.9089 13.1458 25.9089C12.2803 25.9089 11.4193 25.6959 10.6626 25.2654L5.26104 22.1931C3.69768 21.3004 2.15907 19.0684 2.15907 17.2694V7.60834Z" stroke="#74121D"/>
<path d="M13.1455 20.3869C13.8932 20.3869 14.5049 19.7752 14.5049 19.0275V14.9492C14.5049 14.2015 13.8932 13.5897 13.1455 13.5897C12.3978 13.5897 11.786 14.2015 11.786 14.9492V19.0275C11.786 19.7752 12.3978 20.3869 13.1455 20.3869Z" fill="#74121D"/>
<path d="M13.1455 20.3869C13.8932 20.3869 14.5049 19.7752 14.5049 19.0275V14.9492C14.5049 14.2015 13.8932 13.5897 13.1455 13.5897C12.3978 13.5897 11.786 14.2015 11.786 14.9492V19.0275C11.786 19.7752 12.3978 20.3869 13.1455 20.3869Z" stroke="#74121D"/>
<path d="M13.1455 9.96473C13.8963 9.96473 14.5049 9.35609 14.5049 8.60529C14.5049 7.85449 13.8963 7.24585 13.1455 7.24585C12.3947 7.24585 11.786 7.85449 11.786 8.60529C11.786 9.35609 12.3947 9.96473 13.1455 9.96473Z" fill="#74121D"/>
<path d="M13.1455 9.96473C13.8963 9.96473 14.5049 9.35609 14.5049 8.60529C14.5049 7.85449 13.8963 7.24585 13.1455 7.24585C12.3947 7.24585 11.786 7.85449 11.786 8.60529C11.786 9.35609 12.3947 9.96473 13.1455 9.96473Z" stroke="#74121D"/>
</svg>
