<?xml version="1.0" encoding="utf-8"?>
<!-- Generator: Adobe Illustrator 25.4.1, SVG Export Plug-In . SVG Version: 6.00 Build 0)  -->
<svg version="1.1" id="Livello_1" xmlns="http://www.w3.org/2000/svg" xmlns:xlink="http://www.w3.org/1999/xlink" x="0px" y="0px"
	 viewBox="0 0 33 28" style="enable-background:new 0 0 33 28;" xml:space="preserve">
<style type="text/css">
	.st0{fill:#74121D;}
</style>
<g>
	<path class="st0" d="M25.3,27.8c-0.4,0-0.8-0.3-0.8-0.8c0-2.4-3.6-4.5-7.9-4.5s-7.9,2-7.9,4.5c0,0.4-0.3,0.8-0.8,0.8
		S7.2,27.4,7.2,27c0-3.3,4.1-6,9.4-6s9.4,2.6,9.4,6C26,27.4,25.7,27.8,25.3,27.8z M32.2,22.6c-0.4,0-0.8-0.3-0.8-0.8
		c0-1.7-1.9-3.3-4.6-4c-0.4-0.1-0.6-0.5-0.5-0.9c0.1-0.4,0.5-0.6,0.9-0.5c3.5,0.9,5.8,3.1,5.8,5.5C33,22.2,32.6,22.6,32.2,22.6z
		 M1,22.6c-0.4,0-0.8-0.3-0.8-0.8c0-2.4,2.3-4.6,5.8-5.5c0.4-0.1,0.8,0.1,0.9,0.5s-0.1,0.8-0.5,0.9c-2.8,0.7-4.6,2.4-4.6,4
		C1.8,22.2,1.4,22.6,1,22.6z M16.6,17.3c-3.3,0-6-2.7-6-5.9s2.7-5.9,6-5.9s5.9,2.7,5.9,5.9S19.9,17.3,16.6,17.3z M16.6,7
		c-2.5,0-4.5,2-4.5,4.4s2,4.4,4.5,4.4s4.4-2,4.4-4.4S19.1,7,16.6,7z M6.2,10.8c-0.2,0-0.4-0.1-0.5-0.2c-1.3-1.1-2-2.7-2-4.4
		c0-3.3,2.7-6,5.9-6c1.5,0,2.9,0.5,4,1.5C13.9,2,14,2.5,13.7,2.8c-0.3,0.3-0.7,0.3-1.1,0.1c-0.8-0.7-1.9-1.1-3-1.1
		c-2.5,0-4.4,2-4.4,4.5c0,1.3,0.5,2.5,1.5,3.3C7,9.8,7,10.3,6.8,10.6C6.6,10.7,6.4,10.8,6.2,10.8z M27,10.8c-0.2,0-0.4-0.1-0.6-0.2
		c-0.3-0.3-0.2-0.8,0.1-1.1C27.4,8.7,28,7.5,28,6.2c0-2.5-2-4.5-4.5-4.5c-1.1,0-2.2,0.4-3,1.1c-0.3,0.3-0.8,0.3-1.1-0.1
		c-0.3-0.3-0.2-0.8,0.1-1.1c1.1-1,2.5-1.5,4-1.5c3.3,0,6,2.7,6,6c0,1.7-0.7,3.3-2,4.4C27.4,10.8,27.2,10.8,27,10.8z"/>
</g>
</svg>
