<svg width="28" height="28" viewBox="0 0 28 28" fill="none" xmlns="http://www.w3.org/2000/svg">
<path d="M14.0034 0C6.28152 0 0 6.2748 0 13.9966C0 17.7142 1.45578 21.0983 3.82816 23.6074C6.38316 26.31 9.99908 28 14.0034 28C21.7252 28 28 21.7185 28 13.9966C28 6.2748 21.7252 0 14.0034 0ZM14.0034 1.75C20.7791 1.75 26.25 7.22092 26.25 13.9966C26.25 16.6774 25.3925 19.1537 23.9378 21.1694C22.8856 18.202 20.5033 15.8603 17.4945 14.8235C18.9065 13.7593 19.822 12.0694 19.822 10.173C19.822 6.96836 17.2068 4.34644 14.0033 4.34644C10.7987 4.34644 8.18236 6.96816 8.18236 10.173C8.18236 12.0695 9.1 13.7595 10.512 14.8235C7.50204 15.8593 5.11448 18.2 4.06112 21.1672C2.60644 19.1525 1.75003 16.6762 1.75003 13.9966C1.75003 7.22092 7.22736 1.75 14.0034 1.75ZM14.0034 6.09756C16.262 6.09756 18.072 7.91538 18.072 10.1741C18.072 12.4327 16.2619 14.2428 14.0034 14.2428C11.7448 14.2428 9.93244 12.4326 9.93244 10.1741C9.93244 7.91549 11.7448 6.09756 14.0034 6.09756ZM14.0034 15.9928C18.2406 15.9928 21.7252 18.8824 22.5772 22.7522C20.3701 24.9168 17.3457 26.25 14.0034 26.25C10.6618 26.25 7.63672 24.9178 5.42724 22.7556C6.27819 18.8849 9.76388 15.9928 14.0034 15.9928Z" fill="#74121D"/>
</svg>
