<?xml version="1.0" encoding="utf-8"?>
<!-- Generator: Adobe Illustrator 25.4.1, SVG Export Plug-In . SVG Version: 6.00 Build 0)  -->
<svg version="1.1" id="Livello_1" xmlns="http://www.w3.org/2000/svg" xmlns:xlink="http://www.w3.org/1999/xlink" x="0px" y="0px"
	 viewBox="0 0 28 27" style="enable-background:new 0 0 28 27;" xml:space="preserve">
<style type="text/css">
	.st0{fill:#74121D;}
</style>
<g>
	<path class="st0" d="M21.6,26.8c-0.3,0-0.6-0.1-0.8-0.2L14,22.8l-6.8,3.8c-0.6,0.3-1.3,0.3-1.8-0.1c-0.5-0.4-0.8-1-0.7-1.7l1.5-7.7
		l-5.7-5.3c-0.5-0.4-0.7-1.1-0.5-1.7C0.3,9.5,0.8,9.1,1.5,9l7.8-0.9L12.5,1c0.3-0.6,0.9-1,1.5-1c0.7,0,1.2,0.4,1.5,1l3.3,7.1L26.5,9
		c0.7,0.1,1.2,0.5,1.4,1.1c0.2,0.6,0,1.3-0.5,1.7l-5.7,5.3l1.5,7.7c0.1,0.6-0.1,1.3-0.7,1.7C22.3,26.7,22,26.8,21.6,26.8z M14,20.7
		c0.3,0,0.6,0.1,0.8,0.2l6.3,3.6l-1.4-7.1c-0.1-0.6,0.1-1.2,0.5-1.5l5.3-4.9L18.4,10c-0.6-0.1-1.1-0.4-1.3-1l-3-6.6l-3,6.6
		c-0.2,0.5-0.7,0.9-1.3,1l-7.2,0.9l5.3,4.9c0.4,0.4,0.6,1,0.5,1.5l-1.4,7.1l6.3-3.6C13.4,20.8,13.7,20.7,14,20.7z M1.9,10.4
		L1.9,10.4C1.9,10.4,1.9,10.4,1.9,10.4z"/>
</g>
</svg>
