<?xml version="1.0" encoding="utf-8"?>
<!-- Generator: Adobe Illustrator 25.4.1, SVG Export Plug-In . SVG Version: 6.00 Build 0)  -->
<svg version="1.1" id="Livello_1" xmlns="http://www.w3.org/2000/svg" xmlns:xlink="http://www.w3.org/1999/xlink" x="0px" y="0px"
	 viewBox="0 0 30 28" style="enable-background:new 0 0 30 28;" xml:space="preserve">
<style type="text/css">
	.st0{fill:#74121D;}
</style>
<g>
	<path class="st0" d="M19.1,27.8c-0.3,0-0.5,0-0.8-0.1c-0.6-0.1-1-0.4-1.9-0.9l-0.6-0.4c-0.3-0.2-0.6-0.2-0.9-0.3l-0.2,0l-0.2,0
		c-0.3,0-0.6,0.1-0.9,0.3l-0.6,0.4c-0.8,0.5-1.3,0.8-1.9,0.9c-0.5,0.1-1,0.1-1.5,0c-0.5-0.1-1-0.4-1.9-0.9l-0.7-0.4
		c-0.9-0.5-1.3-0.8-1.7-1.2c-0.3-0.4-0.6-0.8-0.7-1.3c-0.2-0.5-0.2-1.1-0.1-2.1l0-0.7c0-0.3-0.1-0.6-0.2-0.9l-0.2-0.3
		c-0.2-0.3-0.4-0.5-0.7-0.7c0,0-0.1-0.1-0.1-0.1l-0.5-0.3c-0.9-0.5-1.3-0.7-1.7-1.2c-0.3-0.4-0.6-0.8-0.7-1.3
		c-0.2-0.5-0.2-1.1-0.2-2.1l0-0.8c0-1,0-1.5,0.2-2.1c0.2-0.5,0.4-0.9,0.8-1.3C1.6,9.8,2,9.6,2.9,9.1l0.6-0.4
		c0.3-0.2,0.5-0.4,0.7-0.7c0,0,0.1-0.1,0.1-0.1l0.1-0.1c0.1-0.3,0.2-0.6,0.2-0.9l0-0.7c0-1,0-1.5,0.1-2.1c0.1-0.5,0.4-0.9,0.7-1.3
		c0.4-0.4,0.8-0.7,1.7-1.2l0.7-0.4c0.9-0.5,1.3-0.8,1.9-0.9c0.5-0.1,1-0.1,1.5,0c0.6,0.1,1,0.4,1.9,0.9l0.5,0.3c0,0,0.1,0.1,0.1,0.1
		c0.3,0.2,0.6,0.2,0.9,0.3l0.2,0l0.2,0c0.3,0,0.6-0.1,0.9-0.3l0.6-0.4c0.9-0.5,1.3-0.8,1.9-0.9c0.5-0.1,1-0.1,1.5,0
		c0.6,0.1,1,0.4,1.9,0.9l0.7,0.4c0.9,0.5,1.3,0.8,1.7,1.2c0.3,0.4,0.6,0.8,0.7,1.3C25,4.6,25,5.2,25,6.2l0,0.7
		c0,0.3,0.1,0.6,0.2,0.9l0.1,0.1l-0.6,0.5l0.6-0.4c0.2,0.3,0.4,0.5,0.7,0.7l0.6,0.4l0,0c0.9,0.5,1.3,0.7,1.7,1.2
		c0.3,0.4,0.6,0.8,0.8,1.3c0.2,0.5,0.2,1.1,0.2,2.1l0,0.8c0,1,0,1.5-0.2,2.1c-0.2,0.5-0.4,0.9-0.8,1.3c-0.4,0.4-0.9,0.7-1.7,1.2
		l-0.5,0.3c0,0,0,0,0,0L26,19.3c-0.3,0.2-0.5,0.4-0.7,0.7l-0.2,0.3C25,20.5,25,20.8,25,21.1l0,0.8c0,1,0,1.5-0.1,2
		c-0.2,0.5-0.4,0.9-0.7,1.3c-0.4,0.4-0.8,0.7-1.7,1.2l-0.7,0.4c-0.9,0.5-1.3,0.8-1.9,0.9C19.6,27.7,19.4,27.8,19.1,27.8z M14.8,24.6
		l0.2,0c0.6,0,1.1,0.2,1.6,0.4l0.7,0.4c0.8,0.5,1.1,0.7,1.4,0.7c0.3,0.1,0.6,0.1,0.9,0c0.3-0.1,0.7-0.3,1.4-0.7l0.7-0.4
		c0.8-0.4,1.1-0.6,1.3-0.9c0.2-0.2,0.3-0.5,0.4-0.7c0.1-0.3,0.1-0.7,0.1-1.6l0-0.8c0-0.6,0.2-1.1,0.4-1.6l0.2-0.3
		c0.3-0.5,0.7-0.9,1.2-1.2l0.2-0.1c0,0,0,0,0,0l0.5-0.3c0.8-0.4,1.1-0.6,1.4-0.9c0.2-0.2,0.3-0.5,0.4-0.7c0.1-0.3,0.1-0.7,0.1-1.6
		l0-0.8c0-0.9,0-1.3-0.1-1.6c-0.1-0.3-0.2-0.5-0.4-0.7c-0.2-0.2-0.6-0.4-1.3-0.9c0,0,0,0,0,0L25.3,10c-0.5-0.3-0.9-0.7-1.2-1.2
		l-0.2-0.4c-0.3-0.5-0.4-1-0.4-1.6l0-0.8c0-0.9,0-1.3-0.1-1.6C23.3,4.3,23.2,4,23,3.8c-0.2-0.2-0.6-0.5-1.3-0.9L21,2.5
		c-0.7-0.4-1.1-0.6-1.4-0.7c-0.3-0.1-0.6-0.1-0.8,0c-0.3,0.1-0.7,0.3-1.4,0.7l-0.7,0.4c-0.5,0.3-1,0.4-1.6,0.4l-0.2,0l-0.2,0
		c-0.6,0-1.1-0.2-1.6-0.4l-0.7-0.4c-0.7-0.4-1.1-0.7-1.4-0.7c-0.3-0.1-0.6-0.1-0.8,0C9.7,1.9,9.3,2.1,8.6,2.5L7.9,2.9
		C7.2,3.3,6.8,3.6,6.6,3.8C6.4,4,6.3,4.3,6.2,4.5C6.1,4.8,6.1,5.2,6.1,6.1l0,0.8C6.1,7.5,6,8,5.7,8.5L5.5,8.9
		C5.2,9.3,4.8,9.7,4.3,10l-0.7,0.4c-0.8,0.4-1.1,0.6-1.4,0.9c-0.2,0.2-0.3,0.5-0.4,0.7c-0.1,0.3-0.1,0.7-0.1,1.6l0,0.8
		c0,0.9,0,1.3,0.1,1.6c0.1,0.3,0.2,0.5,0.4,0.7c0.2,0.2,0.6,0.4,1.3,0.9L4.3,18c0.5,0.3,0.9,0.7,1.2,1.2l0.2,0.4
		c0.3,0.5,0.4,1,0.4,1.6l0,0.8c0,0.9,0,1.3,0.1,1.6c0.1,0.3,0.2,0.5,0.4,0.7c0.2,0.2,0.6,0.5,1.3,0.9l0.7,0.4
		c0.8,0.4,1.1,0.6,1.4,0.7c0.3,0.1,0.6,0.1,0.8,0c0.3-0.1,0.7-0.3,1.4-0.7l0.6-0.4c0.5-0.3,1.1-0.4,1.6-0.5L14.8,24.6z M25.8,18.5
		L25.8,18.5L25.8,18.5z"/>
</g>
<g>
	<path class="st0" d="M14.8,20.3c-3.5,0-6.3-2.8-6.3-6.3s2.8-6.3,6.3-6.3S21,10.5,21,14S18.2,20.3,14.8,20.3z M14.8,9.2
		c-2.6,0-4.8,2.1-4.8,4.8s2.1,4.8,4.8,4.8s4.8-2.1,4.8-4.8S17.4,9.2,14.8,9.2z"/>
</g>
</svg>
