<svg width="23" height="26" viewBox="0 0 23 26" fill="none" xmlns="http://www.w3.org/2000/svg">
<path d="M22.999 22.1759C22.999 24.2869 21.477 26 19.6163 26C17.749 26 16.2336 24.2869 16.2336 22.1759C16.2336 21.7479 16.3078 21.3425 16.4229 20.9597L8.17773 15.5237C7.33875 16.7088 6.04697 17.4734 4.59246 17.4734C2.06306 17.4734 0 15.1484 0 12.2816C0 9.41361 2.06323 7.08986 4.59246 7.08986C6.14867 7.08986 7.52803 7.96951 8.36037 9.30726L16.3555 4.80375C16.2822 4.48868 16.2347 4.16821 16.2347 3.82409C16.2347 1.71315 17.75 0 19.6173 0C21.4779 0 23 1.71306 23 3.82409C23 5.93512 21.478 7.64818 19.6173 7.64818C18.5348 7.64818 17.5884 7.06748 16.9652 6.17278L8.96353 10.6763C9.11193 11.1806 9.19373 11.7237 9.19373 12.2818C9.19373 12.9625 9.07197 13.6045 8.8627 14.2013L17.1079 19.6384C17.7224 18.8577 18.6156 18.3533 19.6163 18.3533C21.4769 18.3533 22.999 20.0664 22.999 22.1763L22.999 22.1759Z" fill="#74121D"/>
</svg>
