<?xml version="1.0" encoding="utf-8"?>
<!-- Generator: Adobe Illustrator 25.4.1, SVG Export Plug-In . SVG Version: 6.00 Build 0)  -->
<svg version="1.1" id="Livello_1" xmlns="http://www.w3.org/2000/svg" xmlns:xlink="http://www.w3.org/1999/xlink" x="0px" y="0px"
	 viewBox="0 0 31 28" style="enable-background:new 0 0 31 28;" xml:space="preserve">
<style type="text/css">
	.st0{fill:#74121D;}
</style>
<g>
	<path class="st0" d="M30.2,27.8c-0.2,0-0.3-0.1-0.5-0.2l-5.4-4.5c-0.2-0.1-0.4-0.2-0.6-0.2h-13c-1.3,0-2.4-1.1-2.4-2.4v-4.1H7.5
		c-0.2,0-0.4,0.1-0.6,0.2l-5.4,4.5c-0.2,0.2-0.5,0.2-0.8,0.1c-0.3-0.1-0.4-0.4-0.4-0.7V2.6c0-1.3,1.1-2.4,2.4-2.4h17.9
		c1.3,0,2.4,1.1,2.4,2.4v4.1h5.8c1.3,0,2.4,1.1,2.4,2.4V27c0,0.3-0.2,0.6-0.4,0.7C30.5,27.7,30.4,27.8,30.2,27.8z M9.9,16.4v4.1
		c0,0.5,0.4,0.9,0.9,0.9h13c0.6,0,1.1,0.2,1.5,0.5l4.2,3.5V9.1c0-0.5-0.4-0.9-0.9-0.9h-5.8V14c0,1.3-1.1,2.4-2.4,2.4H9.9z M2.6,1.8
		c-0.5,0-0.9,0.4-0.9,0.9v16.3l4.2-3.5c0.4-0.4,1-0.5,1.5-0.5h13c0.5,0,0.9-0.4,0.9-0.9V2.6c0-0.5-0.4-0.9-0.9-0.9H2.6z"/>
</g>
</svg>
