<svg width="22" height="26" viewBox="0 0 22 26" fill="none" xmlns="http://www.w3.org/2000/svg">
<path d="M20.2925 5.82594L15.2046 0.941126C14.5634 0.325487 13.7451 0 12.8398 0L1.64464 0.0013068C0.737907 0.0013068 0 0.70977 0 1.58032V24.4223C0 25.2929 0.737907 26 1.64464 26H19.6281C20.5348 26 21.2727 25.2915 21.2727 24.4223V8.09776C21.2727 7.22721 20.9337 6.44165 20.2925 5.82728L20.2925 5.82594ZM14.8289 3.37771L17.7546 6.1867H14.8289V3.37771ZM2.06121 24.0209V1.97899H12.7691V6.51714C12.7691 7.42557 13.5397 8.16542 14.4859 8.16542H19.2126V24.0222H2.06114L2.06121 24.0209ZM16.7458 18.8239C16.7458 19.3703 16.2843 19.8134 15.7152 19.8134H5.55626C4.98718 19.8134 4.52566 19.3703 4.52566 18.8239C4.52566 18.2775 4.98718 17.8344 5.55626 17.8344H15.7152C16.2843 17.8344 16.7458 18.2775 16.7458 18.8239ZM16.7458 13.0008C16.7458 13.5472 16.2843 13.9903 15.7152 13.9903H5.55626C4.98718 13.9903 4.52566 13.5472 4.52566 13.0008C4.52566 12.4544 4.98718 12.0113 5.55626 12.0113H15.7152C16.2843 12.0113 16.7458 12.4544 16.7458 13.0008Z" fill="#74121D"/>
</svg>
