<?xml version="1.0" encoding="utf-8"?>
<!-- Generator: Adobe Illustrator 25.4.1, SVG Export Plug-In . SVG Version: 6.00 Build 0)  -->
<svg version="1.1" id="Livello_1" xmlns="http://www.w3.org/2000/svg" xmlns:xlink="http://www.w3.org/1999/xlink" x="0px" y="0px"
	 viewBox="0 0 26 28" style="enable-background:new 0 0 26 28;" xml:space="preserve">
<style type="text/css">
	.st0{fill:#757373;}
</style>
<g>
	<path class="st0" d="M16.9,28H8.6c-1.8,0-2.7,0-3.5-0.4c-0.7-0.4-1.3-1-1.7-1.7c-0.4-0.8-0.4-1.8-0.4-3.5v-16H1c-0.6,0-1-0.4-1-1
		s0.4-1,1-1h4.9c0-0.9,0.1-1.4,0.3-1.9c0.4-1,1.2-1.7,2.1-2.1C9,0,9.8,0,11.3,0h2.9c1.5,0,2.2,0,3,0.3c1,0.4,1.7,1.1,2.1,2.1
		c0.2,0.5,0.3,1.1,0.3,1.9h4.9c0.6,0,1,0.4,1,1s-0.4,1-1,1h-1.9v16c0,1.7,0,2.7-0.4,3.5c-0.4,0.7-1,1.3-1.7,1.7
		C19.6,28,18.7,28,16.9,28z M4.9,6.3v16c0,1.4,0,2.2,0.2,2.6c0.2,0.4,0.5,0.6,0.8,0.8C6.4,26,7.2,26,8.6,26h8.2c1.4,0,2.2,0,2.6-0.2
		c0.4-0.2,0.7-0.5,0.8-0.8c0.2-0.4,0.2-1.2,0.2-2.6v-16H4.9z M7.9,4.3h9.8c0-0.6,0-0.9-0.1-1.2c-0.2-0.5-0.6-0.8-1-1
		C16.1,2,15.4,2,14.2,2h-2.9c-1.2,0-1.9,0-2.2,0.1c-0.5,0.2-0.8,0.6-1,1C7.9,3.4,7.9,3.8,7.9,4.3z M15.7,22.2c-0.6,0-1-0.4-1-1V11.1
		c0-0.6,0.4-1,1-1s1,0.4,1,1v10.1C16.7,21.8,16.3,22.2,15.7,22.2z M9.8,22.2c-0.6,0-1-0.4-1-1V11.1c0-0.6,0.4-1,1-1s1,0.4,1,1v10.1
		C10.8,21.8,10.4,22.2,9.8,22.2z"/>
</g>
</svg>
