<?xml version="1.0" encoding="utf-8"?>
<!-- Generator: Adobe Illustrator 25.4.1, SVG Export Plug-In . SVG Version: 6.00 Build 0)  -->
<svg version="1.1" id="Livello_1" xmlns="http://www.w3.org/2000/svg" xmlns:xlink="http://www.w3.org/1999/xlink" x="0px" y="0px"
	 viewBox="0 0 10 28" style="enable-background:new 0 0 10 28;" xml:space="preserve">
<style type="text/css">
	.st0{fill:#74121D;}
</style>
<g>
	<path class="st0" d="M6.8,5.7V1.4c0-0.1,0-0.2-0.1-0.3C6.6,1,6.6,1,6.5,1H3.6C3.5,1,3.4,1,3.3,1.1C3.3,1.2,3.2,1.3,3.2,1.4v4.3
		c0,0.9-0.4,2.2-1.1,2.9C1.8,8.9,1.5,9.3,1.3,9.8c-0.2,0.5-0.3,1-0.3,1.5v15.4c0,0.1,0,0.2,0.1,0.3C1.2,27,1.3,27,1.4,27h7.3
		c0.1,0,0.2,0,0.3-0.1C9,26.8,9,26.7,9,26.6V11.3c0-0.5-0.1-1-0.3-1.5C8.6,9.3,8.3,8.9,7.9,8.5C7.2,7.7,6.8,6.7,6.8,5.7z M6.1,1.7V4
		H4V1.7H6.1z M8.3,22H1.7v-8.3h6.6V22z M1.7,26.3v-3.5h6.6v3.5H1.7z M8.3,12.9H1.7v-1.6c0-0.4,0.1-0.8,0.2-1.2
		c0.2-0.4,0.4-0.7,0.7-1C3.6,8.2,4,6.7,4,5.7v-1h2.1v1c0,1,0.4,2.5,1.3,3.4c0.3,0.3,0.5,0.6,0.7,1c0.2,0.4,0.2,0.8,0.2,1.2V12.9z"/>
	<path class="st0" d="M8.7,27.1H1.4c-0.1,0-0.3-0.1-0.4-0.1c-0.1-0.1-0.1-0.2-0.1-0.4V11.3c0-0.5,0.1-1.1,0.3-1.5
		c0.2-0.5,0.5-0.9,0.9-1.3c0.7-0.6,1-1.9,1-2.8V1.4c0-0.1,0.1-0.3,0.1-0.4s0.2-0.1,0.4-0.1h2.9c0.1,0,0.3,0.1,0.4,0.1
		C6.9,1.1,7,1.2,7,1.4v4.3c0,1,0.4,2,1,2.8c0.4,0.4,0.7,0.8,0.9,1.3c0.2,0.5,0.3,1,0.3,1.5v15.4c0,0.1-0.1,0.3-0.1,0.4
		C8.9,27.1,8.8,27.1,8.7,27.1z M3.6,1.1c-0.1,0-0.1,0-0.2,0.1S3.3,1.3,3.3,1.4v4.3c0,0.9-0.4,2.3-1.1,2.9C1.9,9,1.6,9.4,1.4,9.8
		c-0.2,0.5-0.3,0.9-0.3,1.4v15.4c0,0.1,0,0.1,0.1,0.2c0,0,0.1,0.1,0.2,0.1h7.3c0.1,0,0.1,0,0.2-0.1c0,0,0.1-0.1,0.1-0.2V11.3
		c0-0.5-0.1-1-0.3-1.4C8.4,9.4,8.2,9,7.8,8.6c-0.7-0.8-1.1-1.9-1.1-3V1.4c0-0.1,0-0.1-0.1-0.2c0,0-0.1-0.1-0.2-0.1H3.6z M8.4,26.4
		H1.6v-3.8h6.8V26.4z M1.9,26.1h6.3v-3.3H1.9V26.1z M8.4,22.1H1.6v-8.6h6.8V22.1z M1.9,21.9h6.3v-8.1H1.9V21.9z M8.4,13H1.6v-1.8
		c0-0.4,0.1-0.9,0.3-1.3C2,9.6,2.3,9.3,2.6,9c0.9-0.8,1.2-2.3,1.2-3.3V4.6h2.4v1.1c0,1,0.4,2.5,1.3,3.3C7.8,9.3,8,9.6,8.2,10
		c0.2,0.4,0.2,0.8,0.2,1.2V13z M1.9,12.8h6.3v-1.5c0-0.4-0.1-0.8-0.2-1.1c-0.2-0.4-0.4-0.7-0.6-1C6.4,8.3,6,6.7,6,5.7V4.8H4.1v0.8
		c0,1.1-0.4,2.6-1.3,3.5c-0.3,0.3-0.5,0.6-0.7,1c-0.2,0.4-0.2,0.8-0.2,1.2V12.8z M6.2,4.1H3.8V1.6h2.4V4.1z M4.1,3.8H6v-2H4.1V3.8z"
		/>
</g>
</svg>
