<svg width="15" height="25" viewBox="0 0 15 25" fill="none" xmlns="http://www.w3.org/2000/svg">
<path d="M14.7445 7.94737L13.4288 0.263158C13.4024 0.105263 13.2709 0 13.113 0H1.74455C1.58665 0 1.45507 0.105263 1.42876 0.263158L0.112967 7.94737C-0.202822 9.84211 0.139282 11.7895 1.19191 13.3947C2.37612 15.1842 4.19191 16.3421 6.24454 16.6579C6.58665 16.7105 6.84981 17.0263 6.84981 17.3684V23.0789C6.84981 23.4474 6.58665 23.7632 6.21823 23.8158L2.5077 24.3421C2.40244 24.3684 2.32349 24.4474 2.32349 24.5526V24.7632C2.32349 24.8947 2.42876 25 2.56033 25H12.2972C12.4288 25 12.534 24.8947 12.534 24.7632V24.5526C12.534 24.4474 12.4551 24.3421 12.3498 24.3421L8.69191 23.8421C8.32349 23.7895 8.06034 23.4737 8.06034 23.1053V17.3947C8.06034 17.0263 8.32349 16.7368 8.6656 16.6842C10.6919 16.3684 12.534 15.1842 13.6919 13.4211C14.7182 11.8158 15.0603 9.84211 14.7445 7.94737ZM2.24455 1.23684C2.27086 1.07895 2.40244 0.973684 2.56033 0.973684H12.2972C12.4551 0.973684 12.5866 1.07895 12.613 1.23684L13.7972 8.13158C13.7972 8.18421 13.8235 8.23684 13.8235 8.28947C12.9551 7.28947 11.6919 6.28947 9.92876 6.07895C6.19191 5.63158 5.29718 9.97368 1.13928 7.76316L2.24455 1.23684Z" fill="#74121D"/>
</svg>
